<svg width="19" height="19" viewBox="0 0 19 19" fill="none" xmlns="http://www.w3.org/2000/svg">
<path d="M7.75 10.3333H1.29167C0.925699 10.3333 0.619143 10.2093 0.372005 9.96134C0.124866 9.71334 0.000865565 9.40678 4.45402e-06 9.04167C-0.000856657 8.67656 0.123143 8.37 0.372005 8.122C0.620866 7.874 0.927421 7.75 1.29167 7.75H7.75V1.29167C7.75 0.925699 7.874 0.619143 8.122 0.372005C8.37 0.124866 8.67656 0.000865565 9.04167 4.45402e-06C9.40678 -0.000856657 9.71377 0.123143 9.96263 0.372005C10.2115 0.620866 10.3351 0.927421 10.3333 1.29167V7.75H16.7917C17.1576 7.75 17.4646 7.874 17.7126 8.122C17.9606 8.37 18.0842 8.67656 18.0833 9.04167C18.0825 9.40678 17.9585 9.71377 17.7113 9.96263C17.4642 10.2115 17.1576 10.3351 16.7917 10.3333H10.3333V16.7917C10.3333 17.1576 10.2093 17.4646 9.96134 17.7126C9.71334 17.9606 9.40678 18.0842 9.04167 18.0833C8.67656 18.0825 8.37 17.9585 8.122 17.7113C7.874 17.4642 7.75 17.1576 7.75 16.7917V10.3333Z" fill="currentColor"/>
</svg>
