<svg width="20" height="20" viewBox="0 0 20 20" fill="none" xmlns="http://www.w3.org/2000/svg">
<g clip-path="url(#clip0_8279_39348)">
<path d="M14.2658 16.875C14.2658 17.538 14.5291 18.1739 14.998 18.6428C15.4668 19.1116 16.1027 19.375 16.7658 19.375C17.4288 19.375 18.0647 19.1116 18.5335 18.6428C19.0024 18.1739 19.2658 17.538 19.2658 16.875V3.125C19.2658 2.46196 19.0024 1.82607 18.5335 1.35723C18.0647 0.888392 17.4288 0.625 16.7658 0.625C16.1027 0.625 15.4668 0.888392 14.998 1.35723C14.5291 1.82607 14.2658 2.46196 14.2658 3.125V16.875ZM7.39909 16.875C7.39909 17.538 7.66248 18.1739 8.13132 18.6428C8.60016 19.1116 9.23605 19.375 9.89909 19.375C10.5621 19.375 11.198 19.1116 11.6669 18.6428C12.1357 18.1739 12.3991 17.538 12.3991 16.875V12.2917C12.3991 11.6286 12.1357 10.9927 11.6669 10.5239C11.198 10.0551 10.5621 9.79167 9.89909 9.79167C9.23605 9.79167 8.60016 10.0551 8.13132 10.5239C7.66248 10.9927 7.39909 11.6286 7.39909 12.2917V16.875ZM0.732422 16.875C0.732422 17.538 0.995814 18.1739 1.46465 18.6428C1.9335 19.1116 2.56938 19.375 3.23242 19.375C3.89546 19.375 4.53135 19.1116 5.00019 18.6428C5.46903 18.1739 5.73242 17.538 5.73242 16.875C5.73242 16.212 5.46903 15.5761 5.00019 15.1072C4.53135 14.6384 3.89546 14.375 3.23242 14.375C2.56938 14.375 1.9335 14.6384 1.46465 15.1072C0.995814 15.5761 0.732422 16.212 0.732422 16.875Z" stroke="#E5E8EE" stroke-width="1.5" stroke-linecap="round" stroke-linejoin="round"/>
</g>
<defs>
<clipPath id="clip0_8279_39348">
<rect width="20" height="20" fill="white"/>
</clipPath>
</defs>
</svg>
