<svg width="29" height="28" viewBox="0 0 29 28" fill="none" xmlns="http://www.w3.org/2000/svg">
<path d="M20.0717 23.625C20.0717 24.5533 20.4404 25.4435 21.0968 26.0999C21.7532 26.7563 22.6434 27.125 23.5717 27.125C24.4999 27.125 25.3902 26.7563 26.0465 26.0999C26.7029 25.4435 27.0717 24.5533 27.0717 23.625V4.375C27.0717 3.44674 26.7029 2.5565 26.0465 1.90013C25.3902 1.24375 24.4999 0.875 23.5717 0.875C22.6434 0.875 21.7532 1.24375 21.0968 1.90013C20.4404 2.5565 20.0717 3.44674 20.0717 4.375V23.625ZM10.4583 23.625C10.4583 24.5533 10.8271 25.4435 11.4835 26.0999C12.1398 26.7563 13.0301 27.125 13.9583 27.125C14.8866 27.125 15.7768 26.7563 16.4332 26.0999C17.0896 25.4435 17.4583 24.5533 17.4583 23.625V17.2083C17.4583 16.2801 17.0896 15.3898 16.4332 14.7335C15.7768 14.0771 14.8866 13.7083 13.9583 13.7083C13.0301 13.7083 12.1398 14.0771 11.4835 14.7335C10.8271 15.3898 10.4583 16.2801 10.4583 17.2083V23.625ZM1.125 23.625C1.125 24.5533 1.49375 25.4435 2.15013 26.0999C2.8065 26.7563 3.69674 27.125 4.625 27.125C5.55326 27.125 6.4435 26.7563 7.09987 26.0999C7.75625 25.4435 8.125 24.5533 8.125 23.625C8.125 22.6967 7.75625 21.8065 7.09987 21.1501C6.4435 20.4937 5.55326 20.125 4.625 20.125C3.69674 20.125 2.8065 20.4937 2.15013 21.1501C1.49375 21.8065 1.125 22.6967 1.125 23.625Z" stroke="currentColor" stroke-width="2.25" stroke-linecap="round" stroke-linejoin="round"/>
</svg>
