<svg width="23" height="20" viewBox="0 0 23 20" fill="none" xmlns="http://www.w3.org/2000/svg">
<path fill-rule="evenodd" clip-rule="evenodd" d="M2.59375 9.625H19.7812V14.3125C19.7812 14.9341 19.5343 15.5302 19.0948 15.9698C18.6552 16.4093 18.0591 16.6562 17.4375 16.6562H4.9375C4.3159 16.6562 3.71976 16.4093 3.28022 15.9698C2.84068 15.5302 2.59375 14.9341 2.59375 14.3125V9.625ZM19.3078 7.28125L16.4156 2.94219C16.3443 2.83508 16.2477 2.74723 16.1343 2.68644C16.0209 2.62566 15.8943 2.59382 15.7656 2.59375H6.60938C6.48072 2.59382 6.35407 2.62566 6.24067 2.68644C6.12728 2.74723 6.03065 2.83508 5.95937 2.94219L3.06719 7.28125H19.3078ZM22.125 8.7V14.3125C22.125 15.5557 21.6311 16.748 20.7521 17.6271C19.873 18.5061 18.6807 19 17.4375 19H4.9375C3.6943 19 2.50201 18.5061 1.62294 17.6271C0.74386 16.748 0.25 15.5557 0.25 14.3125V8.7C0.250101 7.7746 0.52411 6.86993 1.0375 6.1L4.00937 1.64219C4.29466 1.21404 4.68124 0.862943 5.13481 0.62008C5.58837 0.377216 6.09488 0.250095 6.60938 0.25H15.7656C16.28 0.249923 16.7864 0.376806 17.2399 0.619391C17.6935 0.861976 18.0802 1.21276 18.3656 1.64063L21.3375 6.1C21.8509 6.86993 22.1249 7.7746 22.125 8.7ZM13.1406 14.3125C13.4514 14.3125 13.7495 14.189 13.9693 13.9693C14.189 13.7495 14.3125 13.4514 14.3125 13.1406C14.3125 12.8298 14.189 12.5318 13.9693 12.312C13.7495 12.0922 13.4514 11.9688 13.1406 11.9688H9.23438C8.92357 11.9688 8.6255 12.0922 8.40573 12.312C8.18597 12.5318 8.0625 12.8298 8.0625 13.1406C8.0625 13.4514 8.18597 13.7495 8.40573 13.9693C8.6255 14.189 8.92357 14.3125 9.23438 14.3125H13.1406Z" fill="#64748B" stroke="#EDEEEE" stroke-width="0.5"/>
</svg>
