<svg width="25" height="20" viewBox="0 0 25 20" fill="none" xmlns="http://www.w3.org/2000/svg">
<path fill-rule="evenodd" clip-rule="evenodd" d="M6.25 7.28063C6.8716 7.28063 7.46774 7.0337 7.90728 6.59417C8.34682 6.15463 8.59375 5.55849 8.59375 4.93688C8.59375 4.31528 8.34682 3.71914 7.90728 3.2796C7.46774 2.84006 6.8716 2.59313 6.25 2.59313C5.6284 2.59313 5.03226 2.84006 4.59272 3.2796C4.15318 3.71914 3.90625 4.31528 3.90625 4.93688C3.90625 5.55849 4.15318 6.15463 4.59272 6.59417C5.03226 7.0337 5.6284 7.28063 6.25 7.28063ZM10.9375 4.93688C10.9377 6.17364 10.4491 7.36035 9.57812 8.23845C10.473 8.80143 11.2105 9.58223 11.7215 10.5078C12.2325 11.4333 12.5003 12.4734 12.5 13.5306V15.8744C12.5 16.7032 12.1708 17.498 11.5847 18.0841C10.9987 18.6701 10.2038 18.9994 9.375 18.9994H3.125C2.2962 18.9994 1.50134 18.6701 0.915291 18.0841C0.32924 17.498 0 16.7032 0 15.8744V13.5306C0 11.3009 1.16719 9.3447 2.92188 8.23845C2.37962 7.69173 1.98041 7.01984 1.75951 6.28218C1.53862 5.54452 1.50285 4.7638 1.65537 4.00903C1.80789 3.25426 2.14401 2.54869 2.634 1.95469C3.12399 1.36068 3.75277 0.896529 4.46477 0.603265C5.17676 0.310001 5.95004 0.196656 6.71624 0.273246C7.48245 0.349837 8.21799 0.614006 8.85784 1.0424C9.4977 1.4708 10.0222 2.05023 10.3849 2.72947C10.7476 3.40872 10.9374 4.16686 10.9375 4.93688ZM2.34375 13.5306C2.34375 12.4946 2.7553 11.5011 3.48786 10.7685C4.22043 10.0359 5.214 9.62438 6.25 9.62438C7.286 9.62438 8.27957 10.0359 9.01214 10.7685C9.7447 11.5011 10.1562 12.4946 10.1562 13.5306V15.8744C10.1562 16.0816 10.0739 16.2803 9.92743 16.4268C9.78091 16.5733 9.5822 16.6556 9.375 16.6556H3.125C2.9178 16.6556 2.71909 16.5733 2.57257 16.4268C2.42606 16.2803 2.34375 16.0816 2.34375 15.8744V13.5306ZM20.3125 12.7494C20.0017 12.7494 19.7036 12.6259 19.4839 12.4061C19.2641 12.1864 19.1406 11.8883 19.1406 11.5775V9.23376H16.7969C16.4861 9.23376 16.188 9.11029 15.9682 8.89052C15.7485 8.67076 15.625 8.37268 15.625 8.06188C15.625 7.75108 15.7485 7.45301 15.9682 7.23324C16.188 7.01347 16.4861 6.89001 16.7969 6.89001H19.1406V4.54626C19.1406 4.23546 19.2641 3.93739 19.4839 3.71762C19.7036 3.49785 20.0017 3.37438 20.3125 3.37438C20.6233 3.37438 20.9214 3.49785 21.1411 3.71762C21.3609 3.93739 21.4844 4.23546 21.4844 4.54626V6.89001H23.8281C24.1389 6.89001 24.437 7.01347 24.6568 7.23324C24.8765 7.45301 25 7.75108 25 8.06188C25 8.37268 24.8765 8.67076 24.6568 8.89052C24.437 9.11029 24.1389 9.23376 23.8281 9.23376H21.4844V11.5775C21.4844 11.8883 21.3609 12.1864 21.1411 12.4061C20.9214 12.6259 20.6233 12.7494 20.3125 12.7494Z" fill="#64748B" stroke="#EDEEEE" stroke-width="0.5"/>
</svg>
