<svg width="31" height="24" viewBox="0 0 31 24" fill="none" xmlns="http://www.w3.org/2000/svg">
<path d="M4.62398 12.4153L15.223 19.4813C15.2983 19.5314 15.3857 19.5602 15.4761 19.5645C15.5664 19.5688 15.6562 19.5486 15.736 19.5059C15.8157 19.4632 15.8824 19.3997 15.9289 19.3221C15.9754 19.2445 15.9999 19.1558 16 19.0653V4.93334C15.9999 4.84289 15.9754 4.75416 15.9289 4.67658C15.8824 4.599 15.8157 4.53548 15.736 4.49279C15.6562 4.45011 15.5664 4.42984 15.4761 4.43416C15.3857 4.43849 15.2983 4.46723 15.223 4.51734L4.62398 11.5833C4.5555 11.629 4.49935 11.6909 4.46052 11.7634C4.42169 11.836 4.40137 11.917 4.40137 11.9993C4.40137 12.0816 4.42169 12.1627 4.46052 12.2352C4.49935 12.3078 4.5555 12.3697 4.62398 12.4153Z" fill="currentColor"/>
<path d="M11.624 12.4153L22.223 19.4813C22.2983 19.5314 22.3857 19.5602 22.4761 19.5645C22.5664 19.5688 22.6562 19.5486 22.736 19.5059C22.8157 19.4632 22.8824 19.3997 22.9289 19.3221C22.9754 19.2445 22.9999 19.1558 23 19.0653V4.93334C22.9999 4.84289 22.9754 4.75416 22.9289 4.67658C22.8824 4.599 22.8157 4.53548 22.736 4.49279C22.6562 4.45011 22.5664 4.42984 22.4761 4.43416C22.3857 4.43849 22.2983 4.46723 22.223 4.51734L11.624 11.5833C11.5555 11.629 11.4994 11.6909 11.4605 11.7634C11.4217 11.836 11.4014 11.917 11.4014 11.9993C11.4014 12.0816 11.4217 12.1627 11.4605 12.2352C11.4994 12.3078 11.5555 12.3697 11.624 12.4153Z" fill="currentColor"/>
</svg>
