<svg width="31" height="24" viewBox="0 0 31 24" fill="none" xmlns="http://www.w3.org/2000/svg">
<path d="M26.376 11.5847L15.777 4.51867C15.7017 4.46856 15.6143 4.43982 15.5239 4.4355C15.4336 4.43117 15.3438 4.45144 15.264 4.49413C15.1843 4.53681 15.1176 4.60033 15.0711 4.67791C15.0246 4.75549 15.0001 4.84422 15 4.93467L15 19.0667C15.0001 19.1571 15.0246 19.2458 15.0711 19.3234C15.1176 19.401 15.1843 19.4645 15.264 19.5072C15.3438 19.5499 15.4336 19.5702 15.5239 19.5658C15.6143 19.5615 15.7017 19.5328 15.777 19.4827L26.376 12.4167C26.4445 12.371 26.5006 12.3091 26.5395 12.2366C26.5783 12.164 26.5986 12.083 26.5986 12.0007C26.5986 11.9184 26.5783 11.8373 26.5395 11.7648C26.5006 11.6922 26.4445 11.6303 26.376 11.5847Z" fill="currentColor"/>
<path d="M19.376 11.5847L8.77702 4.51867C8.70173 4.46856 8.61425 4.43982 8.52391 4.4355C8.43357 4.43117 8.34375 4.45144 8.26402 4.49413C8.18429 4.53681 8.11763 4.60033 8.07114 4.67791C8.02465 4.75549 8.00007 4.84422 8.00002 4.93467L8.00002 19.0667C8.00007 19.1571 8.02465 19.2458 8.07114 19.3234C8.11763 19.401 8.18429 19.4645 8.26402 19.5072C8.34375 19.5499 8.43358 19.5702 8.52391 19.5658C8.61425 19.5615 8.70173 19.5328 8.77702 19.4827L19.376 12.4167C19.4445 12.371 19.5006 12.3091 19.5395 12.2366C19.5783 12.164 19.5986 12.083 19.5986 12.0007C19.5986 11.9184 19.5783 11.8373 19.5395 11.7648C19.5006 11.6922 19.4445 11.6303 19.376 11.5847Z" fill="currentColor"/>
</svg>
