<svg width="12" height="11" viewBox="0 0 12 11" fill="none" xmlns="http://www.w3.org/2000/svg">
<path d="M11.375 0.874996L11.375 9.625C11.375 9.87291 11.291 10.0806 11.123 10.248C10.955 10.4154 10.7473 10.4994 10.5 10.5C10.2527 10.5006 10.0447 10.4166 9.87613 10.248C9.70754 10.0794 9.62383 9.87175 9.625 9.625L9.625 0.874996C9.625 0.62708 9.709 0.419123 9.877 0.251123C10.045 0.0831224 10.2527 -0.000586412 10.5 -3.7382e-06C10.7473 0.000579889 10.955 0.0845805 11.123 0.251997C11.291 0.419414 11.375 0.62708 11.375 0.874996ZM1.35625 0.896872L6.78125 4.52812C6.9125 4.61562 7.01079 4.72121 7.07612 4.84487C7.14146 4.96854 7.17442 5.10358 7.175 5.25C7.17558 5.39641 7.14262 5.53116 7.07612 5.65425C7.00962 5.77733 6.91133 5.88321 6.78125 5.97187L1.35625 9.60312C1.28333 9.66146 1.20312 9.69791 1.11562 9.7125C1.02812 9.72708 0.947917 9.73437 0.875 9.73437C0.641666 9.73437 0.437499 9.65416 0.262499 9.49375C0.0874995 9.33333 -1.2048e-07 9.12187 -1.43428e-07 8.85937L-7.74511e-07 1.64062C-7.9746e-07 1.37812 0.0874988 1.16666 0.262498 1.00625C0.437498 0.845831 0.641666 0.765622 0.874999 0.765622C0.947916 0.765622 1.02812 0.772914 1.11562 0.787497C1.20312 0.80208 1.28333 0.838539 1.35625 0.896872Z" fill="#818181"/>
</svg>
