<svg width="20" height="20" viewBox="0 0 20 20" fill="none" xmlns="http://www.w3.org/2000/svg">
<path fill-rule="evenodd" clip-rule="evenodd" d="M12.1722 8.95659C12.8556 9.48492 12.8556 10.5149 12.1722 11.0441C10.3725 12.4355 8.36335 13.5325 6.21974 14.2941L5.83141 14.4324C4.97891 14.7358 4.08141 14.1583 3.96641 13.2816C3.68307 11.1233 3.68307 8.87659 3.96641 6.71825C4.08141 5.84159 4.97891 5.26409 5.83141 5.56742L6.21974 5.70492C8.36346 6.46703 10.3726 7.56457 12.1722 8.95659ZM11.4072 10.0549C11.4156 10.0484 11.4223 10.04 11.4269 10.0305C11.4315 10.021 11.4339 10.0105 11.4339 9.99992C11.4339 9.98933 11.4315 9.97888 11.4269 9.96935C11.4223 9.95982 11.4156 9.95147 11.4072 9.94492C9.71237 8.63423 7.82022 7.60082 5.80141 6.88325L5.41307 6.74492C5.39044 6.73805 5.36658 6.73623 5.34317 6.73959C5.31976 6.74295 5.29738 6.75141 5.27759 6.76436C5.2578 6.77731 5.2411 6.79445 5.22866 6.81456C5.21621 6.83467 5.20833 6.85726 5.20557 6.88075C4.93605 8.95146 4.93605 11.0484 5.20557 13.1191C5.21974 13.2274 5.33057 13.2841 5.41391 13.2549L5.80141 13.1166C7.82057 12.3999 9.71307 11.3666 11.4072 10.0549ZM14.9997 5.20825C15.1655 5.20825 15.3245 5.2741 15.4417 5.39131C15.5589 5.50852 15.6247 5.66749 15.6247 5.83325V14.1666C15.6247 14.3323 15.5589 14.4913 15.4417 14.6085C15.3245 14.7257 15.1655 14.7916 14.9997 14.7916C14.834 14.7916 14.675 14.7257 14.5578 14.6085C14.4406 14.4913 14.3747 14.3323 14.3747 14.1666V5.83325C14.3747 5.66749 14.4406 5.50852 14.5578 5.39131C14.675 5.2741 14.834 5.20825 14.9997 5.20825Z" fill="#818181"/>
</svg>
