<svg width="30" height="30" viewBox="0 0 30 30" fill="none" xmlns="http://www.w3.org/2000/svg">
<path d="M8.97375 4.375H16.0262C16.7037 4.375 17.2513 4.375 17.6925 4.41125C18.1488 4.44875 18.5487 4.5275 18.9188 4.715C19.5066 5.01487 19.9844 5.49313 20.2837 6.08125C20.4725 6.45125 20.5513 6.85125 20.5888 7.30625C20.625 7.75 20.625 8.29625 20.625 8.97375V12.8125C20.625 12.9783 20.5592 13.1372 20.4419 13.2544C20.3247 13.3717 20.1658 13.4375 20 13.4375C19.8342 13.4375 19.6753 13.3717 19.5581 13.2544C19.4408 13.1372 19.375 12.9783 19.375 12.8125V9C19.375 8.29 19.375 7.795 19.3425 7.40875C19.3125 7.03125 19.255 6.81375 19.17 6.64875C18.9905 6.29582 18.7039 6.00878 18.3512 5.82875C18.1862 5.745 17.97 5.6875 17.5912 5.6575C17.205 5.625 16.71 5.625 16 5.625H9C8.29 5.625 7.795 5.625 7.40875 5.6575C7.03125 5.6875 6.81375 5.745 6.64875 5.82875C6.29563 6.00857 6.00857 6.29563 5.82875 6.64875C5.745 6.81375 5.6875 7.03125 5.6575 7.40875C5.625 7.795 5.625 8.29 5.625 9V21C5.625 21.71 5.625 22.2063 5.6575 22.5913C5.6875 22.9688 5.745 23.1863 5.82875 23.3513C6.00657 23.6997 6.28892 23.9838 6.63625 24.1638L6.64875 24.1663C6.67125 24.1713 6.72625 24.1838 6.82875 24.1988C6.98625 24.2221 7.1925 24.2429 7.4475 24.2613C7.9525 24.2988 8.5975 24.3238 9.28 24.3413C10.6412 24.375 12.1112 24.375 12.8125 24.375C12.9783 24.375 13.1372 24.4408 13.2544 24.5581C13.3717 24.6753 13.4375 24.8342 13.4375 25C13.4375 25.1658 13.3717 25.3247 13.2544 25.4419C13.1372 25.5592 12.9783 25.625 12.8125 25.625H12.8112C12.1112 25.625 10.6263 25.625 9.24875 25.5913C8.61695 25.5783 7.98553 25.5508 7.355 25.5088C7.11838 25.493 6.8824 25.4688 6.6475 25.4363C6.45192 25.4154 6.26083 25.364 6.08125 25.2838C5.49313 24.9844 5.01487 24.5066 4.715 23.9188C4.5275 23.5488 4.44875 23.1488 4.41125 22.6938C4.375 22.25 4.375 21.7025 4.375 21.025V8.975C4.375 8.2975 4.375 7.75 4.41125 7.30875C4.44875 6.8525 4.5275 6.4525 4.715 6.0825C5.01466 5.49419 5.49294 5.01591 6.08125 4.71625C6.45125 4.52875 6.85125 4.45 7.30625 4.4125C7.75 4.375 8.29625 4.375 8.97375 4.375Z" fill="white"/>
<path d="M23.275 15.625C23.7788 15.625 24.1938 15.625 24.5325 15.6525C24.8838 15.6813 25.2075 15.7425 25.51 15.8975C25.9804 16.1372 26.3628 16.5196 26.6025 16.99C26.7575 17.2938 26.8188 17.6163 26.8475 17.9675C26.875 18.305 26.875 18.7213 26.875 19.2238V22.0263C26.875 22.5288 26.875 22.9438 26.8475 23.2825C26.8188 23.6338 26.7575 23.9575 26.6025 24.26C26.3628 24.7304 25.9804 25.1128 25.51 25.3525C25.2063 25.5075 24.8838 25.5688 24.5325 25.5975C24.195 25.625 23.7788 25.625 23.2763 25.625H17.9738C17.4713 25.625 17.0563 25.625 16.7175 25.5975C16.3663 25.5688 16.0425 25.5075 15.74 25.3525C15.2696 25.1128 14.8872 24.7304 14.6475 24.26C14.4925 23.9563 14.4313 23.6338 14.4025 23.2825C14.375 22.945 14.375 22.5288 14.375 22.0263V19.2238C14.375 18.7213 14.375 18.3063 14.4025 17.9675C14.4313 17.6163 14.4925 17.2925 14.6475 16.99C14.8872 16.5196 15.2696 16.1372 15.74 15.8975C16.0438 15.7425 16.3663 15.6813 16.7175 15.6525C17.055 15.625 17.4713 15.625 17.9738 15.625H23.275ZM16.82 16.8988C16.545 16.9213 16.405 16.9613 16.3075 17.0113C16.0723 17.1311 15.8811 17.3223 15.7613 17.5575C15.7113 17.655 15.6713 17.795 15.6488 18.07L15.6438 18.125H25.6063L25.6013 18.07C25.5788 17.795 25.5388 17.655 25.4888 17.5575C25.3689 17.3223 25.1777 17.1311 24.9425 17.0113C24.845 16.9613 24.705 16.9213 24.43 16.8988C24.0371 16.8765 23.6435 16.8686 23.25 16.875H18C17.465 16.875 17.1 16.875 16.82 16.8988ZM25.625 20.625H15.625V22C15.625 22.535 15.625 22.9 15.6488 23.18C15.6713 23.455 15.7113 23.595 15.7613 23.6925C15.8811 23.9277 16.0723 24.1189 16.3075 24.2388C16.405 24.2888 16.545 24.3288 16.82 24.3513C17.1013 24.375 17.465 24.375 18 24.375H23.25C23.785 24.375 24.15 24.375 24.43 24.3513C24.705 24.3288 24.845 24.2888 24.9425 24.2388C25.1777 24.1189 25.3689 23.9277 25.4888 23.6925C25.5388 23.595 25.5788 23.455 25.6013 23.18C25.625 22.8988 25.625 22.535 25.625 22V20.625ZM8.125 8.125C7.95924 8.125 7.80027 8.19085 7.68306 8.30806C7.56585 8.42527 7.5 8.58424 7.5 8.75C7.5 8.91576 7.56585 9.07473 7.68306 9.19194C7.80027 9.30915 7.95924 9.375 8.125 9.375H13.125C13.2908 9.375 13.4497 9.30915 13.5669 9.19194C13.6842 9.07473 13.75 8.91576 13.75 8.75C13.75 8.58424 13.6842 8.42527 13.5669 8.30806C13.4497 8.19085 13.2908 8.125 13.125 8.125H8.125ZM7.5 12.5C7.5 12.3342 7.56585 12.1753 7.68306 12.0581C7.80027 11.9408 7.95924 11.875 8.125 11.875H16.875C17.0408 11.875 17.1997 11.9408 17.3169 12.0581C17.4342 12.1753 17.5 12.3342 17.5 12.5C17.5 12.6658 17.4342 12.8247 17.3169 12.9419C17.1997 13.0592 17.0408 13.125 16.875 13.125H8.125C7.95924 13.125 7.80027 13.0592 7.68306 12.9419C7.56585 12.8247 7.5 12.6658 7.5 12.5ZM8.125 15.625C7.95924 15.625 7.80027 15.6908 7.68306 15.8081C7.56585 15.9253 7.5 16.0842 7.5 16.25C7.5 16.4158 7.56585 16.5747 7.68306 16.6919C7.80027 16.8092 7.95924 16.875 8.125 16.875H12.5C12.6658 16.875 12.8247 16.8092 12.9419 16.6919C13.0592 16.5747 13.125 16.4158 13.125 16.25C13.125 16.0842 13.0592 15.9253 12.9419 15.8081C12.8247 15.6908 12.6658 15.625 12.5 15.625H8.125ZM7.5 21.25C7.5 21.0842 7.56585 20.9253 7.68306 20.8081C7.80027 20.6908 7.95924 20.625 8.125 20.625H10.625C10.7908 20.625 10.9497 20.6908 11.0669 20.8081C11.1842 20.9253 11.25 21.0842 11.25 21.25C11.25 21.4158 11.1842 21.5747 11.0669 21.6919C10.9497 21.8092 10.7908 21.875 10.625 21.875H8.125C7.95924 21.875 7.80027 21.8092 7.68306 21.6919C7.56585 21.5747 7.5 21.4158 7.5 21.25Z" fill="white"/>
</svg>
