<svg width="26" height="24" viewBox="0 0 26 24" fill="none" xmlns="http://www.w3.org/2000/svg">
<path d="M22.4271 6.42708C23.1343 6.42708 23.8126 6.14613 24.3127 5.64604C24.8128 5.14594 25.0938 4.46766 25.0938 3.76042C25.0938 3.05317 24.8128 2.3749 24.3127 1.8748C23.8126 1.3747 23.1343 1.09375 22.4271 1.09375H3.76042C3.05317 1.09375 2.3749 1.3747 1.8748 1.8748C1.3747 2.3749 1.09375 3.05317 1.09375 3.76042C1.09375 4.46766 1.3747 5.14594 1.8748 5.64604C2.3749 6.14613 3.05317 6.42708 3.76042 6.42708M22.4271 6.42708H3.76042M22.4271 6.42708V19.7604C22.4271 20.4677 22.1461 21.1459 21.646 21.646C21.1459 22.1461 20.4677 22.4271 19.7604 22.4271H6.42708C5.71984 22.4271 5.04156 22.1461 4.54147 21.646C4.04137 21.1459 3.76042 20.4677 3.76042 19.7604V6.42708M10.4271 11.7604H15.7604" stroke="currentColor" stroke-width="2.1875" stroke-linecap="round" stroke-linejoin="round"/>
</svg>
