<svg width="26" height="26" viewBox="0 0 26 26" fill="none" xmlns="http://www.w3.org/2000/svg">
<path d="M22.354 4.2298C21.1076 2.99126 19.6262 2.01442 17.9969 1.3567C16.3675 0.698986 14.6231 0.373678 12.8663 0.399906C9.56835 0.391661 6.40226 1.69384 4.06446 4.01997C1.72667 6.34611 0.408674 9.50566 0.40043 12.8036C0.392185 16.1015 1.69436 19.2676 4.0205 21.6053C6.34663 23.9431 9.50618 25.2611 12.8041 25.2694C13.5147 25.2815 14.2093 25.0572 14.7787 24.6319C15.3481 24.2065 15.7601 23.6041 15.9501 22.9192C16.0712 22.4246 16.0699 21.908 15.9464 21.414C15.8229 20.92 15.5809 20.4635 15.2413 20.0841C15.1628 19.9947 15.1115 19.8847 15.0937 19.7671C15.0758 19.6495 15.092 19.5292 15.1405 19.4206C15.1889 19.3119 15.2675 19.2194 15.3669 19.1541C15.4663 19.0888 15.5824 19.0533 15.7014 19.052H17.7531C19.6842 19.061 21.5471 18.3392 22.9679 17.0314C24.3888 15.7236 25.2622 13.9267 25.4129 12.0015C25.4592 10.5661 25.2117 9.13629 24.6857 7.79989C24.1597 6.46349 23.3662 5.24862 22.354 4.2298ZM17.8028 16.5651H15.7511C15.1519 16.5617 14.5646 16.7322 14.0604 17.056C13.5562 17.3798 13.1568 17.843 12.9107 18.3893C12.6645 18.9356 12.5822 19.5416 12.6736 20.1337C12.765 20.7259 13.0263 21.2789 13.4258 21.7255C13.5036 21.804 13.5586 21.9021 13.5849 22.0095C13.6111 22.1168 13.6077 22.2292 13.575 22.3348C13.5129 22.5959 13.2269 22.7576 12.8414 22.7824C11.4292 22.7643 10.0371 22.4457 8.75755 21.8479C7.47805 21.25 6.34052 20.3865 5.42063 19.3149C4.50074 18.2432 3.81958 16.988 3.42246 15.6327C3.02533 14.2774 2.92135 12.853 3.11742 11.4544C3.47202 9.10415 4.64634 6.95504 6.43269 5.38715C8.21904 3.81926 10.5023 2.93361 12.8787 2.88685H12.9782C14.3843 2.86844 15.78 3.13183 17.0827 3.66147C18.3855 4.19111 19.5689 4.97628 20.5634 5.97067C21.3393 6.74709 21.9489 7.67342 22.3551 8.69318C22.7613 9.71294 22.9555 10.8048 22.926 11.902C22.7972 13.1742 22.2029 14.3539 21.2573 15.2146C20.3117 16.0753 19.0815 16.5562 17.8028 16.5651Z" fill="#64748B" stroke="#EDEDED" stroke-width="0.8"/>
<path d="M12.9765 7.86323C14.0067 7.86323 14.8417 7.02815 14.8417 5.99802C14.8417 4.9679 14.0067 4.13281 12.9765 4.13281C11.9464 4.13281 11.1113 4.9679 11.1113 5.99802C11.1113 7.02815 11.9464 7.86323 12.9765 7.86323Z" fill="#64748B" stroke="#EDEDED" stroke-width="0.8"/>
<path d="M17.0192 6.8673C16.6998 7.05178 16.4423 7.3268 16.2792 7.6576C16.1161 7.98839 16.0547 8.36012 16.1029 8.72578C16.151 9.09144 16.3064 9.43463 16.5496 9.71196C16.7927 9.9893 17.1126 10.1883 17.4688 10.2839C17.825 10.3795 18.2016 10.3673 18.5509 10.2489C18.9002 10.1305 19.2065 9.91122 19.4312 9.61875C19.6559 9.32628 19.7889 8.97377 19.8133 8.60576C19.8377 8.23775 19.7524 7.87077 19.5683 7.55121C19.4459 7.33882 19.2829 7.15264 19.0885 7.00331C18.8941 6.85397 18.6722 6.74441 18.4355 6.6809C18.1987 6.61738 17.9518 6.60115 17.7088 6.63313C17.4657 6.66512 17.2314 6.74469 17.0192 6.8673ZM8.93657 6.8673C8.61701 6.68317 8.25003 6.59791 7.88202 6.62231C7.51401 6.6467 7.1615 6.77965 6.86903 7.00434C6.57656 7.22904 6.35728 7.5354 6.23889 7.88469C6.12049 8.23399 6.10831 8.61055 6.20388 8.96676C6.29945 9.32298 6.49849 9.64287 6.77582 9.886C7.05315 10.1291 7.39634 10.2846 7.762 10.3327C8.12767 10.3808 8.49939 10.3195 8.83018 10.1564C9.16098 9.99328 9.436 9.73578 9.62048 9.41642C9.74309 9.20417 9.82266 8.96983 9.85465 8.72681C9.88663 8.48379 9.8704 8.23685 9.80688 8.0001C9.74337 7.76336 9.63381 7.54146 9.48447 7.34708C9.33514 7.1527 9.14896 6.98967 8.93657 6.8673ZM5.71598 11.9158C5.41004 12.1224 5.17229 12.4151 5.0328 12.7569C4.89332 13.0986 4.8584 13.4741 4.93244 13.8358C5.00648 14.1974 5.18617 14.5289 5.44875 14.7884C5.71134 15.0478 6.045 15.2236 6.4075 15.2933C6.77 15.363 7.14504 15.3236 7.48512 15.18C7.82521 15.0364 8.11505 14.7952 8.31794 14.4868C8.52084 14.1784 8.62767 13.8168 8.6249 13.4476C8.62213 13.0785 8.5099 12.7185 8.3024 12.4132C8.16609 12.2097 7.99078 12.0352 7.78662 11.8999C7.58245 11.7646 7.35349 11.6711 7.11296 11.6249C6.87244 11.5786 6.62513 11.5805 6.38534 11.6305C6.14555 11.6804 5.91804 11.7774 5.71598 11.9158Z" fill="#64748B" stroke="#EDEDED" stroke-width="0.8"/>
</svg>
