<svg width="20" height="18" viewBox="0 0 20 18" fill="none" xmlns="http://www.w3.org/2000/svg">
<path d="M8.48047 0.5H11.5195C12.5329 0.5 13.4058 1.19753 13.6055 2.16602C13.6558 2.40994 13.7871 2.62931 13.9775 2.78906C14.1679 2.94871 14.4063 3.0393 14.6543 3.04785L14.6631 3.04883H14.6982C15.9787 3.10606 16.8597 3.26387 17.5742 3.72949C18.0475 4.03759 18.4538 4.43264 18.7695 4.89355H18.7705C19.1439 5.43726 19.3223 6.08053 19.4111 6.92969C19.499 7.76822 19.5 8.82872 19.5 10.2197V10.2979C19.5 11.6887 19.4989 12.7494 19.4111 13.5869C19.3224 14.4357 19.1439 15.0793 18.7705 15.624C18.4522 16.0857 18.0457 16.4814 17.5742 16.7891C17.0154 17.1526 16.3552 17.3283 15.4844 17.4141H15.4834C14.6227 17.4996 13.5344 17.5 12.1055 17.5H7.89453C6.46564 17.5 5.37731 17.4996 4.5166 17.4141H4.51562C3.75282 17.339 3.15209 17.1957 2.63965 16.917L2.42578 16.7891C2.01299 16.5195 1.64999 16.1827 1.35254 15.793L1.22949 15.623C0.856204 15.0794 0.677626 14.436 0.588867 13.5869C0.501087 12.7494 0.5 11.6887 0.5 10.2979V10.2197C0.5 8.82872 0.501049 7.76822 0.588867 6.92969C0.677631 6.08074 0.855268 5.43718 1.22852 4.89355L1.22949 4.89453C1.54757 4.4327 1.95349 4.03643 2.4248 3.72852C3.05291 3.31992 3.81021 3.14885 4.85352 3.0752L5.31934 3.04883H5.33691L5.3457 3.04785C5.59368 3.0393 5.83208 2.94871 6.02246 2.78906C6.21295 2.62931 6.34417 2.40994 6.39453 2.16602V2.16504C6.59349 1.19735 7.46699 0.5 8.48047 0.5ZM8.48047 0.884766C7.70758 0.884766 7.03402 1.38348 6.81934 2.09473L6.7832 2.24023C6.6472 2.90462 6.04906 3.42739 5.34082 3.43359H5.32324C4.05456 3.48963 3.26609 3.6445 2.64453 4.04883H2.64355C2.21694 4.32777 1.8486 4.68673 1.55957 5.10547L1.55859 5.10645C1.23545 5.57698 1.0666 6.14997 0.980469 6.96875V6.96973C0.89536 7.79154 0.895508 8.84093 0.895508 10.2588C0.895508 11.6762 0.894293 12.7261 0.981445 13.5488C1.0666 14.367 1.23597 14.9389 1.55957 15.4102V15.4111C1.81038 15.777 2.12433 16.0979 2.4873 16.3604L2.64551 16.4697C3.12809 16.7832 3.7152 16.948 4.55664 17.0312C5.39987 17.1145 6.47613 17.1152 7.93262 17.1152H12.0674C13.5225 17.1152 14.5997 17.1155 15.4443 17.0312L15.4434 17.0303C16.2838 16.9472 16.8713 16.7846 17.3545 16.4697C17.7847 16.1897 18.1534 15.8288 18.4404 15.4092L18.4414 15.4102C18.7644 14.9397 18.9334 14.3673 19.0195 13.5488V13.5479C19.1047 12.7259 19.1045 11.6761 19.1045 10.2588C19.1045 9.01961 19.1051 8.05978 19.0469 7.28809L19.0186 6.96777C18.9333 6.14954 18.7638 5.57711 18.4395 5.10645C18.1505 4.68725 17.7822 4.32812 17.3555 4.04883L17.3545 4.04785L17.1133 3.9082C16.5297 3.60755 15.7871 3.48261 14.6758 3.43359H14.6592C13.9512 3.42673 13.3539 2.90571 13.2178 2.24121L13.2158 2.23438C13.1316 1.84802 12.9156 1.5034 12.6055 1.25781C12.2967 1.01326 11.9134 0.881753 11.5195 0.884766H8.48047ZM10 6.96191C10.7937 6.96191 11.5541 7.27439 12.1143 7.83008C12.6742 8.38572 12.9882 9.13874 12.9883 9.92285C12.9883 10.707 12.6743 11.4599 12.1143 12.0156C11.5541 12.5715 10.7938 12.8848 10 12.8848C9.20619 12.8848 8.44588 12.5715 7.88574 12.0156C7.32574 11.4599 7.01172 10.707 7.01172 9.92285C7.01178 9.13874 7.32579 8.38572 7.88574 7.83008C8.44586 7.27439 9.2063 6.96191 10 6.96191ZM10 7.3457C9.31355 7.3457 8.65454 7.6168 8.16797 8.09961C7.68132 8.58252 7.40729 9.23824 7.40723 9.92285C7.40723 10.6075 7.68126 11.2641 8.16797 11.7471C8.65452 12.2297 9.31367 12.5 10 12.5C10.6863 12.5 11.3455 12.2297 11.832 11.7471C12.3187 11.2641 12.5928 10.6075 12.5928 9.92285C12.5927 9.23824 12.3187 8.58252 11.832 8.09961C11.3455 7.6168 10.6865 7.3457 10 7.3457ZM15.5811 6.96191H16.5117C16.5653 6.96194 16.6156 6.98309 16.6523 7.01953C16.689 7.0559 16.709 7.10454 16.709 7.1543C16.7089 7.20389 16.6889 7.25183 16.6523 7.28809C16.6156 7.32454 16.5653 7.34568 16.5117 7.3457H15.5811C15.5275 7.34561 15.4771 7.3245 15.4404 7.28809C15.404 7.25184 15.3839 7.20385 15.3838 7.1543C15.3838 7.10457 15.4038 7.05589 15.4404 7.01953C15.4771 6.98311 15.5275 6.962 15.5811 6.96191Z" fill="black" stroke="#64748B"/>
</svg>
