<svg width="16" height="17" viewBox="0 0 16 17" fill="none" xmlns="http://www.w3.org/2000/svg">
<path d="M13.6563 0.902055C13.6262 0.902055 13.5961 0.902055 13.5659 0.902055C13.5057 0.902055 13.4454 0.902055 13.4153 0.902055L5.9138 4.16233H4.76899V2.85822H5.37152C5.49203 2.85822 5.61253 2.79301 5.64266 2.6626C5.67278 2.53219 5.67279 2.40178 5.58241 2.30397L3.77481 0.347808C3.6543 0.217397 3.47354 0.217397 3.35304 0.347808L1.54544 2.30397C1.45506 2.40178 1.42494 2.53219 1.48519 2.6626C1.54544 2.79301 1.63582 2.85822 1.75633 2.85822H2.35886V4.22753C1.1538 4.52096 0.25 5.69466 0.25 7.09658C0.25 8.23767 0.852532 9.24836 1.75633 9.7374V11.661C1.75633 11.8566 1.87684 11.987 2.0576 11.987H2.35886V12.313C2.35886 12.5086 2.47937 12.639 2.66013 12.639C2.84089 12.639 2.96139 12.5086 2.96139 12.313V11.987H4.16646V15.2473C4.16646 15.6059 3.89532 15.8993 3.56392 15.8993C3.23253 15.8993 2.96139 15.6059 2.96139 15.2473V13.6171C2.96139 13.4215 2.84089 13.2911 2.66013 13.2911C2.47937 13.2911 2.35886 13.4215 2.35886 13.6171V15.2473C2.35886 15.9645 2.90114 16.5514 3.56392 16.5514C4.22671 16.5514 4.76899 15.9645 4.76899 15.2473V11.987H5.07025C5.25101 11.987 5.37152 11.8566 5.37152 11.661V10.0308H5.9138L13.3852 13.2585C13.4153 13.2585 13.4454 13.2911 13.5057 13.2911C13.5358 13.2911 13.5358 13.2911 13.5659 13.2911C13.5961 13.2911 13.6262 13.2911 13.6563 13.2911C14.8011 13.2911 15.3133 10.096 15.3133 7.09658C15.3133 4.09712 14.8011 0.902055 13.6563 0.902055ZM2.66013 2.20616H2.47937L3.56392 1.03247L4.64848 2.20616H4.46772C4.28696 2.20616 4.16646 2.33658 4.16646 2.53219V4.16233H2.96139V2.53219C2.96139 2.33658 2.84089 2.20616 2.66013 2.20616ZM4.76899 11.3349H4.46772H2.66013H2.35886V9.96562C2.53962 9.99822 2.75051 10.0308 2.96139 10.0308H4.76899V11.3349ZM2.96139 9.37877C1.78646 9.37877 0.852532 8.36808 0.852532 7.09658C0.852532 5.82507 1.78646 4.81438 2.96139 4.81438H4.46772H5.67279V5.46644C5.67279 5.66206 5.79329 5.79247 5.97405 5.79247C6.15481 5.79247 6.27532 5.66206 6.27532 5.46644V4.71658L12.6923 1.94534C12.2705 3.05384 12.1199 4.71658 12.0596 5.43384V5.46644C12.0295 5.95548 11.9994 6.50973 11.9994 7.09658C11.9994 7.68342 12.0295 8.23767 12.0596 8.75931V8.79192C12.1199 9.50918 12.2705 11.1719 12.6923 12.2804L6.27532 9.47658V6.77055C6.27532 6.57493 6.15481 6.44452 5.97405 6.44452C5.79329 6.44452 5.67279 6.57493 5.67279 6.77055V9.37877H2.96139ZM12.632 8.33548C12.632 8.20507 12.632 8.07466 12.6019 7.91164C12.6019 7.81384 12.6019 7.71603 12.6019 7.58562C12.6019 7.4226 12.6019 7.25959 12.6019 7.06397C12.6019 6.77055 12.6019 6.50973 12.6019 6.2489C12.6019 6.11849 12.6019 5.98808 12.632 5.82507C13.1442 5.98808 13.5057 6.47712 13.5057 7.06397C13.5057 7.4226 13.3852 7.74863 13.1442 7.97685C12.9935 8.17247 12.8128 8.30288 12.632 8.33548ZM13.6563 12.639C13.4153 12.639 12.873 11.5305 12.6923 9.02014C13.0237 8.95493 13.3551 8.75932 13.5961 8.49849C13.9275 8.13986 14.1082 7.65082 14.1082 7.12918C14.1082 6.1837 13.5057 5.40123 12.6923 5.20562C12.9032 2.6626 13.4153 1.58671 13.6563 1.58671C13.9576 1.58671 14.7108 3.47767 14.7108 7.12918C14.7108 10.7807 13.9576 12.639 13.6563 12.639Z" fill="white" stroke="white" stroke-width="0.5"/>
</svg>
