<svg width="24" height="24" viewBox="0 0 24 24" fill="none" xmlns="http://www.w3.org/2000/svg">
<path d="M20.4688 1.875C20.425 1.875 20.3813 1.875 20.3375 1.875C20.25 1.875 20.1625 1.875 20.1187 1.875L9.225 6.25H7.5625V4.5H8.4375C8.6125 4.5 8.7875 4.4125 8.83125 4.2375C8.875 4.0625 8.875 3.8875 8.74375 3.75625L6.11875 1.13125C5.94375 0.95625 5.68125 0.95625 5.50625 1.13125L2.88125 3.75625C2.75 3.8875 2.70625 4.0625 2.79375 4.2375C2.88125 4.4125 3.0125 4.5 3.1875 4.5H4.0625V6.3375C2.3125 6.73125 1 8.30625 1 10.1875C1 11.7188 1.875 13.075 3.1875 13.7312V16.3125C3.1875 16.575 3.3625 16.75 3.625 16.75H4.0625V17.1875C4.0625 17.45 4.2375 17.625 4.5 17.625C4.7625 17.625 4.9375 17.45 4.9375 17.1875V16.75H6.6875V21.125C6.6875 21.6063 6.29375 22 5.8125 22C5.33125 22 4.9375 21.6063 4.9375 21.125V18.9375C4.9375 18.675 4.7625 18.5 4.5 18.5C4.2375 18.5 4.0625 18.675 4.0625 18.9375V21.125C4.0625 22.0875 4.85 22.875 5.8125 22.875C6.775 22.875 7.5625 22.0875 7.5625 21.125V16.75H8C8.2625 16.75 8.4375 16.575 8.4375 16.3125V14.125H9.225L20.075 18.4563C20.1187 18.4563 20.1625 18.5 20.25 18.5C20.2938 18.5 20.2937 18.5 20.3375 18.5C20.3813 18.5 20.425 18.5 20.4688 18.5C22.1313 18.5 22.875 14.2125 22.875 10.1875C22.875 6.1625 22.1313 1.875 20.4688 1.875ZM4.5 3.625H4.2375L5.8125 2.05L7.3875 3.625H7.125C6.8625 3.625 6.6875 3.8 6.6875 4.0625V6.25H4.9375V4.0625C4.9375 3.8 4.7625 3.625 4.5 3.625ZM7.5625 15.875H7.125H4.5H4.0625V14.0375C4.325 14.0812 4.63125 14.125 4.9375 14.125H7.5625V15.875ZM4.9375 13.25C3.23125 13.25 1.875 11.8938 1.875 10.1875C1.875 8.48125 3.23125 7.125 4.9375 7.125H7.125H8.875V8C8.875 8.2625 9.05 8.4375 9.3125 8.4375C9.575 8.4375 9.75 8.2625 9.75 8V6.99375L19.0688 3.275C18.4563 4.7625 18.2375 6.99375 18.15 7.95625V8C18.1062 8.65625 18.0625 9.4 18.0625 10.1875C18.0625 10.975 18.1062 11.7187 18.15 12.4187V12.4625C18.2375 13.425 18.4563 15.6563 19.0688 17.1438L9.75 13.3812V9.75C9.75 9.4875 9.575 9.3125 9.3125 9.3125C9.05 9.3125 8.875 9.4875 8.875 9.75V13.25H4.9375ZM18.9812 11.85C18.9812 11.675 18.9813 11.5 18.9375 11.2812C18.9375 11.15 18.9375 11.0188 18.9375 10.8438C18.9375 10.625 18.9375 10.4062 18.9375 10.1438C18.9375 9.75 18.9375 9.4 18.9375 9.05C18.9375 8.875 18.9375 8.7 18.9812 8.48125C19.725 8.7 20.25 9.35625 20.25 10.1438C20.25 10.625 20.075 11.0625 19.725 11.3688C19.5063 11.6313 19.2437 11.8062 18.9812 11.85ZM20.4688 17.625C20.1187 17.625 19.3313 16.1375 19.0688 12.7688C19.55 12.6813 20.0312 12.4187 20.3813 12.0687C20.8625 11.5875 21.125 10.9312 21.125 10.2312C21.125 8.9625 20.25 7.9125 19.0688 7.65C19.375 4.2375 20.1187 2.79375 20.4688 2.79375C20.9062 2.79375 22 5.33125 22 10.2312C22 15.1313 20.9062 17.625 20.4688 17.625Z" fill="#E5E8EE" stroke="#E5E8EE" stroke-width="0.5"/>
</svg>