<svg width="19" height="15" viewBox="0 0 19 15" fill="none" xmlns="http://www.w3.org/2000/svg">
<path d="M15.9125 0C16.318 0 16.7194 0.0787853 17.094 0.231857C17.4686 0.384929 17.809 0.60929 18.0957 0.89213C18.3824 1.17497 18.6098 1.51075 18.765 1.8803C18.9201 2.24985 19 2.64593 19 3.04592V11.9541C19 12.3541 18.9201 12.7502 18.765 13.1197C18.6098 13.4893 18.3824 13.825 18.0957 14.1079C17.809 14.3907 17.4686 14.6151 17.094 14.7681C16.7194 14.9212 16.318 15 15.9125 15H3.0875C2.68204 15 2.28056 14.9212 1.90596 14.7681C1.53137 14.6151 1.19101 14.3907 0.904308 14.1079C0.617607 13.825 0.390183 13.4893 0.235022 13.1197C0.0798605 12.7502 6.62642e-09 12.3541 6.62642e-09 11.9541V3.04592C-5.16294e-05 2.26791 0.301676 1.51937 0.843288 0.953861C1.3849 0.388348 2.12533 0.0487335 2.9127 0.00468614L3.0875 0H15.9125ZM8.1909 4.31022C5.90235 3.02249 3.325 4.5492 3.325 7.49766C3.325 10.4433 5.90425 11.9728 8.189 10.6907C8.34737 10.5958 8.46204 10.4438 8.50867 10.2668C8.5553 10.0899 8.53023 9.90204 8.43877 9.74304C8.34732 9.58405 8.19667 9.46647 8.01879 9.41523C7.84092 9.364 7.64981 9.38314 7.486 9.4686C6.15885 10.2118 4.75 9.37676 4.75 7.49766C4.75 5.61856 6.156 4.78351 7.4841 5.53046C7.64777 5.61772 7.83955 5.63837 8.01845 5.58799C8.19735 5.5376 8.34918 5.42018 8.44148 5.26082C8.53379 5.10146 8.55925 4.91281 8.51242 4.73518C8.4656 4.55754 8.3502 4.40502 8.1909 4.31022ZM15.3159 4.31022C13.0273 3.02249 10.45 4.5492 10.45 7.49766C10.45 10.4433 13.0293 11.9728 15.314 10.6907C15.4724 10.5958 15.587 10.4438 15.6337 10.2668C15.6803 10.0899 15.6552 9.90204 15.5638 9.74304C15.4723 9.58405 15.3217 9.46647 15.1438 9.41523C14.9659 9.364 14.7748 9.38314 14.611 9.4686C13.2848 10.2118 11.875 9.37676 11.875 7.49766C11.875 5.61856 13.281 4.78351 14.6091 5.53046C14.7728 5.61772 14.9646 5.63837 15.1435 5.58799C15.3224 5.5376 15.4742 5.42018 15.5665 5.26082C15.6588 5.10146 15.6842 4.91281 15.6374 4.73518C15.5906 4.55754 15.4752 4.40502 15.3159 4.31022Z" fill="#098399"/>
</svg>
