<svg width="18" height="15" viewBox="0 0 18 15" fill="none" xmlns="http://www.w3.org/2000/svg">
<path d="M6.78825 4.3065C7.25475 4.37625 7.70775 4.54575 8.03925 4.8105C8.09697 4.85664 8.14503 4.9137 8.18069 4.97842C8.21636 5.04314 8.23892 5.11425 8.24711 5.18769C8.25529 5.26113 8.24893 5.33546 8.22839 5.40644C8.20784 5.47742 8.17352 5.54366 8.12737 5.60138C8.08123 5.65909 8.02417 5.70715 7.95945 5.74282C7.89474 5.77848 7.82363 5.80105 7.75019 5.80923C7.67675 5.81742 7.60242 5.81105 7.53144 5.79051C7.46046 5.76997 7.39422 5.73564 7.3365 5.6895C7.1985 5.57925 6.94875 5.4675 6.624 5.4195C6.2952 5.3684 5.95896 5.39616 5.643 5.5005C5.32289 5.60603 5.04658 5.81431 4.857 6.093C4.6545 6.39225 4.5 6.8385 4.5 7.5C4.5 8.1615 4.6545 8.60775 4.857 8.907C5.0595 9.20475 5.334 9.393 5.643 9.4995C5.958 9.60675 6.30525 9.627 6.624 9.5805C6.94875 9.53175 7.1985 9.42075 7.3365 9.3105C7.45306 9.21731 7.60187 9.17424 7.75019 9.19077C7.89851 9.20729 8.03418 9.28206 8.12737 9.39862C8.22057 9.51519 8.26363 9.66399 8.24711 9.81231C8.23058 9.96063 8.15581 10.0963 8.03925 10.1895C7.70775 10.4543 7.25475 10.6245 6.78825 10.6935C6.28178 10.7705 5.76424 10.7258 5.2785 10.563C4.72757 10.3791 4.25242 10.0191 3.92625 9.5385C3.57225 9.01725 3.375 8.3385 3.375 7.5C3.375 6.6615 3.57225 5.98275 3.92625 5.4615C4.25242 4.98091 4.72757 4.62092 5.2785 4.437C5.76424 4.2742 6.28178 4.22947 6.78825 4.3065ZM14.4135 4.8105C14.082 4.54575 13.6298 4.3755 13.1632 4.3065C12.6568 4.22947 12.1392 4.2742 11.6535 4.437C11.142 4.61175 10.656 4.9395 10.3012 5.4615C9.94725 5.98275 9.75 6.6615 9.75 7.5C9.75 8.3385 9.94725 9.01725 10.3012 9.5385C10.6274 10.0191 11.1026 10.3791 11.6535 10.563C12.1392 10.7258 12.6568 10.7705 13.1632 10.6935C13.6298 10.6245 14.0828 10.4543 14.4142 10.1895C14.472 10.1434 14.52 10.0863 14.5557 10.0216C14.5914 9.95686 14.6139 9.88575 14.6221 9.81231C14.6303 9.73887 14.6239 9.66454 14.6034 9.59356C14.5828 9.52258 14.5485 9.45634 14.5024 9.39862C14.4562 9.34091 14.3992 9.29285 14.3345 9.25718C14.2697 9.22152 14.1986 9.19895 14.1252 9.19077C14.0518 9.18258 13.9774 9.18895 13.9064 9.20949C13.8355 9.23003 13.7692 9.26436 13.7115 9.3105C13.5742 9.42075 13.3238 9.53175 12.999 9.5805C12.6702 9.6316 12.334 9.60384 12.018 9.4995C11.6976 9.39448 11.4212 9.18608 11.232 8.907C11.0295 8.60775 10.875 8.1615 10.875 7.5C10.875 6.8385 11.0295 6.39225 11.232 6.093C11.4345 5.79525 11.7098 5.607 12.0187 5.5005C12.333 5.39325 12.6802 5.373 12.9982 5.4195C13.3237 5.4675 13.5743 5.57925 13.7108 5.6895C13.7685 5.73569 13.8347 5.77006 13.9057 5.79065C13.9767 5.81124 14.0511 5.81765 14.1245 5.8095C14.198 5.80135 14.2692 5.77881 14.3339 5.74316C14.3987 5.70752 14.4558 5.65947 14.502 5.60175C14.5482 5.54403 14.5826 5.47779 14.6032 5.40679C14.6237 5.33579 14.6301 5.26143 14.622 5.18795C14.6139 5.11448 14.5913 5.04333 14.5557 4.97856C14.52 4.9138 14.4712 4.85669 14.4135 4.8105ZM0 3.1875C0 2.34212 0.335825 1.53137 0.933597 0.933597C1.53137 0.335825 2.34212 0 3.1875 0H14.8125C15.6579 0 16.4686 0.335825 17.0664 0.933597C17.6642 1.53137 18 2.34212 18 3.1875V11.8125C18 12.6579 17.6642 13.4686 17.0664 14.0664C16.4686 14.6642 15.6579 15 14.8125 15H3.1875C2.34212 15 1.53137 14.6642 0.933597 14.0664C0.335825 13.4686 0 12.6579 0 11.8125V3.1875ZM3.1875 1.125C2.64049 1.125 2.11589 1.3423 1.72909 1.72909C1.3423 2.11589 1.125 2.64049 1.125 3.1875V11.8125C1.125 12.3595 1.3423 12.8841 1.72909 13.2709C2.11589 13.6577 2.64049 13.875 3.1875 13.875H14.8125C15.0834 13.875 15.3516 13.8217 15.6018 13.718C15.852 13.6144 16.0794 13.4624 16.2709 13.2709C16.4624 13.0794 16.6144 12.852 16.718 12.6018C16.8217 12.3516 16.875 12.0834 16.875 11.8125V3.1875C16.875 2.91665 16.8217 2.64845 16.718 2.39822C16.6144 2.14798 16.4624 1.92061 16.2709 1.72909C16.0794 1.53757 15.852 1.38565 15.6018 1.282C15.3516 1.17835 15.0834 1.125 14.8125 1.125H3.1875Z" fill="currentColor"/>
</svg>
