<svg width="20" height="20" viewBox="0 0 20 20" fill="none" xmlns="http://www.w3.org/2000/svg">
<path d="M2.20898 2.43815C2.20898 2.37737 2.23313 2.31908 2.27611 2.27611C2.31908 2.23313 2.37737 2.20898 2.43815 2.20898H14.8132C14.8739 2.20898 14.9322 2.23313 14.9752 2.27611C15.0182 2.31908 15.0423 2.37737 15.0423 2.43815V11.6048C15.0423 11.7872 15.1147 11.962 15.2437 12.091C15.3726 12.2199 15.5475 12.2923 15.7298 12.2923C15.9122 12.2923 16.087 12.2199 16.216 12.091C16.3449 11.962 16.4173 11.7872 16.4173 11.6048V2.43815C16.4173 2.0127 16.2483 1.60467 15.9475 1.30383C15.6466 1.00299 15.2386 0.833984 14.8132 0.833984H2.43815C2.0127 0.833984 1.60467 1.00299 1.30383 1.30383C1.00299 1.60467 0.833984 2.0127 0.833984 2.43815V17.5632C0.833984 18.4487 1.55265 19.1673 2.43815 19.1673H8.85482C9.03715 19.1673 9.21202 19.0949 9.34095 18.966C9.46988 18.837 9.54232 18.6622 9.54232 18.4798C9.54232 18.2975 9.46988 18.1226 9.34095 17.9937C9.21202 17.8647 9.03715 17.7923 8.85482 17.7923H2.43815C2.37737 17.7923 2.31908 17.7682 2.27611 17.7252C2.23313 17.6822 2.20898 17.6239 2.20898 17.5632V2.43815Z" fill="#098399"/>
<path d="M4.72852 5.41602C4.54618 5.41602 4.37131 5.48845 4.24238 5.61738C4.11345 5.74631 4.04102 5.92118 4.04102 6.10352C4.04102 6.28585 4.11345 6.46072 4.24238 6.58965C4.37131 6.71858 4.54618 6.79102 4.72852 6.79102H12.5202C12.7025 6.79102 12.8774 6.71858 13.0063 6.58965C13.1352 6.46072 13.2077 6.28585 13.2077 6.10352C13.2077 5.92118 13.1352 5.74631 13.0063 5.61738C12.8774 5.48845 12.7025 5.41602 12.5202 5.41602H4.72852ZM4.04102 9.77018C4.04102 9.58785 4.11345 9.41298 4.24238 9.28405C4.37131 9.15512 4.54618 9.08268 4.72852 9.08268H8.85352C9.03585 9.08268 9.21072 9.15512 9.33965 9.28405C9.46858 9.41298 9.54102 9.58785 9.54102 9.77018C9.54102 9.95252 9.46858 10.1274 9.33965 10.2563C9.21072 10.3852 9.03585 10.4577 8.85352 10.4577H4.72852C4.54618 10.4577 4.37131 10.3852 4.24238 10.2563C4.11345 10.1274 4.04102 9.95252 4.04102 9.77018ZM18.9643 13.9227C19.0319 13.8597 19.0861 13.7838 19.1236 13.6995C19.1612 13.6152 19.1814 13.5241 19.1831 13.4318C19.1847 13.3395 19.1677 13.2478 19.1331 13.1622C19.0985 13.0766 19.0471 12.9988 18.9818 12.9336C18.9165 12.8683 18.8388 12.8168 18.7531 12.7822C18.6675 12.7477 18.5758 12.7307 18.4835 12.7323C18.3912 12.7339 18.3002 12.7541 18.2159 12.7917C18.1315 12.8293 18.0556 12.8835 17.9927 12.951L13.4368 17.5068L11.631 15.701C11.5681 15.6335 11.4922 15.5793 11.4078 15.5417C11.3235 15.5041 11.2325 15.4839 11.1402 15.4823C11.0478 15.4807 10.9562 15.4977 10.8706 15.5322C10.7849 15.5668 10.7072 15.6183 10.6419 15.6836C10.5766 15.7488 10.5251 15.8266 10.4906 15.9122C10.456 15.9978 10.439 16.0895 10.4406 16.1818C10.4423 16.2741 10.4625 16.3652 10.5 16.4495C10.5376 16.5338 10.5918 16.6097 10.6593 16.6727L12.951 18.9643C13.0799 19.0931 13.2547 19.1654 13.4368 19.1654C13.619 19.1654 13.7938 19.0931 13.9227 18.9643L18.9643 13.9227Z" fill="#098399"/>
</svg>
