<svg width="22" height="22" viewBox="0 0 22 22" fill="none" xmlns="http://www.w3.org/2000/svg">
<path d="M11.0018 22.0036C10.7365 22.0036 10.4821 21.8982 10.2946 21.7106C10.107 21.5231 10.0016 21.2687 10.0016 21.0034V18.0029H6.00098C5.47046 18.0029 4.96167 17.7922 4.58653 17.417C4.2114 17.0419 4.00065 16.5331 4.00065 16.0026V6.00098C4.00065 5.47046 4.2114 4.96167 4.58653 4.58653C4.96167 4.2114 5.47046 4.00065 6.00098 4.00065H20.0033C20.5338 4.00065 21.0426 4.2114 21.4177 4.58653C21.7928 4.96167 22.0036 5.47046 22.0036 6.00098V16.0026C22.0036 16.5331 21.7928 17.0419 21.4177 17.417C21.0426 17.7922 20.5338 18.0029 20.0033 18.0029H15.9026L12.202 21.7135C12.002 21.8936 11.7619 22.0036 11.5019 22.0036H11.0018ZM2.00033 14.0023H0V2.00033C0 1.46981 0.210748 0.961016 0.585882 0.585882C0.961016 0.210748 1.46981 0 2.00033 0H18.0029V2.00033H2.00033V14.0023Z" fill="#64748B" fill-opacity="0.75"/>
</svg>
