<svg width="23" height="23" viewBox="0 0 23 23" fill="none" xmlns="http://www.w3.org/2000/svg">
<path d="M18.7474 3.03906H11.4974C11.1769 3.03906 10.8696 3.16637 10.643 3.39298C10.4164 3.61958 10.2891 3.92693 10.2891 4.2474C10.2891 4.56787 10.4164 4.87521 10.643 5.10182C10.8696 5.32842 11.1769 5.45573 11.4974 5.45573H18.7474C19.0679 5.45573 19.3752 5.58304 19.6018 5.80964C19.8284 6.03625 19.9557 6.34359 19.9557 6.66406V18.4091L18.0586 16.657C17.8358 16.4483 17.5422 16.3318 17.237 16.3307H6.66406C6.34359 16.3307 6.03625 16.2034 5.80964 15.9768C5.58304 15.7502 5.45573 15.4429 5.45573 15.1224V11.4974C5.45573 11.1769 5.32842 10.8696 5.10182 10.643C4.87521 10.4164 4.56787 10.2891 4.2474 10.2891C3.92693 10.2891 3.61958 10.4164 3.39298 10.643C3.16637 10.8696 3.03906 11.1769 3.03906 11.4974V15.1224C3.03906 16.0838 3.42098 17.0058 4.1008 17.6857C4.78062 18.3655 5.70265 18.7474 6.66406 18.7474H16.7657L20.3907 22.0461C20.6012 22.2438 20.8756 22.3595 21.1641 22.3724C21.3298 22.3706 21.4937 22.3378 21.6474 22.2757C21.8635 22.1814 22.0474 22.0259 22.1762 21.8283C22.305 21.6308 22.3732 21.3999 22.3724 21.1641V6.66406C22.3724 5.70265 21.9905 4.78062 21.3107 4.1008C20.6308 3.42098 19.7088 3.03906 18.7474 3.03906Z" fill="#098399"/>
<circle cx="4.5" cy="4.5" r="4.5" fill="#DC3545"/>
</svg>
