<svg width="22" height="20" viewBox="0 0 22 20" fill="none" xmlns="http://www.w3.org/2000/svg">
<path d="M20.0417 0.25V7.54165H21.0833V11.7083H20.0417V19H1.29165V11.7083H0.25V7.54165H1.29165V0.25H20.0417ZM17.9583 2.33335H3.375V7.54165H4.41665V11.7083H3.375V16.9167H17.9583V11.7083H16.9167V7.54165H17.9583V2.33335ZM11.8305 3.36108L16.4276 15.8611H14.1634L12.9112 12.2796H8.34844L7.10483 15.8611H4.96924L9.46338 3.36108H11.8305ZM10.6298 5.45181C10.4869 5.96639 10.3042 6.55039 10.0818 7.20381L8.92305 10.5682H12.328L11.3074 7.60425L11.072 6.89458C10.9173 6.41591 10.7699 5.93493 10.6298 5.45181Z" fill="#B1B1B1" stroke="white" stroke-width="0.5"/>
</svg>
