<svg width="18" height="22" viewBox="0 0 18 22" fill="none" xmlns="http://www.w3.org/2000/svg">
<path d="M9.91602 3.66732H3.49935C3.01312 3.66732 2.5468 3.86047 2.20299 4.20429C1.85917 4.54811 1.66602 5.01442 1.66602 5.50065V16.5007C1.66602 16.9869 1.85917 17.4532 2.20299 17.797C2.5468 18.1408 3.01312 18.334 3.49935 18.334H9.91602M13.5827 3.66732H14.4993C14.9856 3.66732 15.4519 3.86047 15.7957 4.20429C16.1395 4.54811 16.3327 5.01442 16.3327 5.50065V6.41732M16.3327 15.584V16.5007C16.3327 16.9869 16.1395 17.4532 15.7957 17.797C15.4519 18.1408 14.9856 18.334 14.4993 18.334H13.5827M16.3327 10.084V11.9173M8.99935 1.83398V20.1673" stroke="currentColor" stroke-width="2" stroke-linecap="round" stroke-linejoin="round"/>
</svg>
