<svg width="20" height="22" viewBox="0 0 20 22" fill="none" xmlns="http://www.w3.org/2000/svg">
<path d="M4.66667 4.66667V2.83333H1V19.3333H7.41667M4.66667 4.66667H12M4.66667 4.66667V1H12V4.66667M12 4.66667V2.83333H15.6667V9.25M14.5208 13.6042V12.4583M14.5208 13.6042C13.7915 13.6042 13.092 13.8939 12.5763 14.4096C12.0606 14.9253 11.7708 15.6248 11.7708 16.3542C11.7708 17.0835 12.0606 17.783 12.5763 18.2987C13.092 18.8144 13.7915 19.1042 14.5208 19.1042M14.5208 13.6042C15.2502 13.6042 15.9497 13.8939 16.4654 14.4096C16.9811 14.9253 17.2708 15.6248 17.2708 16.3542C17.2708 17.0835 16.9811 17.783 16.4654 18.2987C15.9497 18.8144 15.2502 19.1042 14.5208 19.1042M14.5208 19.1042V20.25M12.1403 14.9792L11.1475 14.4063M16.9033 17.7292L17.8951 18.3021M16.9042 14.9792L17.896 14.4063M12.1412 17.7292L11.1484 18.3021" stroke="#64748B" stroke-width="2" stroke-linecap="square"/>
</svg>
