<svg width="22" height="23" viewBox="0 0 22 23" fill="none" xmlns="http://www.w3.org/2000/svg">
<path d="M1.83398 17.0007C1.83398 15.589 1.83398 14.8832 2.15207 14.3643C2.3299 14.0737 2.57373 13.8299 2.86432 13.6521C3.38223 13.334 4.08898 13.334 5.50065 13.334C6.91232 13.334 7.61815 13.334 8.13698 13.6521C8.42757 13.8299 8.6714 14.0737 8.84923 14.3643C9.16732 14.8822 9.16732 15.589 9.16732 17.0007C9.16732 18.4123 9.16732 19.1182 8.84923 19.6379C8.6714 19.9276 8.42757 20.1714 8.13698 20.3492C7.61907 20.6673 6.91232 20.6673 5.50065 20.6673C4.08898 20.6673 3.38315 20.6673 2.86432 20.3492C2.57406 20.1717 2.32997 19.9279 2.15207 19.6379C1.83398 19.1182 1.83398 18.4123 1.83398 17.0007ZM12.834 17.0007C12.834 15.589 12.834 14.8832 13.1521 14.3643C13.3299 14.0737 13.5737 13.8299 13.8643 13.6521C14.3822 13.334 15.089 13.334 16.5007 13.334C17.9123 13.334 18.6182 13.334 19.1379 13.6521C19.4276 13.8299 19.6714 14.0737 19.8492 14.3643C20.1673 14.8822 20.1673 15.589 20.1673 17.0007C20.1673 18.4123 20.1673 19.1182 19.8492 19.6379C19.6713 19.9276 19.4276 20.1713 19.1379 20.3492C18.6182 20.6673 17.9123 20.6673 16.5007 20.6673C15.089 20.6673 14.3832 20.6673 13.8643 20.3492C13.5741 20.1717 13.33 19.9279 13.1521 19.6379C12.834 19.1182 12.834 18.4123 12.834 17.0007ZM1.83398 6.00065C1.83398 4.58898 1.83398 3.88315 2.15207 3.36432C2.3299 3.07373 2.57373 2.8299 2.86432 2.65207C3.38223 2.33398 4.08898 2.33398 5.50065 2.33398C6.91232 2.33398 7.61815 2.33398 8.13698 2.65207C8.42757 2.8299 8.6714 3.07373 8.84923 3.36432C9.16732 3.88223 9.16732 4.58898 9.16732 6.00065C9.16732 7.41232 9.16732 8.11815 8.84923 8.63698C8.6714 8.92757 8.42757 9.1714 8.13698 9.34923C7.61907 9.66732 6.91232 9.66732 5.50065 9.66732C4.08898 9.66732 3.38315 9.66732 2.86432 9.34923C2.57395 9.17144 2.32986 8.92735 2.15207 8.63698C1.83398 8.11907 1.83398 7.41232 1.83398 6.00065ZM12.834 6.00065C12.834 4.58898 12.834 3.88315 13.1521 3.36432C13.3299 3.07373 13.5737 2.8299 13.8643 2.65207C14.3822 2.33398 15.089 2.33398 16.5007 2.33398C17.9123 2.33398 18.6182 2.33398 19.1379 2.65207C19.4276 2.8299 19.6714 3.07373 19.8492 3.36432C20.1673 3.88223 20.1673 4.58898 20.1673 6.00065C20.1673 7.41232 20.1673 8.11815 19.8492 8.63698C19.6714 8.92757 19.4276 9.1714 19.1379 9.34923C18.6182 9.66732 17.9123 9.66732 16.5007 9.66732C15.089 9.66732 14.3832 9.66732 13.8643 9.34923C13.5739 9.17144 13.3299 8.92735 13.1521 8.63698C12.834 8.11907 12.834 7.41232 12.834 6.00065Z" stroke="#098399" stroke-width="1.5"/>
</svg>
