<svg width="18" height="18" viewBox="0 0 18 18" fill="none" xmlns="http://www.w3.org/2000/svg">
<path d="M8.99999 12.575C8.86666 12.575 8.74166 12.5543 8.62499 12.513C8.50833 12.4717 8.39999 12.4007 8.29999 12.3L4.7 8.7C4.5 8.5 4.404 8.26667 4.412 8C4.42 7.73333 4.516 7.5 4.7 7.3C4.9 7.1 5.13766 6.996 5.413 6.988C5.68833 6.98 5.92566 7.07567 6.125 7.275L7.99999 9.15V2C7.99999 1.71667 8.09599 1.47934 8.28799 1.288C8.47999 1.09667 8.71733 1.00067 8.99999 1C9.28266 0.999337 9.52033 1.09534 9.71299 1.288C9.90566 1.48067 10.0013 1.718 9.99999 2V9.15L11.875 7.275C12.075 7.075 12.3127 6.979 12.588 6.987C12.8633 6.995 13.1007 7.09933 13.3 7.3C13.4833 7.5 13.5793 7.73333 13.588 8C13.5967 8.26667 13.5007 8.5 13.3 8.7L9.69999 12.3C9.59999 12.4 9.49166 12.471 9.37499 12.513C9.25833 12.555 9.13333 12.5757 8.99999 12.575ZM3 17C2.45 17 1.97933 16.8043 1.588 16.413C1.19667 16.0217 1.00067 15.5507 1 15V13C1 12.7167 1.096 12.4793 1.288 12.288C1.48 12.0967 1.71733 12.0007 2 12C2.28267 11.9993 2.52033 12.0953 2.713 12.288C2.90566 12.4807 3.00133 12.718 3 13V15H15V13C15 12.7167 15.096 12.4793 15.288 12.288C15.48 12.0967 15.7173 12.0007 16 12C16.2827 11.9993 16.5203 12.0953 16.713 12.288C16.9057 12.4807 17.0013 12.718 17 13V15C17 15.55 16.8043 16.021 16.413 16.413C16.0217 16.805 15.5507 17.0007 15 17H3Z" fill="#64748B" stroke="white" stroke-width="0.5"/>
</svg>

