<svg width="16" height="16" viewBox="0 0 16 16" fill="none" xmlns="http://www.w3.org/2000/svg">
<path d="M0 16V12.2222L11.7333 0.511111C11.9111 0.348148 12.1076 0.222222 12.3227 0.133333C12.5378 0.0444445 12.7636 0 13 0C13.2364 0 13.4661 0.0444445 13.6889 0.133333C13.9117 0.222222 14.1043 0.355555 14.2667 0.533333L15.4889 1.77778C15.6667 1.94074 15.7964 2.13333 15.8782 2.35556C15.96 2.57778 16.0006 2.8 16 3.02222C16 3.25926 15.9594 3.48533 15.8782 3.70044C15.797 3.91556 15.6673 4.1117 15.4889 4.28889L3.77778 16H0ZM12.9778 4.26667L14.2222 3.02222L12.9778 1.77778L11.7333 3.02222L12.9778 4.26667Z" fill="#748297"/>
</svg>
