<svg width="19" height="19" viewBox="0 0 19 19" fill="none" xmlns="http://www.w3.org/2000/svg">
<path d="M9.16667 18.3333C7.89861 18.3333 6.70695 18.0926 5.59167 17.611C4.47639 17.1294 3.50625 16.4765 2.68125 15.6521C1.85625 14.8277 1.20328 13.8576 0.722335 12.7417C0.24139 11.6258 0.000612271 10.4341 1.16034e-06 9.16667C-0.000609951 7.89922 0.240168 6.70756 0.722335 5.59167C1.2045 4.47578 1.85747 3.50564 2.68125 2.68125C3.50503 1.85686 4.47517 1.20389 5.59167 0.722333C6.70817 0.240778 7.89983 0 9.16667 0C10.4335 0 11.6252 0.240778 12.7417 0.722333C13.8582 1.20389 14.8283 1.85686 15.6521 2.68125C16.4759 3.50564 17.1291 4.47578 17.6119 5.59167C18.0947 6.70756 18.3352 7.89922 18.3333 9.16667V10.4958C18.3333 11.3972 18.0241 12.1651 17.4057 12.7994C16.7872 13.4338 16.027 13.7506 15.125 13.75C14.5903 13.75 14.0861 13.6354 13.6125 13.4062C13.1389 13.1771 12.7417 12.8486 12.4208 12.4208C11.9778 12.8639 11.4773 13.1963 10.9193 13.4182C10.3614 13.64 9.77717 13.7506 9.16667 13.75C7.89861 13.75 6.81786 13.303 5.92442 12.4089C5.03097 11.5149 4.58395 10.4341 4.58333 9.16667C4.58272 7.89922 5.02975 6.81847 5.92442 5.92442C6.81909 5.03036 7.89983 4.58333 9.16667 4.58333C10.4335 4.58333 11.5146 5.03036 12.4098 5.92442C13.3051 6.81847 13.7518 7.89922 13.75 9.16667V10.4958C13.75 10.8931 13.8799 11.2292 14.1396 11.5042C14.3993 11.7792 14.7278 11.9167 15.125 11.9167C15.5222 11.9167 15.8507 11.7792 16.1104 11.5042C16.3701 11.2292 16.5 10.8931 16.5 10.4958V9.16667C16.5 7.11944 15.7896 5.38542 14.3688 3.96458C12.9479 2.54375 11.2139 1.83333 9.16667 1.83333C7.11945 1.83333 5.38542 2.54375 3.96458 3.96458C2.54375 5.38542 1.83333 7.11944 1.83333 9.16667C1.83333 11.2139 2.54375 12.9479 3.96458 14.3687C5.38542 15.7896 7.11945 16.5 9.16667 16.5H12.8333C13.0931 16.5 13.3109 16.588 13.4869 16.764C13.6629 16.94 13.7506 17.1576 13.75 17.4167C13.7494 17.6758 13.6614 17.8936 13.486 18.0702C13.3106 18.2469 13.0931 18.3346 12.8333 18.3333H9.16667ZM9.16667 11.9167C9.93056 11.9167 10.5799 11.6493 11.1146 11.1146C11.6493 10.5799 11.9167 9.93056 11.9167 9.16667C11.9167 8.40278 11.6493 7.75347 11.1146 7.21875C10.5799 6.68403 9.93056 6.41667 9.16667 6.41667C8.40278 6.41667 7.75347 6.68403 7.21875 7.21875C6.68403 7.75347 6.41667 8.40278 6.41667 9.16667C6.41667 9.93056 6.68403 10.5799 7.21875 11.1146C7.75347 11.6493 8.40278 11.9167 9.16667 11.9167Z" fill="#64748B"/>
</svg>
