<svg width="23" height="23" viewBox="0 0 23 23" fill="none" xmlns="http://www.w3.org/2000/svg">
<path d="M19.7188 1.125C19.675 1.125 19.6313 1.125 19.5875 1.125C19.5 1.125 19.4125 1.125 19.3687 1.125L8.475 5.5H6.8125V3.75H7.6875C7.8625 3.75 8.0375 3.6625 8.08125 3.4875C8.125 3.3125 8.125 3.1375 7.99375 3.00625L5.36875 0.38125C5.19375 0.20625 4.93125 0.20625 4.75625 0.38125L2.13125 3.00625C2 3.1375 1.95625 3.3125 2.04375 3.4875C2.13125 3.6625 2.2625 3.75 2.4375 3.75H3.3125V5.5875C1.5625 5.98125 0.25 7.55625 0.25 9.4375C0.25 10.9688 1.125 12.325 2.4375 12.9812V15.5625C2.4375 15.825 2.6125 16 2.875 16H3.3125V16.4375C3.3125 16.7 3.4875 16.875 3.75 16.875C4.0125 16.875 4.1875 16.7 4.1875 16.4375V16H5.9375V20.375C5.9375 20.8563 5.54375 21.25 5.0625 21.25C4.58125 21.25 4.1875 20.8563 4.1875 20.375V18.1875C4.1875 17.925 4.0125 17.75 3.75 17.75C3.4875 17.75 3.3125 17.925 3.3125 18.1875V20.375C3.3125 21.3375 4.1 22.125 5.0625 22.125C6.025 22.125 6.8125 21.3375 6.8125 20.375V16H7.25C7.5125 16 7.6875 15.825 7.6875 15.5625V13.375H8.475L19.325 17.7063C19.3687 17.7063 19.4125 17.75 19.5 17.75C19.5438 17.75 19.5437 17.75 19.5875 17.75C19.6313 17.75 19.675 17.75 19.7188 17.75C21.3813 17.75 22.125 13.4625 22.125 9.4375C22.125 5.4125 21.3813 1.125 19.7188 1.125ZM3.75 2.875H3.4875L5.0625 1.3L6.6375 2.875H6.375C6.1125 2.875 5.9375 3.05 5.9375 3.3125V5.5H4.1875V3.3125C4.1875 3.05 4.0125 2.875 3.75 2.875ZM6.8125 15.125H6.375H3.75H3.3125V13.2875C3.575 13.3312 3.88125 13.375 4.1875 13.375H6.8125V15.125ZM4.1875 12.5C2.48125 12.5 1.125 11.1438 1.125 9.4375C1.125 7.73125 2.48125 6.375 4.1875 6.375H6.375H8.125V7.25C8.125 7.5125 8.3 7.6875 8.5625 7.6875C8.825 7.6875 9 7.5125 9 7.25V6.24375L18.3188 2.525C17.7063 4.0125 17.4875 6.24375 17.4 7.20625V7.25C17.3562 7.90625 17.3125 8.65 17.3125 9.4375C17.3125 10.225 17.3562 10.9687 17.4 11.6687V11.7125C17.4875 12.675 17.7063 14.9063 18.3188 16.3938L9 12.6312V9C9 8.7375 8.825 8.5625 8.5625 8.5625C8.3 8.5625 8.125 8.7375 8.125 9V12.5H4.1875ZM18.2312 11.1C18.2312 10.925 18.2313 10.75 18.1875 10.5312C18.1875 10.4 18.1875 10.2688 18.1875 10.0938C18.1875 9.875 18.1875 9.65625 18.1875 9.39375C18.1875 9 18.1875 8.65 18.1875 8.3C18.1875 8.125 18.1875 7.95 18.2312 7.73125C18.975 7.95 19.5 8.60625 19.5 9.39375C19.5 9.875 19.325 10.3125 18.975 10.6188C18.7563 10.8813 18.4937 11.0562 18.2312 11.1ZM19.7188 16.875C19.3687 16.875 18.5813 15.3875 18.3188 12.0188C18.8 11.9313 19.2812 11.6687 19.6313 11.3187C20.1125 10.8375 20.375 10.1812 20.375 9.48125C20.375 8.2125 19.5 7.1625 18.3188 6.9C18.625 3.4875 19.3687 2.04375 19.7188 2.04375C20.1562 2.04375 21.25 4.58125 21.25 9.48125C21.25 14.3813 20.1562 16.875 19.7188 16.875Z" fill="white" stroke="white" stroke-width="0.5"/>
</svg>
