<svg width="13" height="13" viewBox="0 0 13 13" fill="none" xmlns="http://www.w3.org/2000/svg">
<path d="M4.87407 1.21875C4.87407 1.11101 4.91687 1.00767 4.99306 0.931488C5.06924 0.855301 5.17258 0.8125 5.28032 0.8125C5.38806 0.8125 5.49139 0.855301 5.56758 0.931488C5.64377 1.00767 5.68657 1.11101 5.68657 1.21875V11.2068C5.68655 11.2871 5.66275 11.3656 5.61816 11.4323C5.57357 11.4991 5.51019 11.5512 5.43604 11.5819C5.36188 11.6127 5.28027 11.6208 5.20151 11.6053C5.12275 11.5897 5.05037 11.5511 4.99351 11.4944L1.21701 7.71875C1.17917 7.68101 1.14916 7.63618 1.12868 7.58683C1.1082 7.53747 1.09766 7.48456 1.09766 7.43112C1.09766 7.37769 1.1082 7.32478 1.12868 7.27542C1.14916 7.22607 1.17917 7.18124 1.21701 7.1435H1.21863C1.29478 7.06759 1.39792 7.02496 1.50544 7.02496C1.61297 7.02496 1.71611 7.06759 1.79226 7.1435L4.87407 10.2277V1.21875ZM7.31157 1.79319C7.31175 1.71297 7.33567 1.6346 7.38032 1.56796C7.42497 1.50131 7.48835 1.44938 7.56248 1.41871C7.6366 1.38803 7.71814 1.37999 7.79683 1.39559C7.87551 1.41119 7.94782 1.44974 8.00463 1.50637L11.7811 5.28125C11.819 5.31899 11.849 5.36382 11.8695 5.41317C11.8899 5.46253 11.9005 5.51544 11.9005 5.56888C11.9005 5.62231 11.8899 5.67522 11.8695 5.72458C11.849 5.77393 11.819 5.81876 11.7811 5.8565H11.7795C11.7034 5.93241 11.6002 5.97504 11.4927 5.97504C11.3852 5.97504 11.282 5.93241 11.2059 5.8565L8.12407 2.77387V11.7812C8.12407 11.889 8.08127 11.9923 8.00508 12.0685C7.9289 12.1447 7.82556 12.1875 7.71782 12.1875C7.61008 12.1875 7.50674 12.1447 7.43056 12.0685C7.35437 11.9923 7.31157 11.889 7.31157 11.7812V1.79319Z" fill="#64748B"/>
</svg>
