<svg width="20" height="18" viewBox="0 0 20 18" fill="none" xmlns="http://www.w3.org/2000/svg">
<path d="M9.82891 2C10.3899 2 10.9479 2.354 11.3729 3.062L17.2849 12.916C18.1359 14.331 17.4789 15.489 15.8289 15.489H3.82891C2.17891 15.489 1.52191 14.33 2.37291 12.916L8.28491 3.062C8.70991 2.354 9.26791 2 9.82891 2ZM9.82891 0C8.53291 0 7.34691 0.74 6.56991 2.031L0.657909 11.887C-0.128091 13.196 -0.214091 14.592 0.422909 15.717C1.05991 16.842 2.30191 17.489 3.82891 17.489H15.8289C17.3559 17.489 18.5989 16.843 19.2349 15.718C19.8709 14.593 19.7859 13.197 18.9999 11.888L13.0879 2.034C12.3109 0.74 11.1249 0 9.82891 0Z" fill="#64748B"/>
<path d="M9.82734 13.7875C10.5453 13.7875 11.1273 13.2055 11.1273 12.4875C11.1273 11.7695 10.5453 11.1875 9.82734 11.1875C9.10937 11.1875 8.52734 11.7695 8.52734 12.4875C8.52734 13.2055 9.10937 13.7875 9.82734 13.7875Z" fill="#64748B"/>
<path d="M11.3283 6.48438C11.3283 5.65438 10.6573 4.98438 9.82834 4.98438C9.58291 4.98466 9.3413 5.04516 9.1247 5.16058C8.9081 5.27599 8.72313 5.44279 8.58601 5.64635C8.44889 5.8499 8.36381 6.08399 8.33824 6.32809C8.31267 6.57218 8.34738 6.81882 8.43934 7.04638C8.99334 8.42238 9.82834 10.4844 9.82834 10.4844L11.2193 7.04638C11.2873 6.87338 11.3283 6.68338 11.3283 6.48438Z" fill="#64748B"/>
</svg>
