<svg width="16" height="16" viewBox="0 0 16 16" fill="none" xmlns="http://www.w3.org/2000/svg">
<path d="M7.99998 3.33329L7.52865 2.86196L7.99998 2.39062L8.47131 2.86196L7.99998 3.33329ZM8.66665 9.33329C8.66665 9.5101 8.59641 9.67967 8.47138 9.8047C8.34636 9.92972 8.17679 9.99996 7.99998 9.99996C7.82317 9.99996 7.6536 9.92972 7.52857 9.8047C7.40355 9.67967 7.33331 9.5101 7.33331 9.33329H8.66665ZM4.19531 6.19529L7.52865 2.86196L8.47131 3.80462L5.13798 7.13796L4.19531 6.19529ZM8.47131 2.86196L11.8046 6.19529L10.862 7.13796L7.52865 3.80462L8.47131 2.86196ZM8.66665 3.33329V9.33329H7.33331V3.33329H8.66665Z" fill="#F15F44" fill-opacity="0.5"/>
<path d="M3.33301 10.6666V11.3333C3.33301 11.6869 3.47348 12.0261 3.72353 12.2761C3.97358 12.5261 4.31272 12.6666 4.66634 12.6666H11.333C11.6866 12.6666 12.0258 12.5261 12.2758 12.2761C12.5259 12.0261 12.6663 11.6869 12.6663 11.3333V10.6666" stroke="#F15F44" stroke-opacity="0.5" stroke-width="2"/>
</svg>
