<svg width="13" height="13" viewBox="0 0 13 13" fill="none" xmlns="http://www.w3.org/2000/svg">
<path d="M11.375 9.75V11.375H1.625V9.75H0.8125V11.375L0.81575 11.373C0.81521 11.5882 0.900128 11.7949 1.05186 11.9477C1.20359 12.1004 1.40972 12.1866 1.625 12.1875H11.375C11.5905 12.1875 11.7972 12.1019 11.9495 11.9495C12.1019 11.7972 12.1875 11.5905 12.1875 11.375V9.75H11.375ZM11.2125 5.93125L9.75 7.39375V1.625H8.9375V7.39375L7.475 5.93125L6.90625 6.5L9.34375 8.9375L11.7812 6.5L11.2125 5.93125ZM3.65625 1.625L1.21875 4.0625L1.7875 4.63125L3.25 3.16875V8.9375H4.0625V3.16875L5.525 4.63125L6.09375 4.0625L3.65625 1.625Z" fill="#64748B"/>
</svg>
