<svg width="16" height="16" viewBox="0 0 16 16" fill="none" xmlns="http://www.w3.org/2000/svg">
<path d="M3.93879 14.164H12.0682C13.4679 14.164 14.1642 13.4677 14.1642 12.0883V3.91141C14.1642 2.53198 13.4679 1.83569 12.0682 1.83569H3.93879C2.54594 1.83569 1.83594 2.52541 1.83594 3.91141V12.0886C1.83594 13.4746 2.54594 14.164 3.93879 14.164ZM3.95879 13.0863C3.28937 13.0863 2.91422 12.7314 2.91422 12.0348V3.96569C2.91422 3.26912 3.28937 2.91426 3.95879 2.91426H12.0482C12.7111 2.91426 13.0862 3.26912 13.0862 3.96569V12.0343C13.0862 12.7308 12.7111 13.0857 12.0482 13.0857L3.95879 13.0863ZM5.19765 10.2671C5.19709 10.3371 5.21034 10.4065 5.23665 10.4713C5.26296 10.5361 5.30181 10.5951 5.35097 10.6449C5.40014 10.6946 5.45864 10.7342 5.52313 10.7613C5.58763 10.7884 5.65684 10.8025 5.72679 10.8028C5.87394 10.8028 6.00794 10.7491 6.10165 10.6486L7.99679 8.74684L9.89851 10.6488C9.99251 10.7425 10.1197 10.8028 10.2671 10.8028C10.409 10.8025 10.5451 10.7459 10.6455 10.6455C10.7459 10.5451 10.8024 10.4091 10.8028 10.2671C10.8028 10.1128 10.7425 9.99255 10.6419 9.89198L8.75337 7.99684L10.6488 6.09512C10.7557 5.98798 10.8094 5.86741 10.8094 5.72684C10.8094 5.43226 10.5751 5.19112 10.2737 5.19112C10.1397 5.19112 10.0259 5.24484 9.91879 5.35198L7.99679 7.26055L6.08822 5.35855C5.98794 5.26484 5.87394 5.20426 5.72679 5.20426C5.58655 5.20457 5.45214 5.26041 5.35297 5.35958C5.2538 5.45875 5.19795 5.59316 5.19765 5.73341C5.19765 5.87426 5.25794 6.00141 5.35194 6.10198L7.24679 7.99684L5.35165 9.89884C5.25794 9.99912 5.19765 10.1197 5.19765 10.2671Z" fill="#F15F44" fill-opacity="0.5"/>
</svg>
