<svg width="22" height="22" viewBox="0 0 22 22" fill="none" xmlns="http://www.w3.org/2000/svg">
<path d="M11.0003 5.9584C9.7333 5.9584 8.70864 6.98305 8.70864 8.25007C8.70864 8.5032 8.50345 8.7084 8.25032 8.7084C7.99719 8.7084 7.79199 8.5032 7.79199 8.25007C7.79199 6.4768 9.22704 5.04175 11.0003 5.04175C12.7736 5.04175 14.2086 6.47682 14.2086 8.25007C14.2086 9.86772 13.0144 11.2039 11.4586 11.426V13.7501C11.4586 14.0032 11.2534 14.2084 11.0003 14.2084C10.7472 14.2084 10.542 14.0032 10.542 13.7501V11.0001C10.542 10.747 10.7472 10.5417 11.0003 10.5417C12.2673 10.5417 13.292 9.51709 13.292 8.25007C13.292 6.98305 12.2673 5.9584 11.0003 5.9584ZM11.0003 16.8392C11.5066 16.8392 11.917 16.4289 11.917 15.9226C11.917 15.4163 11.5066 15.0059 11.0003 15.0059C10.494 15.0059 10.0836 15.4163 10.0836 15.9226C10.0836 16.4289 10.494 16.8392 11.0003 16.8392Z" fill="#64748B" stroke="#64748B" stroke-width="0.5"/>
<path d="M10.9997 1.83325C5.93706 1.83325 1.83301 5.9373 1.83301 10.9999C1.83301 16.0625 5.93706 20.1666 10.9997 20.1666C16.0622 20.1666 20.1664 16.0625 20.1664 10.9999C20.1664 5.9373 16.0623 1.83325 10.9997 1.83325ZM2.74968 10.9999C2.74968 6.44358 6.44334 2.74993 10.9997 2.74993C15.5561 2.74993 19.2497 6.44358 19.2497 10.9999C19.2497 15.5563 15.5561 19.2499 10.9997 19.2499C6.44334 19.2499 2.74968 15.5563 2.74968 10.9999Z" fill="#64748B" stroke="#64748B" stroke-width="0.5"/>
</svg>
