<svg width="18" height="16" viewBox="0 0 18 16" fill="none" xmlns="http://www.w3.org/2000/svg">
<path d="M2.75391 3.61944C3.35391 3.01087 3.96248 2.4623 4.21962 2.57373C4.64819 2.74516 4.21962 3.45658 3.96248 3.87659C3.74819 4.23658 1.51105 7.21087 1.51105 9.28516C1.51105 10.3823 1.92248 11.2909 2.67676 11.8566C2.997 12.0877 3.36615 12.2419 3.7556 12.3073C4.14505 12.3727 4.54433 12.3475 4.92248 12.2337C5.83962 11.968 6.59391 11.0337 7.54533 9.85944C8.58248 8.5823 9.96248 6.91087 11.0425 6.91087C12.4396 6.91087 12.4568 7.77659 12.5339 8.42801C9.31105 8.99373 7.93962 11.5909 7.93962 13.048C7.93962 14.5052 9.17391 15.7137 10.691 15.7137C12.1053 15.7137 14.3682 14.5566 14.7111 10.468H16.8196V8.32516H14.7025C14.5739 6.91087 13.7682 4.72516 11.2482 4.72516C9.31962 4.72516 7.66534 6.3623 7.01391 7.1423C6.53391 7.78516 5.24819 9.28516 5.05105 9.49087C4.81962 9.74801 4.46819 10.2109 4.09962 10.2109C3.71391 10.2109 3.48248 9.49944 3.79105 8.56516C4.09105 7.63087 4.99105 6.11373 5.37676 5.54801C6.04534 4.57087 6.49105 3.9023 6.49105 2.73658C6.49105 0.876585 5.08534 0.285156 4.33962 0.285156C3.20819 0.285156 2.22248 1.1423 2.00819 1.35658C1.69962 1.66516 1.44248 1.9223 1.25391 2.15373L2.75391 3.61944ZM10.7168 13.6137C10.451 13.6137 10.0825 13.3909 10.0825 12.9966C10.0825 12.4823 10.7082 11.1109 12.5339 10.6309C12.2853 12.9366 11.3168 13.6137 10.7168 13.6137Z" fill="#666666" stroke="white" stroke-width="0.5"/>
</svg>
