<svg width="12" height="13" viewBox="0 0 12 13" fill="none" xmlns="http://www.w3.org/2000/svg">
<path d="M7.26139 12.1957H4.42805C4.28773 12.1938 4.15367 12.1365 4.05443 12.036C3.9552 11.9355 3.89864 11.7997 3.8968 11.6576V6.09783L0.10722 0.853696C0.0473247 0.77483 0.0108512 0.680315 0.00207006 0.581217C-0.00671111 0.482118 0.0125633 0.382537 0.0576369 0.29413C0.102792 0.205978 0.170863 0.131991 0.2545 0.0801549C0.338138 0.028319 0.434167 0.00060347 0.53222 0H11.1572C11.2553 0.00060347 11.3513 0.028319 11.4349 0.0801549C11.5186 0.131991 11.5866 0.205978 11.6318 0.29413C11.6769 0.382537 11.6962 0.482118 11.6874 0.581217C11.6786 0.680315 11.6421 0.77483 11.5822 0.853696L7.79264 6.09783V11.6576C7.7908 11.7997 7.73424 11.9355 7.63501 12.036C7.53577 12.1365 7.40171 12.1938 7.26139 12.1957ZM4.9593 11.1196H6.73014V5.91848C6.72902 5.80407 6.7665 5.69271 6.83639 5.60283L10.0947 1.07609H1.59472L4.86722 5.60283C4.93711 5.69271 4.97459 5.80407 4.97347 5.91848L4.9593 11.1196Z" fill="currentColor"/>
</svg>
