<svg width="18" height="16" viewBox="0 0 18 16" fill="none" xmlns="http://www.w3.org/2000/svg">
<path d="M14.75 0H2.75C2.02065 0 1.32118 0.289731 0.805456 0.805456C0.289731 1.32118 0 2.02065 0 2.75V12.75C0 13.4793 0.289731 14.1788 0.805456 14.6945C1.32118 15.2103 2.02065 15.5 2.75 15.5H14.75C15.4793 15.5 16.1788 15.2103 16.6945 14.6945C17.2103 14.1788 17.5 13.4793 17.5 12.75V2.75C17.5 2.02065 17.2103 1.32118 16.6945 0.805456C16.1788 0.289731 15.4793 0 14.75 0ZM2.75 1.5H14.75C15.0815 1.5 15.3995 1.6317 15.6339 1.86612C15.8683 2.10054 16 2.41848 16 2.75V10.94L13.28 8.22C13.2089 8.144 13.1217 8.08482 13.0248 8.04677C12.928 8.00871 12.8238 7.99273 12.72 8C12.6151 8.00666 12.5125 8.03393 12.4181 8.08026C12.3238 8.12659 12.2394 8.19106 12.17 8.27L10.88 9.82L6.28 5.22C6.21222 5.14797 6.12993 5.09111 6.03858 5.05319C5.94723 5.01527 5.84887 4.99714 5.75 5C5.64508 5.00666 5.5425 5.03393 5.44813 5.08026C5.35375 5.12659 5.26944 5.19106 5.2 5.27L1.5 9.68V2.75C1.5 2.58585 1.53233 2.4233 1.59515 2.27165C1.65797 2.11999 1.75004 1.98219 1.86612 1.86612C1.98219 1.75004 2.11999 1.65797 2.27165 1.59515C2.4233 1.53233 2.58585 1.5 2.75 1.5ZM1.5 12.75V12.02L5.8 6.86L9.92 10.98L7.4 13.98H2.75C2.42192 13.98 2.10697 13.8511 1.87311 13.621C1.63926 13.3909 1.50525 13.078 1.5 12.75ZM14.75 14H9.35L12.8 9.86L15.95 13.01C15.8947 13.288 15.7451 13.5384 15.5264 13.7188C15.3077 13.8992 15.0335 13.9985 14.75 14Z" fill="#64748B" fill-opacity="0.6"/>
</svg>
