<svg width="17" height="20" viewBox="0 0 17 20" fill="none" xmlns="http://www.w3.org/2000/svg">
<path d="M15.6641 13.3346V7.08464C15.6641 6.39464 15.1299 5.83464 14.4307 5.83464C13.9974 5.83464 13.1641 6.08464 13.1641 7.08464V4.58464M13.1641 4.58464C13.1641 3.89464 12.6299 3.33464 11.9307 3.33464C11.5082 3.33464 10.6641 3.58464 10.6641 4.58464M13.1641 4.58464V9.16797M10.6641 4.58464V2.91797C10.6641 2.22797 10.1299 1.66797 9.43073 1.66797C8.73073 1.66797 8.16406 2.22797 8.16406 2.91797V4.58464M10.6641 4.58464V9.16797M8.16406 4.58464C8.16406 3.58464 7.33656 3.33464 6.91406 3.33464C6.21406 3.33464 5.66406 3.91047 5.66406 4.6013V11.668M8.16406 4.58464V9.16797" stroke="#666666" stroke-width="1.4" stroke-linecap="round" stroke-linejoin="round"/>
<path d="M15.6665 13.335C15.6665 16.6683 13.0549 18.335 9.83321 18.335C6.61154 18.335 5.50321 17.5017 3.00321 13.335L1.69404 11.1642C1.24737 10.4408 1.60487 9.50248 2.42821 9.23582C2.69746 9.14823 2.9871 9.14538 3.25803 9.22764C3.52895 9.3099 3.76811 9.47331 3.94321 9.69582L5.66654 11.6958" stroke="#666666" stroke-width="1.4" stroke-linecap="round" stroke-linejoin="round"/>
</svg>
