<svg width="14" height="15" viewBox="0 0 14 15" fill="none" xmlns="http://www.w3.org/2000/svg">
<path d="M5.998 0.384207C6.27332 0.136841 6.63038 0 7.0005 0C7.37062 0 7.72768 0.136841 8.003 0.384207L13.503 5.32621C13.6594 5.46683 13.7844 5.63877 13.8701 5.83086C13.9557 6.02295 14 6.2309 14 6.44121V13.4962C14 13.894 13.842 14.2756 13.5607 14.5569C13.2794 14.8382 12.8978 14.9962 12.5 14.9962H10C9.60218 14.9962 9.22064 14.8382 8.93934 14.5569C8.65804 14.2756 8.5 13.894 8.5 13.4962V9.99621C8.5 9.8636 8.44732 9.73642 8.35355 9.64265C8.25979 9.54889 8.13261 9.49621 8 9.49621H6C5.86739 9.49621 5.74021 9.54889 5.64645 9.64265C5.55268 9.73642 5.5 9.8636 5.5 9.99621V13.4962C5.5 13.894 5.34196 14.2756 5.06066 14.5569C4.77936 14.8382 4.39782 14.9962 4 14.9962H1.5C1.10218 14.9962 0.720644 14.8382 0.43934 14.5569C0.158035 14.2756 0 13.894 0 13.4962V6.44121C0 6.01621 0.18 5.61121 0.498 5.32621L5.998 0.384207ZM7.334 1.12821C7.24225 1.04584 7.1233 1.00029 7 1.00029C6.8767 1.00029 6.75775 1.04584 6.666 1.12821L1.166 6.07021C1.1139 6.11698 1.0722 6.17417 1.0436 6.23808C1.01501 6.30199 1.00015 6.37119 1 6.44121V13.4962C1 13.6288 1.05268 13.756 1.14645 13.8498C1.24021 13.9435 1.36739 13.9962 1.5 13.9962H4C4.13261 13.9962 4.25979 13.9435 4.35355 13.8498C4.44732 13.756 4.5 13.6288 4.5 13.4962V9.99621C4.5 9.59838 4.65804 9.21685 4.93934 8.93555C5.22064 8.65424 5.60218 8.49621 6 8.49621H8C8.39782 8.49621 8.77936 8.65424 9.06066 8.93555C9.34196 9.21685 9.5 9.59838 9.5 9.99621V13.4962C9.5 13.6288 9.55268 13.756 9.64645 13.8498C9.74021 13.9435 9.86739 13.9962 10 13.9962H12.5C12.6326 13.9962 12.7598 13.9435 12.8536 13.8498C12.9473 13.756 13 13.6288 13 13.4962V6.44121C12.9998 6.37119 12.985 6.30199 12.9564 6.23808C12.9278 6.17417 12.8861 6.11698 12.834 6.07021L7.334 1.12821Z" fill="#098399"/>
</svg>
