<svg
  xmlns="http://www.w3.org/2000/svg"
  viewBox="0 0 22 22"
  fill="currentColor"
>
  <g clip-path="url(#clip0_1013_1909)">
    <path d="M17.1875 21.9999C19.4657 21.9999 21.3125 20.1531 21.3125 17.8749V9.65333C21.3125 8.33901 20.6862 7.10335 19.6261 6.32635L13.4348 1.78825C11.9826 0.723813 10.0077 0.72427 8.55603 1.78938L2.37235 6.32628C1.3132 7.10337 0.6875 8.33848 0.6875 9.65213V17.8749C0.6875 20.1531 2.53432 21.9999 4.8125 21.9999H17.1875ZM12.4937 2.80871L12.6219 2.89724L18.8132 7.43534C19.4784 7.92287 19.8874 8.68126 19.9332 9.4993L19.9375 9.65333V17.8749C19.9375 19.3477 18.7798 20.5501 17.3248 20.6216L17.1875 20.6249L14.4375 20.6245V17.1874C14.4375 15.289 12.8985 13.7499 11 13.7499C9.10152 13.7499 7.5625 15.289 7.5625 17.1874V20.6245L4.8125 20.6249C3.33974 20.6249 2.13738 19.4672 2.06587 18.0122L2.0625 17.8749V9.65213C2.0625 8.82788 2.432 8.05001 3.06416 7.52944L3.18574 7.4349L9.36941 2.898C10.2951 2.2188 11.54 2.18899 12.4937 2.80871ZM11 15.1249C12.0984 15.1249 12.9963 15.9836 13.0625 17.0624L13.0629 17.1874V20.6245H8.9375V17.1874C8.9375 16.089 9.79614 15.1911 10.875 15.125L11 15.1249Z" />
  </g>
  <defs>
    <clipPath id="clip0_1013_1909">
      <rect width="22" height="22" fill="white" />
    </clipPath>
  </defs>
</svg>

