<svg width="21" height="21" viewBox="0 0 21 21" fill="none" xmlns="http://www.w3.org/2000/svg">
<path d="M9.45898 7.37565H11.5423V5.29232H9.45898M10.5007 18.834C5.9069 18.834 2.16732 15.0944 2.16732 10.5007C2.16732 5.9069 5.9069 2.16732 10.5007 2.16732C15.0944 2.16732 18.834 5.9069 18.834 10.5007C18.834 15.0944 15.0944 18.834 10.5007 18.834ZM10.5007 0.0839844C9.13271 0.0839844 7.77817 0.353419 6.51436 0.876906C5.25056 1.40039 4.10223 2.16768 3.13496 3.13496C1.18145 5.08846 0.0839844 7.73798 0.0839844 10.5007C0.0839844 13.2633 1.18145 15.9128 3.13496 17.8663C4.10223 18.8336 5.25056 19.6009 6.51436 20.1244C7.77817 20.6479 9.13271 20.9173 10.5007 20.9173C13.2633 20.9173 15.9128 19.8198 17.8663 17.8663C19.8198 15.9128 20.9173 13.2633 20.9173 10.5007C20.9173 9.13271 20.6479 7.77817 20.1244 6.51436C19.6009 5.25056 18.8336 4.10223 17.8663 3.13496C16.8991 2.16768 15.7507 1.40039 14.4869 0.876906C13.2231 0.353419 11.8686 0.0839844 10.5007 0.0839844ZM9.45898 15.709H11.5423V9.45898H9.45898V15.709Z" fill="currentColor"/>
</svg>
