<svg width="24" height="25" viewBox="0 0 24 25" fill="none" xmlns="http://www.w3.org/2000/svg">
<path d="M2.90625 0C2.01823 0 1.22955 0.367888 0.729085 0.930908C0.228623 1.49393 0 2.2066 0 2.90625C0 3.6059 0.228623 4.31857 0.729085 4.88159C1.22955 5.44461 2.01823 5.8125 2.90625 5.8125C3.79427 5.8125 4.58295 5.44461 5.08341 4.88159C5.35079 4.5808 5.53478 4.23642 5.65356 3.875H20.3438C20.8904 3.875 21.3125 4.29705 21.3125 4.84375V10.0104C21.3125 10.5571 20.8904 10.9792 20.3438 10.9792H12.9949L14.2474 9.7266C14.3872 9.59049 14.4826 9.41536 14.5212 9.22412C14.5598 9.03289 14.5397 8.83446 14.4637 8.65481C14.3876 8.47516 14.2591 8.32265 14.0949 8.21725C13.9307 8.11185 13.7386 8.05847 13.5436 8.06409C13.292 8.07142 13.0531 8.17637 12.8776 8.35673L9.97131 11.263C9.78971 11.4447 9.68769 11.691 9.68769 11.9479C9.68769 12.2048 9.78971 12.4512 9.97131 12.6329L12.8776 15.5391C12.9668 15.6321 13.0737 15.7063 13.1921 15.7574C13.3104 15.8086 13.4377 15.8356 13.5666 15.8369C13.6955 15.8382 13.8233 15.8138 13.9426 15.7651C14.062 15.7163 14.1704 15.6443 14.2615 15.5532C14.3526 15.462 14.4247 15.3536 14.4734 15.2343C14.5221 15.115 14.5465 14.9871 14.5452 14.8582C14.5439 14.7294 14.5169 14.602 14.4658 14.4837C14.4146 14.3654 14.3404 14.2585 14.2474 14.1692L12.9949 12.9167H20.3438C21.9373 12.9167 23.25 11.604 23.25 10.0104V4.84375C23.25 3.25016 21.9373 1.9375 20.3438 1.9375H5.65356C5.53478 1.57608 5.35079 1.2317 5.08341 0.930908C4.58295 0.367888 3.79427 0 2.90625 0ZM2.90625 1.9375C3.3099 1.9375 3.48996 2.05399 3.63534 2.21753C3.76289 2.36103 3.84772 2.57685 3.86743 2.80912C3.86033 2.8745 3.85991 2.94043 3.86617 3.0059C3.84602 3.23716 3.76241 3.45201 3.63534 3.59497C3.48996 3.75851 3.3099 3.875 2.90625 3.875C2.5026 3.875 2.32254 3.75851 2.17716 3.59497C2.03179 3.43143 1.9375 3.17535 1.9375 2.90625C1.9375 2.63715 2.03179 2.38107 2.17716 2.21753C2.32254 2.05399 2.5026 1.9375 2.90625 1.9375ZM0.96875 10.9792C0.711821 10.9792 0.465416 11.0812 0.28374 11.2629C0.102064 11.4446 0 11.691 0 11.9479C0 12.2048 0.102064 12.4513 0.28374 12.6329C0.465416 12.8146 0.711821 12.9167 0.96875 12.9167C1.22568 12.9167 1.47208 12.8146 1.65376 12.6329C1.83544 12.4513 1.9375 12.2048 1.9375 11.9479C1.9375 11.691 1.83544 11.4446 1.65376 11.2629C1.47208 11.0812 1.22568 10.9792 0.96875 10.9792ZM4.19792 10.9792C3.94099 10.9792 3.69458 11.0812 3.51291 11.2629C3.33123 11.4446 3.22917 11.691 3.22917 11.9479C3.22917 12.2048 3.33123 12.4513 3.51291 12.6329C3.69458 12.8146 3.94099 12.9167 4.19792 12.9167C4.45484 12.9167 4.70125 12.8146 4.88293 12.6329C5.0646 12.4513 5.16667 12.2048 5.16667 11.9479C5.16667 11.691 5.0646 11.4446 4.88293 11.2629C4.70125 11.0812 4.45484 10.9792 4.19792 10.9792ZM7.42708 10.9792C7.17015 10.9792 6.92375 11.0812 6.74207 11.2629C6.5604 11.4446 6.45833 11.691 6.45833 11.9479C6.45833 12.2048 6.5604 12.4513 6.74207 12.6329C6.92375 12.8146 7.17015 12.9167 7.42708 12.9167C7.68401 12.9167 7.93042 12.8146 8.11209 12.6329C8.29377 12.4513 8.39583 12.2048 8.39583 11.9479C8.39583 11.691 8.29377 11.4446 8.11209 11.2629C7.93042 11.0812 7.68401 10.9792 7.42708 10.9792ZM0.96875 14.2083C0.711821 14.2083 0.465416 14.3104 0.28374 14.4921C0.102064 14.6737 0 14.9202 0 15.1771C0 15.434 0.102064 15.6804 0.28374 15.8621C0.465416 16.0438 0.711821 16.1458 0.96875 16.1458C1.22568 16.1458 1.47208 16.0438 1.65376 15.8621C1.83544 15.6804 1.9375 15.434 1.9375 15.1771C1.9375 14.9202 1.83544 14.6737 1.65376 14.4921C1.47208 14.3104 1.22568 14.2083 0.96875 14.2083ZM0.96875 17.4375C0.711821 17.4375 0.465416 17.5396 0.28374 17.7212C0.102064 17.9029 0 18.1493 0 18.4062C0 18.6632 0.102064 18.9096 0.28374 19.0913C0.465416 19.2729 0.711821 19.375 0.96875 19.375C1.22568 19.375 1.47208 19.2729 1.65376 19.0913C1.83544 18.9096 1.9375 18.6632 1.9375 18.4062C1.9375 18.1493 1.83544 17.9029 1.65376 17.7212C1.47208 17.5396 1.22568 17.4375 0.96875 17.4375ZM20.3438 18.7292C19.4557 18.7292 18.667 19.0971 18.1666 19.6601C17.8992 19.9609 17.7152 20.3052 17.5964 20.6667H17.1146C16.9862 20.6649 16.8588 20.6886 16.7396 20.7364C16.6205 20.7843 16.5121 20.8554 16.4207 20.9455C16.3292 21.0356 16.2566 21.1431 16.2071 21.2615C16.1576 21.3799 16.132 21.507 16.132 21.6354C16.132 21.7638 16.1576 21.8909 16.2071 22.0093C16.2566 22.1278 16.3292 22.2352 16.4207 22.3253C16.5121 22.4155 16.6205 22.4865 16.7396 22.5344C16.8588 22.5823 16.9862 22.606 17.1146 22.6042H17.5964C17.7152 22.9656 17.8992 23.31 18.1666 23.6108C18.667 24.1738 19.4557 24.5417 20.3438 24.5417C21.2318 24.5417 22.0205 24.1738 22.5209 23.6108C23.0214 23.0477 23.25 22.3351 23.25 21.6354C23.25 20.9358 23.0214 20.2231 22.5209 19.6601C22.0205 19.0971 21.2318 18.7292 20.3438 18.7292ZM0.96875 20.6667C0.711821 20.6667 0.465416 20.7687 0.28374 20.9504C0.102064 21.1321 0 21.3785 0 21.6354C0 21.8923 0.102064 22.1388 0.28374 22.3204C0.465416 22.5021 0.711821 22.6042 0.96875 22.6042C1.22568 22.6042 1.47208 22.5021 1.65376 22.3204C1.83544 22.1388 1.9375 21.8923 1.9375 21.6354C1.9375 21.3785 1.83544 21.1321 1.65376 20.9504C1.47208 20.7687 1.22568 20.6667 0.96875 20.6667ZM4.19792 20.6667C3.94099 20.6667 3.69458 20.7687 3.51291 20.9504C3.33123 21.1321 3.22917 21.3785 3.22917 21.6354C3.22917 21.8923 3.33123 22.1388 3.51291 22.3204C3.69458 22.5021 3.94099 22.6042 4.19792 22.6042C4.45484 22.6042 4.70125 22.5021 4.88293 22.3204C5.0646 22.1388 5.16667 21.8923 5.16667 21.6354C5.16667 21.3785 5.0646 21.1321 4.88293 20.9504C4.70125 20.7687 4.45484 20.6667 4.19792 20.6667ZM7.42708 20.6667C7.17015 20.6667 6.92375 20.7687 6.74207 20.9504C6.5604 21.1321 6.45833 21.3785 6.45833 21.6354C6.45833 21.8923 6.5604 22.1388 6.74207 22.3204C6.92375 22.5021 7.17015 22.6042 7.42708 22.6042C7.68401 22.6042 7.93042 22.5021 8.11209 22.3204C8.29377 22.1388 8.39583 21.8923 8.39583 21.6354C8.39583 21.3785 8.29377 21.1321 8.11209 20.9504C7.93042 20.7687 7.68401 20.6667 7.42708 20.6667ZM10.6562 20.6667C10.3993 20.6667 10.1529 20.7687 9.97124 20.9504C9.78957 21.1321 9.6875 21.3785 9.6875 21.6354C9.6875 21.8923 9.78957 22.1388 9.97124 22.3204C10.1529 22.5021 10.3993 22.6042 10.6562 22.6042C10.9132 22.6042 11.1596 22.5021 11.3413 22.3204C11.5229 22.1388 11.625 21.8923 11.625 21.6354C11.625 21.3785 11.5229 21.1321 11.3413 20.9504C11.1596 20.7687 10.9132 20.6667 10.6562 20.6667ZM13.8854 20.6667C13.6285 20.6667 13.3821 20.7687 13.2004 20.9504C13.0187 21.1321 12.9167 21.3785 12.9167 21.6354C12.9167 21.8923 13.0187 22.1388 13.2004 22.3204C13.3821 22.5021 13.6285 22.6042 13.8854 22.6042C14.1423 22.6042 14.3887 22.5021 14.5704 22.3204C14.7521 22.1388 14.8542 21.8923 14.8542 21.6354C14.8542 21.3785 14.7521 21.1321 14.5704 20.9504C14.3887 20.7687 14.1423 20.6667 13.8854 20.6667ZM20.3438 20.6667C20.7474 20.6667 20.9275 20.7832 21.0728 20.9467C21.2182 21.1102 21.3125 21.3663 21.3125 21.6354C21.3125 21.9045 21.2182 22.1606 21.0728 22.3241C20.9275 22.4877 20.7474 22.6042 20.3438 22.6042C19.9401 22.6042 19.76 22.4877 19.6147 22.3241C19.4871 22.1806 19.4023 21.9648 19.3826 21.7325C19.3897 21.6672 19.3901 21.6012 19.3838 21.5358C19.404 21.3045 19.4876 21.0897 19.6147 20.9467C19.76 20.7832 19.9401 20.6667 20.3438 20.6667Z" fill="currentColor"/>
</svg>
