<svg width="22" height="22" viewBox="0 0 22 22" fill="none" xmlns="http://www.w3.org/2000/svg">
<path fill-rule="evenodd" clip-rule="evenodd" d="M10.948 0.250001H11.052C11.9505 0.249971 12.6997 0.249951 13.2945 0.329911C13.9223 0.414321 14.4891 0.599991 14.9445 1.05546C15.4 1.51093 15.5857 2.07773 15.6701 2.70552C15.7292 3.14512 15.7446 3.66909 15.7486 4.27533C16.3971 4.29614 16.9752 4.33406 17.489 4.40314C18.6614 4.56076 19.6104 4.89288 20.3588 5.64124C21.1071 6.38961 21.4392 7.33856 21.5969 8.51098C21.75 9.6502 21.75 11.1058 21.75 12.9436V13.0564C21.75 14.8942 21.75 16.3498 21.5969 17.489C21.4392 18.6614 21.1071 19.6104 20.3588 20.3588C19.6104 21.1071 18.6614 21.4392 17.489 21.5969C16.3498 21.75 14.8942 21.75 13.0564 21.75H8.94359C7.10583 21.75 5.65019 21.75 4.51098 21.5969C3.33856 21.4392 2.38961 21.1071 1.64124 20.3588C0.89288 19.6104 0.56076 18.6614 0.40314 17.489C0.24997 16.3498 0.24998 14.8942 0.25 13.0564V12.9436C0.24998 11.1058 0.24997 9.6502 0.40314 8.51098C0.56076 7.33856 0.89288 6.38961 1.64124 5.64124C2.38961 4.89288 3.33856 4.56076 4.51098 4.40314C5.02475 4.33406 5.60288 4.29614 6.2514 4.27533C6.2554 3.66909 6.27081 3.14512 6.32991 2.70552C6.41432 2.07773 6.59999 1.51093 7.05546 1.05546C7.51093 0.599991 8.07773 0.414321 8.70552 0.329911C9.3003 0.249951 10.0495 0.249971 10.948 0.250001ZM7.7518 4.25178C8.12993 4.24999 8.52694 4.25 8.94358 4.25H13.0564C13.4731 4.25 13.8701 4.24999 14.2482 4.25178C14.244 3.68146 14.23 3.25125 14.1835 2.90539C14.1214 2.44393 14.0142 2.24644 13.8839 2.11612C13.7536 1.9858 13.5561 1.87858 13.0946 1.81654C12.6116 1.7516 11.964 1.75 11 1.75C10.036 1.75 9.3884 1.7516 8.90539 1.81654C8.44393 1.87858 8.24643 1.9858 8.11612 2.11612C7.9858 2.24644 7.87858 2.44393 7.81654 2.90539C7.77004 3.25125 7.75601 3.68146 7.7518 4.25178ZM4.25 5.9659C3.51924 6.11259 3.05586 6.34795 2.7019 6.70191C2.27869 7.12511 2.02502 7.70476 1.88976 8.71085C1.75159 9.7385 1.75 11.0932 1.75 13C1.75 14.9068 1.75159 16.2615 1.88976 17.2892C2.02502 18.2952 2.27869 18.8749 2.7019 19.2981C3.05586 19.6521 3.51924 19.8874 4.25 20.0341V17.7084C4.04984 17.6695 3.81689 17.5847 3.61612 17.3839C3.38032 17.1481 3.30448 16.8679 3.27499 16.6486C3.24982 16.4614 3.24991 16.2396 3.24999 16.0344C3.25 16.0229 3.25 16.0114 3.25 16V15C3.25 14.9886 3.25 14.9771 3.24999 14.9656C3.24991 14.7604 3.24982 14.5386 3.27499 14.3514C3.30448 14.1321 3.38032 13.8519 3.61612 13.6161C3.81689 13.4153 4.04984 13.3305 4.25 13.2916V5.9659ZM5.75 5.79756V13.25H9C9.0114 13.25 9.0229 13.25 9.0344 13.25C9.2396 13.2499 9.4614 13.2498 9.6486 13.275C9.8679 13.3045 10.1481 13.3803 10.3839 13.6161C10.6197 13.8519 10.6955 14.1321 10.725 14.3514C10.7502 14.5386 10.7501 14.7604 10.75 14.9656C10.75 14.9771 10.75 14.9886 10.75 15V16C10.75 16.0114 10.75 16.0229 10.75 16.0344C10.7501 16.2396 10.7502 16.4614 10.725 16.6486C10.6955 16.8679 10.6197 17.1481 10.3839 17.3839C10.1481 17.6197 9.8679 17.6955 9.6486 17.725C9.4614 17.7502 9.2396 17.7501 9.0344 17.75C9.0229 17.75 9.0114 17.75 9 17.75H5.75V20.2024C6.61719 20.2492 7.67537 20.25 9 20.25H13C14.3246 20.25 15.3828 20.2492 16.25 20.2024V5.79756C15.3828 5.75077 14.3246 5.75 13 5.75H9C7.67537 5.75 6.61719 5.75077 5.75 5.79756ZM17.75 5.9659V20.0341C18.4808 19.8874 18.9441 19.6521 19.2981 19.2981C19.7213 18.8749 19.975 18.2952 20.1102 17.2892C20.2484 16.2615 20.25 14.9068 20.25 13C20.25 11.0932 20.2484 9.7385 20.1102 8.71085C19.975 7.70476 19.7213 7.12511 19.2981 6.70191C18.9441 6.34795 18.4808 6.11259 17.75 5.9659ZM4.75115 14.7512C4.75004 14.8206 4.75 14.9009 4.75 15V16C4.75 16.0991 4.75003 16.1794 4.75115 16.2488C4.82061 16.25 4.90092 16.25 5 16.25H9C9.0991 16.25 9.1794 16.25 9.2488 16.2488C9.25 16.1794 9.25 16.0991 9.25 16V15C9.25 14.9009 9.25 14.8206 9.2488 14.7512C9.1794 14.75 9.0991 14.75 9 14.75H5C4.90092 14.75 4.82061 14.75 4.75115 14.7512Z" fill="#E5E8EE"/>
</svg>
