<svg width="19" height="21" viewBox="0 0 19 21" fill="none" xmlns="http://www.w3.org/2000/svg">
<path fill-rule="evenodd" clip-rule="evenodd" d="M3.54683 3.68333L4.4265 18.4687C4.43974 18.689 4.53657 18.896 4.69723 19.0474C4.85788 19.1988 5.07025 19.2832 5.291 19.2833H13.1257C13.3464 19.2832 13.5588 19.1988 13.7194 19.0474C13.8801 18.896 13.9769 18.689 13.9902 18.4687L14.8698 3.68333H3.54683ZM16.1731 3.68333L15.288 18.5456C15.2551 19.0968 15.013 19.6147 14.6111 19.9935C14.2092 20.3722 13.6779 20.5832 13.1257 20.5833H5.291C4.73877 20.5832 4.20742 20.3722 3.80553 19.9935C3.40363 19.6147 3.16152 19.0968 3.12867 18.5456L2.24358 3.68333H0V2.925C0 2.78134 0.0570684 2.64357 0.158651 2.54198C0.260233 2.4404 0.398008 2.38333 0.541667 2.38333H17.875C18.0187 2.38333 18.1564 2.4404 18.258 2.54198C18.3596 2.64357 18.4167 2.78134 18.4167 2.925V3.68333H16.1731ZM11.375 0C11.5187 0 11.6564 0.0570684 11.758 0.158651C11.8596 0.260233 11.9167 0.398008 11.9167 0.541667V1.3H6.5V0.541667C6.5 0.398008 6.55707 0.260233 6.65865 0.158651C6.76023 0.0570684 6.89801 0 7.04167 0H11.375ZM6.5 6.5H7.8L8.34167 16.25H7.04167L6.5 6.5ZM10.6167 6.5H11.9167L11.375 16.25H10.075L10.6167 6.5Z" fill="#64748B"/>
</svg>
