<svg width="14" height="14" viewBox="0 0 14 14" fill="none" xmlns="http://www.w3.org/2000/svg">
<path d="M2 0C1.46957 0 0.960859 0.210714 0.585786 0.585786C0.210714 0.960859 3.00714e-09 1.46957 3.00714e-09 2V3C3.00714e-09 3.597 0.262 4.134 0.677 4.5C0.464209 4.6877 0.293792 4.91852 0.177068 5.17714C0.0603435 5.43576 -1.55557e-05 5.71626 3.00714e-09 6V8C3.00714e-09 8.597 0.262 9.133 0.677 9.5C0.464209 9.6877 0.293792 9.91852 0.177068 10.1771C0.0603435 10.4358 -1.55557e-05 10.7163 3.00714e-09 11V12C3.00714e-09 12.5304 0.210714 13.0391 0.585786 13.4142C0.960859 13.7893 1.46957 14 2 14H12C12.5304 14 13.0391 13.7893 13.4142 13.4142C13.7893 13.0391 14 12.5304 14 12V11C14 10.403 13.738 9.867 13.323 9.5C13.738 9.133 14 8.597 14 8V6C14 5.403 13.738 4.866 13.323 4.5C13.738 4.134 14 3.597 14 3V2C14 1.46957 13.7893 0.960859 13.4142 0.585786C13.0391 0.210714 12.5304 0 12 0H2ZM1 11C1 10.7348 1.10536 10.4804 1.29289 10.2929C1.48043 10.1054 1.73478 10 2 10H4V13H2C1.73478 13 1.48043 12.8946 1.29289 12.7071C1.10536 12.5196 1 12.2652 1 12V11ZM5 13V10H12C12.2652 10 12.5196 10.1054 12.7071 10.2929C12.8946 10.4804 13 10.7348 13 11V12C13 12.2652 12.8946 12.5196 12.7071 12.7071C12.5196 12.8946 12.2652 13 12 13H5ZM5 9V5H12C12.2652 5 12.5196 5.10536 12.7071 5.29289C12.8946 5.48043 13 5.73478 13 6V8C13 8.26522 12.8946 8.51957 12.7071 8.70711C12.5196 8.89464 12.2652 9 12 9H5ZM4 5V9H2C1.73478 9 1.48043 8.89464 1.29289 8.70711C1.10536 8.51957 1 8.26522 1 8V6C1 5.73478 1.10536 5.48043 1.29289 5.29289C1.48043 5.10536 1.73478 5 2 5H4ZM4 4H2C1.73478 4 1.48043 3.89464 1.29289 3.70711C1.10536 3.51957 1 3.26522 1 3V2C1 1.73478 1.10536 1.48043 1.29289 1.29289C1.48043 1.10536 1.73478 1 2 1H4V4ZM5 4V1H12C12.2652 1 12.5196 1.10536 12.7071 1.29289C12.8946 1.48043 13 1.73478 13 2V3C13 3.26522 12.8946 3.51957 12.7071 3.70711C12.5196 3.89464 12.2652 4 12 4H5Z" fill="currentColor"/>
</svg>
