<svg width="16" height="19" viewBox="0 0 16 19" fill="none" xmlns="http://www.w3.org/2000/svg">
<path d="M1.2345 15.4894C1.43138 16.9507 2.6415 18.096 4.115 18.1634C5.354 18.2203 6.61312 18.25 8 18.25C9.38688 18.25 10.646 18.2203 11.885 18.1625C13.3585 18.096 14.5686 16.9507 14.7655 15.4894C14.8941 14.5357 15 13.5583 15 12.5625C15 11.5668 14.8941 10.5894 14.7655 9.63567C14.5686 8.17442 13.3585 7.02905 11.885 6.96167C10.5909 6.90253 9.2955 6.87365 8 6.87505C6.61312 6.87505 5.354 6.9048 4.115 6.96255C2.6415 7.02905 1.43138 8.17442 1.2345 9.63567C1.105 10.5894 1 11.5668 1 12.5625C1 13.5583 1.10588 14.5357 1.2345 15.4894Z" stroke="#888888" stroke-width="1.5"/>
<path d="M4.0625 6.875V4.6875C4.0625 3.64321 4.47734 2.64169 5.21577 1.90327C5.95419 1.16484 6.95571 0.75 8 0.75C9.04429 0.75 10.0458 1.16484 10.7842 1.90327C11.5227 2.64169 11.9375 3.64321 11.9375 4.6875V6.875" stroke="#888888" stroke-width="1.5" stroke-linecap="round" stroke-linejoin="round"/>
<path d="M11.5 12.5547V12.5634M8 12.5547V12.5634M4.5 12.5547V12.5634" stroke="#888888" stroke-width="2" stroke-linecap="round" stroke-linejoin="round"/>
</svg>
