<svg width="20" height="20" viewBox="0 0 20 20" fill="none" xmlns="http://www.w3.org/2000/svg">
<path fill-rule="evenodd" clip-rule="evenodd" d="M18.333 2.5C19.253 2.5 20 3.246 20 4.167V15.833C20 16.753 19.254 17.5 18.333 17.5H1.667C0.747 17.5 0 16.754 0 15.833V4.167C0 3.247 0.746 2.5 1.667 2.5H18.333ZM7.168 11.328L2.258 16.18H17.583L12.726 11.378L10 13.265L7.168 11.328ZM18.64 7.292L13.844 10.608L18.64 15.344V7.292ZM1.361 7.353V15.189L6.047 10.558L1.361 7.353ZM18.317 3.821H1.698C1.60678 3.81692 1.51741 3.84766 1.448 3.907C1.4172 3.93458 1.39343 3.96911 1.37864 4.00772C1.36386 4.04633 1.3585 4.0879 1.363 4.129V5.749L10 11.656L18.644 5.691V4.199C18.6447 4.06567 18.614 3.96833 18.552 3.907C18.5214 3.87673 18.4847 3.85338 18.4444 3.83854C18.404 3.8237 18.3609 3.81772 18.318 3.821" fill="#888888"/>
</svg>
