<svg width="20" height="20" viewBox="0 0 20 20" fill="none" xmlns="http://www.w3.org/2000/svg">
<path d="M5.00065 18.3311C4.54232 18.3311 4.1501 18.168 3.82398 17.8419C3.49787 17.5158 3.33454 17.1233 3.33398 16.6644V8.33106C3.33398 7.87272 3.49732 7.4805 3.82398 7.15439C4.15065 6.82828 4.54287 6.66494 5.00065 6.66439H5.83398V4.99772C5.83398 3.84494 6.24037 2.86244 7.05315 2.05022C7.86593 1.238 8.84843 0.831611 10.0007 0.831055C11.1529 0.8305 12.1357 1.23689 12.949 2.05022C13.7623 2.86356 14.1684 3.84606 14.1673 4.99772V6.66439H15.0007C15.459 6.66439 15.8515 6.82772 16.1782 7.15439C16.5048 7.48106 16.6679 7.87328 16.6673 8.33106V16.6644C16.6673 17.1227 16.5043 17.5152 16.1782 17.8419C15.852 18.1686 15.4595 18.3316 15.0007 18.3311H5.00065ZM5.00065 16.6644H15.0007V8.33106H5.00065V16.6644ZM10.0007 14.1644C10.459 14.1644 10.8515 14.0013 11.1782 13.6752C11.5048 13.3491 11.6679 12.9566 11.6673 12.4977C11.6668 12.0388 11.5037 11.6466 11.1782 11.3211C10.8526 10.9955 10.4601 10.8322 10.0007 10.8311C9.54121 10.8299 9.14898 10.9933 8.82398 11.3211C8.49898 11.6488 8.33565 12.0411 8.33398 12.4977C8.33232 12.9544 8.49565 13.3469 8.82398 13.6752C9.15232 14.0036 9.54454 14.1666 10.0007 14.1644ZM7.50065 6.66439H12.5007V4.99772C12.5007 4.30328 12.2576 3.713 11.7715 3.22689C11.2854 2.74078 10.6951 2.49772 10.0007 2.49772C9.30621 2.49772 8.71593 2.74078 8.22982 3.22689C7.74371 3.713 7.50065 4.30328 7.50065 4.99772V6.66439Z" fill="#818181" stroke="white" stroke-width="0.5"/>
</svg>
