<svg width="16" height="16" viewBox="0 0 16 16" fill="none" xmlns="http://www.w3.org/2000/svg">
<path d="M7.99968 11.3334C8.18856 11.3334 8.34701 11.2694 8.47501 11.1414C8.60301 11.0134 8.66679 10.8552 8.66634 10.6667V8.00004C8.66634 7.81115 8.60234 7.65293 8.47434 7.52537C8.34634 7.39782 8.18812 7.33382 7.99968 7.33337C7.81123 7.33293 7.65301 7.39693 7.52501 7.52537C7.39701 7.65382 7.33301 7.81204 7.33301 8.00004V10.6667C7.33301 10.8556 7.39701 11.014 7.52501 11.142C7.65301 11.27 7.81123 11.3338 7.99968 11.3334ZM7.99968 6.00004C8.18856 6.00004 8.34701 5.93604 8.47501 5.80804C8.60301 5.68004 8.66679 5.52182 8.66634 5.33337C8.6659 5.14493 8.6019 4.98671 8.47434 4.85871C8.34679 4.73071 8.18856 4.66671 7.99968 4.66671C7.81079 4.66671 7.65256 4.73071 7.52501 4.85871C7.39745 4.98671 7.33345 5.14493 7.33301 5.33337C7.33256 5.52182 7.39656 5.68026 7.52501 5.80871C7.65345 5.93715 7.81168 6.00093 7.99968 6.00004ZM7.99968 14.6667C7.07745 14.6667 6.21079 14.4916 5.39968 14.1414C4.58856 13.7912 3.88301 13.3163 3.28301 12.7167C2.68301 12.1172 2.20812 11.4116 1.85834 10.6C1.50856 9.78848 1.33345 8.92182 1.33301 8.00004C1.33256 7.07826 1.50768 6.2116 1.85834 5.40004C2.20901 4.58849 2.6839 3.88293 3.28301 3.28337C3.88212 2.68382 4.58768 2.20893 5.39968 1.85871C6.21168 1.50849 7.07834 1.33337 7.99968 1.33337C8.92101 1.33337 9.78767 1.50849 10.5997 1.85871C11.4117 2.20893 12.1172 2.68382 12.7163 3.28337C13.3155 3.88293 13.7906 4.58849 14.1417 5.40004C14.4928 6.2116 14.6677 7.07826 14.6663 8.00004C14.665 8.92182 14.4899 9.78848 14.141 10.6C13.7921 11.4116 13.3172 12.1172 12.7163 12.7167C12.1155 13.3163 11.4099 13.7914 10.5997 14.142C9.78945 14.4927 8.92279 14.6676 7.99968 14.6667ZM7.99968 13.3334C9.48856 13.3334 10.7497 12.8167 11.783 11.7834C12.8163 10.75 13.333 9.48893 13.333 8.00004C13.333 6.51115 12.8163 5.25004 11.783 4.21671C10.7497 3.18337 9.48856 2.66671 7.99968 2.66671C6.51079 2.66671 5.24968 3.18337 4.21634 4.21671C3.18301 5.25004 2.66634 6.51115 2.66634 8.00004C2.66634 9.48893 3.18301 10.75 4.21634 11.7834C5.24968 12.8167 6.51079 13.3334 7.99968 13.3334Z" fill="#676767" fill-opacity="0.82"/>
</svg>
