<svg width="15" height="20" viewBox="0 0 15 20" fill="none" xmlns="http://www.w3.org/2000/svg">
<path d="M1.83333 19.25C1.32917 19.25 0.897722 19.0706 0.539 18.7119C0.180278 18.3532 0.000611111 17.9214 0 17.4167V8.25C0 7.74583 0.179667 7.31439 0.539 6.95567C0.898333 6.59695 1.32978 6.41728 1.83333 6.41667H2.75V4.58333C2.75 3.31528 3.19703 2.23453 4.09108 1.34108C4.98514 0.44764 6.06589 0.000611737 7.33333 6.25711e-07C8.60078 -0.000610485 9.68183 0.446417 10.5765 1.34108C11.4712 2.23575 11.9179 3.3165 11.9167 4.58333V6.41667H12.8333C13.3375 6.41667 13.7693 6.59633 14.1286 6.95567C14.4879 7.315 14.6673 7.74645 14.6667 8.25V17.4167C14.6667 17.9208 14.4873 18.3526 14.1286 18.7119C13.7699 19.0713 13.3381 19.2506 12.8333 19.25H1.83333ZM1.83333 17.4167H12.8333V8.25H1.83333V17.4167ZM7.33333 14.6667C7.8375 14.6667 8.26925 14.4873 8.62858 14.1286C8.98792 13.7699 9.16728 13.3381 9.16667 12.8333C9.16606 12.3286 8.98669 11.8971 8.62858 11.539C8.27047 11.1809 7.83872 11.0012 7.33333 11C6.82794 10.9988 6.3965 11.1784 6.039 11.539C5.6815 11.8996 5.50183 12.331 5.5 12.8333C5.49817 13.3357 5.67783 13.7674 6.039 14.1286C6.40017 14.4898 6.83161 14.6691 7.33333 14.6667ZM4.58333 6.41667H10.0833V4.58333C10.0833 3.81944 9.81597 3.17014 9.28125 2.63542C8.74653 2.1007 8.09722 1.83333 7.33333 1.83333C6.56944 1.83333 5.92014 2.1007 5.38542 2.63542C4.85069 3.17014 4.58333 3.81944 4.58333 4.58333V6.41667Z" fill="#818181"/>
</svg>
