<svg width="24" height="24" viewBox="0 0 24 24" fill="none" xmlns="http://www.w3.org/2000/svg">
<path d="M15 19V18H13C12.45 18 11.9793 17.8043 11.588 17.413C11.1967 17.0217 11.0007 16.5507 11 16V8H9V9C9 9.55 8.80433 10.021 8.413 10.413C8.02167 10.805 7.55067 11.0007 7 11H4C3.45 11 2.97933 10.8043 2.588 10.413C2.19667 10.0217 2.00067 9.55067 2 9V5C2 4.45 2.196 3.97933 2.588 3.588C2.98 3.19667 3.45067 3.00067 4 3H7C7.55 3 8.021 3.196 8.413 3.588C8.805 3.98 9.00067 4.45067 9 5V6H15V5C15 4.45 15.196 3.97933 15.588 3.588C15.98 3.19667 16.4507 3.00067 17 3H20C20.55 3 21.021 3.196 21.413 3.588C21.805 3.98 22.0007 4.45067 22 5V9C22 9.55 21.8043 10.021 21.413 10.413C21.0217 10.805 20.5507 11.0007 20 11H17C16.45 11 15.9793 10.8043 15.588 10.413C15.1967 10.0217 15.0007 9.55067 15 9V8H13V16H15V15C15 14.45 15.196 13.9793 15.588 13.588C15.98 13.1967 16.4507 13.0007 17 13H20C20.55 13 21.021 13.196 21.413 13.588C21.805 13.98 22.0007 14.4507 22 15V19C22 19.55 21.8043 20.021 21.413 20.413C21.0217 20.805 20.5507 21.0007 20 21H17C16.45 21 15.9793 20.8043 15.588 20.413C15.1967 20.0217 15.0007 19.5507 15 19ZM17 9H20V5H17V9ZM17 19H20V15H17V19ZM4 9H7V5H4V9Z" fill="#F15F44"/>
</svg>
