<svg width="22" height="22" viewBox="0 0 22 22" fill="none" xmlns="http://www.w3.org/2000/svg">
<path d="M17.8737 20.1667C18.2384 20.1667 18.5881 20.0218 18.846 19.7639C19.1038 19.5061 19.2487 19.1563 19.2487 18.7917V15.5833C19.2487 15.2187 19.1038 14.8689 18.846 14.6111C18.5881 14.3532 18.2384 14.2083 17.8737 14.2083C16.8012 14.2083 15.747 14.0433 14.7387 13.7042C14.4976 13.6281 14.2403 13.6195 13.9947 13.6792C13.7491 13.739 13.5245 13.865 13.3454 14.0433L12.0254 15.3633C9.74492 14.1189 7.87065 12.2446 6.6262 9.96417L7.93703 8.65333C8.31286 8.29583 8.45036 7.76417 8.28536 7.25083C7.95536 6.25167 7.79036 5.1975 7.79036 4.125C7.79036 3.76033 7.6455 3.41059 7.38764 3.15273C7.12977 2.89487 6.78004 2.75 6.41536 2.75H3.20703C2.84236 2.75 2.49262 2.89487 2.23476 3.15273C1.9769 3.41059 1.83203 3.76033 1.83203 4.125C1.83203 12.9708 9.02786 20.1667 17.8737 20.1667ZM3.20703 3.66667H6.41536C6.53692 3.66667 6.6535 3.71496 6.73945 3.80091C6.82541 3.88686 6.8737 4.00344 6.8737 4.125C6.8737 5.29833 7.05703 6.44417 7.41453 7.535C7.46036 7.66333 7.4512 7.84667 7.30453 7.99333L5.4987 9.79C7.0112 12.7508 9.22953 14.9692 12.1995 16.5L13.987 14.6942C14.1154 14.5658 14.2895 14.5292 14.4545 14.575C15.5545 14.9417 16.7004 15.125 17.8737 15.125C17.9953 15.125 18.1118 15.1733 18.1978 15.2592C18.2837 15.3452 18.332 15.4618 18.332 15.5833V18.7917C18.332 18.9132 18.2837 19.0298 18.1978 19.1158C18.1118 19.2017 17.9953 19.25 17.8737 19.25C9.53203 19.25 2.7487 12.4667 2.7487 4.125C2.7487 4.00344 2.79699 3.88686 2.88294 3.80091C2.96889 3.71496 3.08547 3.66667 3.20703 3.66667Z" fill="#64748B"/>
</svg>
