<svg width="24" height="24" viewBox="0 0 24 24" fill="none" xmlns="http://www.w3.org/2000/svg">
<g clip-path="url(#clip0_12945_11192)">
<path d="M18.9855 16.9831V18.9815H6.99467V16.9831C6.99467 16.9831 6.99467 12.9861 12.9901 12.9861C18.9855 12.9861 18.9855 16.9831 18.9855 16.9831ZM15.9878 7.98991C15.9878 7.39701 15.812 6.81744 15.4826 6.32446C15.1532 5.83149 14.685 5.44727 14.1373 5.22038C13.5895 4.99349 12.9868 4.93412 12.4053 5.04979C11.8238 5.16546 11.2896 5.45096 10.8704 5.8702C10.4512 6.28944 10.1657 6.82358 10.05 7.40508C9.93432 7.98658 9.99369 8.58932 10.2206 9.13708C10.4475 9.68484 10.8317 10.153 11.3247 10.4824C11.8176 10.8118 12.3972 10.9876 12.9901 10.9876C13.7852 10.9876 14.5476 10.6718 15.1098 10.1096C15.672 9.54743 15.9878 8.78495 15.9878 7.98991ZM19.1854 13.0461C19.7316 13.55 20.172 14.1576 20.4808 14.8336C20.7896 15.5096 20.9607 16.2403 20.984 16.9831V18.9815H23.9817V16.9831C23.9817 16.9831 23.9817 13.5357 19.1854 13.0461ZM17.9863 4.99219C17.6844 4.99221 17.3843 5.03941 17.097 5.13208C17.6816 5.97041 17.995 6.96787 17.995 7.98991C17.995 9.01194 17.6816 10.0094 17.097 10.8477C17.3843 10.9404 17.6844 10.9876 17.9863 10.9876C18.7813 10.9876 19.5438 10.6718 20.106 10.1096C20.6682 9.54743 20.984 8.78495 20.984 7.98991C20.984 7.19486 20.6682 6.43238 20.106 5.8702C19.5438 5.30802 18.7813 4.99219 17.9863 4.99219ZM7.99391 9.98838H4.99619V6.99067H2.99772V9.98838H0V11.9869H2.99772V14.9846H4.99619V11.9869H7.99391V9.98838Z" fill="#64748B"/>
</g>
<defs>
<clipPath id="clip0_12945_11192">
<rect width="23.9817" height="23.9817" fill="white"/>
</clipPath>
</defs>
</svg>
