<svg width="15" height="18" viewBox="0 0 15 18" fill="none" xmlns="http://www.w3.org/2000/svg">
<path d="M7.76367 16.8212C7.85672 16.9823 8.00995 17.0998 8.18965 17.148C8.36936 17.1961 8.56083 17.1709 8.72195 17.0779L14.1225 13.9601C14.2023 13.914 14.2722 13.8527 14.3283 13.7796C14.3844 13.7065 14.4255 13.623 14.4494 13.534C14.4732 13.445 14.4793 13.3522 14.4672 13.2609C14.4552 13.1695 14.4253 13.0814 14.3792 13.0016L7.17461 0.522617C7.12854 0.442825 7.0672 0.37289 6.99409 0.316807C6.92099 0.260723 6.83755 0.219587 6.74855 0.195749C6.65955 0.171913 6.56672 0.16584 6.47537 0.177879C6.38403 0.189918 6.29594 0.219833 6.21616 0.265917L0.815594 3.38372C0.735803 3.42979 0.665869 3.49113 0.609785 3.56424C0.553701 3.63734 0.512566 3.72078 0.488729 3.80978C0.464892 3.89878 0.458819 3.99161 0.470858 4.08296C0.482898 4.17431 0.512812 4.26239 0.558894 4.34218L7.76367 16.8212ZM8.62794 15.512L2.12476 4.24817L6.31016 1.83179L6.77885 2.64354L5.20992 3.54913L5.5608 4.15671L7.12956 3.25112L7.66608 4.18017L6.09715 5.08593L6.44803 5.69351L8.01679 4.78775L8.55264 5.71578L6.9837 6.62154L7.33458 7.22912L8.90335 6.32336L9.43986 7.25241L7.25995 8.51109L7.61066 9.11867L9.79057 7.85999L10.3271 8.78921L8.75816 9.69497L9.10905 10.3025L10.6778 9.39679L11.2135 10.3248L9.64471 11.2304L9.99559 11.838L11.5644 10.9324L12.1007 11.8614L10.5319 12.7672L10.8828 13.3748L12.4516 12.469L12.8133 13.0956L8.62794 15.512Z" fill="#666666"/>
</svg>
