<svg width="21" height="17" viewBox="0 0 21 17" fill="none" xmlns="http://www.w3.org/2000/svg">
<path d="M10.0833 0.687955V15.813C10.0834 15.9462 10.0448 16.0767 9.97207 16.1884C9.89938 16.3001 9.79578 16.3883 9.67389 16.4422C9.552 16.4961 9.41706 16.5134 9.28551 16.492C9.15396 16.4706 9.03146 16.4114 8.93292 16.3217L4.08833 11.9171H1.60417C1.17872 11.9171 0.770689 11.7481 0.46985 11.4473C0.16901 11.1464 0 10.7384 0 10.313V6.18796C0 5.30245 0.718667 4.58379 1.60417 4.58379H4.08833L8.93292 0.179205C9.03146 0.0894624 9.15396 0.0302975 9.28551 0.00890994C9.41706 -0.0124776 9.552 0.00483439 9.67389 0.0587394C9.79578 0.112644 9.89938 0.200818 9.97207 0.31253C10.0448 0.424241 10.0834 0.554674 10.0833 0.687955ZM4.81708 5.78004C4.69041 5.89517 4.52534 5.95891 4.35417 5.95879H1.60417C1.54339 5.95879 1.4851 5.98293 1.44212 6.02591C1.39914 6.06889 1.375 6.12718 1.375 6.18796V10.313C1.375 10.4395 1.47767 10.5421 1.60417 10.5421H4.35417C4.52558 10.5421 4.69058 10.6054 4.81708 10.7209L8.70833 14.2592V2.2417L4.81708 5.78004ZM14.0067 4.78546C13.9437 4.71791 13.8678 4.66373 13.7835 4.62616C13.6992 4.58858 13.6081 4.56838 13.5158 4.56675C13.4235 4.56512 13.3318 4.5821 13.2462 4.61668C13.1606 4.65125 13.0828 4.70272 13.0175 4.768C12.9523 4.83329 12.9008 4.91105 12.8662 4.99666C12.8316 5.08226 12.8147 5.17396 12.8163 5.26627C12.8179 5.35858 12.8381 5.44962 12.8757 5.53395C12.9133 5.61828 12.9675 5.69418 13.035 5.75712L15.5283 8.25045L13.035 10.7438C12.9675 10.8067 12.9133 10.8826 12.8757 10.967C12.8381 11.0513 12.8179 11.1423 12.8163 11.2346C12.8147 11.327 12.8316 11.4186 12.8662 11.5043C12.9008 11.5899 12.9523 11.6676 13.0175 11.7329C13.0828 11.7982 13.1606 11.8497 13.2462 11.8842C13.3318 11.9188 13.4235 11.9358 13.5158 11.9342C13.6081 11.9325 13.6992 11.9123 13.7835 11.8748C13.8678 11.8372 13.9437 11.783 14.0067 11.7155L16.5 9.22212L18.9933 11.7155C19.0563 11.783 19.1322 11.8372 19.2165 11.8748C19.3008 11.9123 19.3919 11.9325 19.4842 11.9342C19.5765 11.9358 19.6682 11.9188 19.7538 11.8842C19.8394 11.8497 19.9172 11.7982 19.9825 11.7329C20.0477 11.6676 20.0992 11.5899 20.1338 11.5043C20.1684 11.4186 20.1853 11.327 20.1837 11.2346C20.1821 11.1423 20.1619 11.0513 20.1243 10.967C20.0867 10.8826 20.0325 10.8067 19.965 10.7438L17.4717 8.25045L19.965 5.75712C20.0864 5.62679 20.1526 5.45442 20.1494 5.27631C20.1463 5.0982 20.0741 4.92826 19.9482 4.8023C19.8222 4.67634 19.6523 4.60419 19.4741 4.60104C19.296 4.5979 19.1237 4.66402 18.9933 4.78546L16.5 7.27879L14.0067 4.78546Z" fill="currentColor"/>
</svg>
