<svg width="15" height="15" viewBox="0 0 15 15" fill="none" xmlns="http://www.w3.org/2000/svg">
<path d="M0 14.359V10.9687L10.5299 0.458689C10.6895 0.312441 10.8658 0.19943 11.0588 0.119658C11.2518 0.0398861 11.4545 0 11.6667 0C11.8789 0 12.0849 0.0398861 12.2849 0.119658C12.4849 0.19943 12.6577 0.319088 12.8034 0.478632L13.9003 1.59544C14.0598 1.74169 14.1763 1.91453 14.2497 2.11396C14.3231 2.31339 14.3595 2.51282 14.359 2.71225C14.359 2.92498 14.3225 3.12786 14.2497 3.32091C14.1768 3.51396 14.0604 3.68999 13.9003 3.849L3.39031 14.359H0ZM11.6467 3.82906L12.7635 2.71225L11.6467 1.59544L10.5299 2.71225L11.6467 3.82906Z" fill="#64748B"/>
</svg>
