<svg width="17" height="18" viewBox="0 0 17 18" fill="none" xmlns="http://www.w3.org/2000/svg">
<path d="M4.19141 14.0013H10.0247M4.19141 10.668H5.02474M4.19141 7.33464H6.69141M4.19141 0.667969H12.1081L15.8581 4.41797V14.8346" stroke="#098399" stroke-linecap="round" stroke-linejoin="round"/>
<path d="M0.859375 16.0846V4.41797C0.859375 4.08645 0.991071 3.76851 1.22549 3.53409C1.45991 3.29966 1.77785 3.16797 2.10938 3.16797H10.236C10.3686 3.16809 10.4957 3.22084 10.5894 3.31464L13.2127 5.93797C13.2593 5.98455 13.2963 6.0399 13.3215 6.10082C13.3467 6.16175 13.3595 6.22705 13.3594 6.29297V16.0846C13.3594 16.4162 13.2277 16.7341 12.9933 16.9685C12.7588 17.2029 12.4409 17.3346 12.1094 17.3346H2.10938C1.77785 17.3346 1.45991 17.2029 1.22549 16.9685C0.991071 16.7341 0.859375 16.4162 0.859375 16.0846Z" stroke="#098399" stroke-linecap="round" stroke-linejoin="round"/>
<path d="M10.0273 3.16797V6.0013C10.0273 6.13391 10.08 6.26109 10.1738 6.35486C10.2676 6.44862 10.3947 6.5013 10.5273 6.5013H13.3607" stroke="#098399" stroke-linecap="round" stroke-linejoin="round"/>
</svg>
