<svg width="14" height="15" viewBox="0 0 14 15" fill="none" xmlns="http://www.w3.org/2000/svg">
<path fill-rule="evenodd" clip-rule="evenodd" d="M7 14.0625C8.74048 14.0625 10.4097 13.3711 11.6404 12.1404C12.8711 10.9097 13.5625 9.24048 13.5625 7.5C13.5625 5.75952 12.8711 4.09032 11.6404 2.85961C10.4097 1.6289 8.74048 0.9375 7 0.9375C5.25952 0.9375 3.59032 1.6289 2.35961 2.85961C1.1289 4.09032 0.4375 5.75952 0.4375 7.5C0.4375 9.24048 1.1289 10.9097 2.35961 12.1404C3.59032 13.3711 5.25952 14.0625 7 14.0625ZM6.04375 10.1906H5.37813L3.25 8.0625L3.91563 7.39687L5.71563 9.19688L9.65312 5.25L10.3188 5.91563L6.04375 10.1906Z" fill="#5EBDB2"/>
</svg>
