<svg width="33" height="33" viewBox="0 0 33 33" fill="none" xmlns="http://www.w3.org/2000/svg">
<g clip-path="url(#clip0_3531_20401)">
<path fill-rule="evenodd" clip-rule="evenodd" d="M4.6978 -0.00195312C3.25302 -0.00195312 2.08203 1.17006 2.08203 2.61433V30.3761C2.08203 31.8214 3.25302 32.9924 4.6978 32.9924H28.3C29.7443 32.9924 30.9163 31.8214 30.9163 30.3761V10.4704L21.17 -0.00195312H4.6978Z" fill="#E34221"/>
<path fill-rule="evenodd" clip-rule="evenodd" d="M30.9258 10.4944V11.0101H24.3263C24.3263 11.0101 21.0717 10.3604 21.1661 7.55176C21.1661 7.55176 21.2733 10.4944 24.2619 10.4944H30.9258Z" fill="#DC3119"/>
<path opacity="0.5" fill-rule="evenodd" clip-rule="evenodd" d="M21.1797 0V7.50801C21.1797 8.36189 21.7489 10.494 24.3271 10.494H30.9265L21.1797 0Z" fill="white"/>
<path d="M9.77695 25.2712H8.05941V27.4064C8.05941 27.6198 7.89234 27.7869 7.66959 27.7869C7.45612 27.7869 7.28906 27.6198 7.28906 27.4064V22.0965C7.28906 21.7902 7.53966 21.5391 7.84594 21.5391H9.77695C11.0212 21.5391 11.7172 22.3935 11.7172 23.4051C11.7172 24.4173 11.0021 25.2712 9.77695 25.2712ZM9.68362 22.2259H8.05941V24.5838H9.68362C10.4174 24.5838 10.9185 24.1012 10.9185 23.4046C10.9185 22.709 10.4174 22.2259 9.68362 22.2259ZM15.4571 25.2712H13.739V27.4064C13.739 27.6198 13.572 27.7869 13.3492 27.7869C13.1357 27.7869 12.9687 27.6198 12.9687 27.4064V22.0965C12.9687 21.7902 13.2193 21.5391 13.5255 21.5391H15.4571C16.7008 21.5391 17.3974 22.3935 17.3974 23.4051C17.3974 24.4173 16.6822 25.2712 15.4571 25.2712ZM15.3643 22.2259H13.7395V24.5838H15.3643C16.098 24.5838 16.5992 24.1012 16.5992 23.4046C16.5987 22.709 16.098 22.2259 15.3643 22.2259ZM22.6408 22.2259H20.9511V27.4064C20.9511 27.6198 20.784 27.7869 20.5613 27.7869C20.3478 27.7869 20.1807 27.6198 20.1807 27.4064V22.2259H18.5003C18.3147 22.2259 18.1667 22.0774 18.1667 21.8732C18.1667 21.687 18.3147 21.5391 18.5003 21.5391H22.6408C22.8264 21.5391 22.9749 21.6876 22.9749 21.8923C22.9754 22.0774 22.8264 22.2259 22.6408 22.2259Z" fill="white"/>
</g>
<defs>
<clipPath id="clip0_3531_20401">
<rect width="33" height="33" fill="white"/>
</clipPath>
</defs>
</svg>
