<svg width="20" height="20" viewBox="0 0 20 20" fill="none" xmlns="http://www.w3.org/2000/svg">
<path d="M8.35086 7.53875L13.3509 9.41375C13.4699 9.4585 13.5724 9.53847 13.6447 9.64299C13.7171 9.74752 13.7559 9.87162 13.7559 9.99875C13.7559 10.1259 13.7171 10.25 13.6447 10.3545C13.5724 10.459 13.4699 10.539 13.3509 10.5838L8.35086 12.4588C8.25629 12.4943 8.1545 12.5064 8.05423 12.494C7.95395 12.4816 7.85818 12.4451 7.7751 12.3876C7.69203 12.3301 7.62414 12.2533 7.57725 12.1638C7.53035 12.0743 7.50586 11.9748 7.50586 11.8738V8.12375C7.50606 8.02282 7.5307 7.92344 7.57768 7.8341C7.62466 7.74477 7.69257 7.66814 7.77562 7.61077C7.85866 7.55341 7.95436 7.517 8.05454 7.50468C8.15471 7.49235 8.25639 7.50322 8.35086 7.53875Z" fill="#818181"/>
<path fill-rule="evenodd" clip-rule="evenodd" d="M12.5 2.5C16.6375 2.5 20 5.8625 20 10C20 14.1375 16.6375 17.5 12.5 17.5H7.5C3.3625 17.5 0 14.1375 0 10C0 5.8625 3.3625 2.5 7.5 2.5H12.5ZM7.5 3.75C4.05 3.75 1.25 6.55 1.25 10C1.25 13.45 4.05 16.25 7.5 16.25H12.5L12.8212 16.2413C14.4197 16.158 15.9253 15.4647 17.0277 14.3042C18.1301 13.1436 18.7452 11.6044 18.7463 10.0038C18.7463 6.65375 16.1213 3.92875 12.8212 3.76625L12.5 3.7575H7.5V3.75Z" fill="#818181"/>
</svg>
