<svg width="19" height="19" viewBox="0 0 19 19" fill="none" xmlns="http://www.w3.org/2000/svg">
<g clip-path="url(#clip0_15051_15623)">
<path d="M19 14.5933V19H14.25V16.625H11.875V14.25H9.5V12.3296C9.04232 12.5708 8.56299 12.7533 8.06201 12.877C7.56104 13.0007 7.05078 13.0625 6.53125 13.0625C5.93131 13.0625 5.35303 12.9852 4.79639 12.8306C4.23975 12.6759 3.72021 12.4564 3.23779 12.1719C2.75537 11.8874 2.31624 11.5472 1.92041 11.1514C1.52458 10.7555 1.18132 10.3133 0.890625 9.82471C0.599935 9.3361 0.380371 8.81657 0.231934 8.26611C0.0834961 7.71566 0.0061849 7.13737 0 6.53125C0 5.93131 0.0773112 5.35303 0.231934 4.79639C0.386556 4.23975 0.60612 3.72021 0.890625 3.23779C1.17513 2.75537 1.5153 2.31624 1.91113 1.92041C2.30697 1.52458 2.74919 1.18132 3.23779 0.890625C3.7264 0.599935 4.24593 0.380371 4.79639 0.231934C5.34684 0.0834961 5.92513 0.0061849 6.53125 0C7.13119 0 7.70947 0.0773112 8.26611 0.231934C8.82275 0.386556 9.34229 0.60612 9.82471 0.890625C10.3071 1.17513 10.7463 1.5153 11.1421 1.91113C11.5379 2.30697 11.8812 2.74919 12.1719 3.23779C12.4626 3.7264 12.6821 4.24593 12.8306 4.79639C12.979 5.34684 13.0563 5.92513 13.0625 6.53125C13.0625 6.84668 13.0378 7.15902 12.9883 7.46826C12.9388 7.77751 12.8677 8.08057 12.7749 8.37744L19 14.5933ZM17.8125 15.0942L11.4111 8.69287C11.5472 8.34033 11.6585 7.98779 11.7451 7.63525C11.8317 7.28271 11.875 6.91471 11.875 6.53125C11.875 5.79525 11.7358 5.10254 11.4575 4.45312C11.1792 3.80371 10.7957 3.23779 10.3071 2.75537C9.81852 2.27295 9.2526 1.89258 8.60938 1.61426C7.96615 1.33594 7.27344 1.19368 6.53125 1.1875C5.79525 1.1875 5.10254 1.32666 4.45312 1.60498C3.80371 1.8833 3.23779 2.26676 2.75537 2.75537C2.27295 3.24398 1.89258 3.8099 1.61426 4.45312C1.33594 5.09635 1.19368 5.78906 1.1875 6.53125C1.1875 7.26725 1.32666 7.95996 1.60498 8.60938C1.8833 9.25879 2.26676 9.82471 2.75537 10.3071C3.24398 10.7896 3.8099 11.1699 4.45312 11.4482C5.09635 11.7266 5.78906 11.8688 6.53125 11.875C7.13119 11.875 7.71875 11.7729 8.29395 11.5688C8.86914 11.3647 9.39176 11.071 9.86182 10.6875H10.6875V13.0625H13.0625V15.4375H15.4375V17.8125H17.8125V15.0942ZM4.75 3.5625C4.91699 3.5625 5.07161 3.59342 5.21387 3.65527C5.35612 3.71712 5.47982 3.80062 5.58496 3.90576C5.6901 4.0109 5.77669 4.1377 5.84473 4.28613C5.91276 4.43457 5.94369 4.58919 5.9375 4.75C5.9375 4.91699 5.90658 5.07161 5.84473 5.21387C5.78288 5.35612 5.69938 5.47982 5.59424 5.58496C5.4891 5.6901 5.3623 5.77669 5.21387 5.84473C5.06543 5.91276 4.91081 5.94369 4.75 5.9375C4.58301 5.9375 4.42839 5.90658 4.28613 5.84473C4.14388 5.78288 4.02018 5.69938 3.91504 5.59424C3.8099 5.4891 3.72331 5.3623 3.65527 5.21387C3.58724 5.06543 3.55632 4.91081 3.5625 4.75C3.5625 4.58301 3.59342 4.42839 3.65527 4.28613C3.71712 4.14388 3.80062 4.02018 3.90576 3.91504C4.0109 3.8099 4.1377 3.72331 4.28613 3.65527C4.43457 3.58724 4.58919 3.55632 4.75 3.5625Z" fill="#64748B" stroke="#64748B" stroke-width="0.1"/>
</g>
<defs>
<clipPath id="clip0_15051_15623">
<rect width="19" height="19" fill="white"/>
</clipPath>
</defs>
</svg>
