<svg width="19" height="19" viewBox="0 0 19 19" fill="none" xmlns="http://www.w3.org/2000/svg">
<path d="M6.66667 0H1.66667C1.22464 0 0.800716 0.175595 0.488155 0.488155C0.175595 0.800716 0 1.22464 0 1.66667V12.5C0 12.942 0.175595 13.366 0.488155 13.6785C0.800716 13.9911 1.22464 14.1667 1.66667 14.1667H6.66667C7.10869 14.1667 7.53262 13.9911 7.84518 13.6785C8.15774 13.366 8.33333 12.942 8.33333 12.5V1.66667C8.33333 1.22464 8.15774 0.800716 7.84518 0.488155C7.53262 0.175595 7.10869 0 6.66667 0ZM6.66667 11.6667H1.66667V1.66667H6.66667V11.6667ZM16.6667 10H10V11.6667H16.6667V16.6667H6.66667V15.8333H4.16667V16.6667C4.16667 17.1087 4.34226 17.5326 4.65482 17.8452C4.96738 18.1577 5.39131 18.3333 5.83333 18.3333H16.6667C17.1087 18.3333 17.5326 18.1577 17.8452 17.8452C18.1577 17.5326 18.3333 17.1087 18.3333 16.6667V11.6667C18.3333 11.2246 18.1577 10.8007 17.8452 10.4882C17.5326 10.1756 17.1087 10 16.6667 10ZM18.3333 7.5L15 5.83333L16.5917 5.075C16.1128 3.94297 15.3115 2.97678 14.2876 2.29667C13.2638 1.61656 12.0625 1.25257 10.8333 1.25V0C12.8225 0 14.7301 0.790176 16.1366 2.1967C17.5432 3.60322 18.3333 5.51088 18.3333 7.5Z" fill="#098399"/>
</svg>
