<svg width="15" height="15" viewBox="0 0 15 15" fill="none" xmlns="http://www.w3.org/2000/svg">
<path d="M1.16699 4.33268H2.75033M1.16699 7.49935H3.54199M1.16699 10.666H2.75033M4.33366 1.16602V2.74935M7.50033 1.16602V3.54102M10.667 1.16602V2.74935M1.95866 1.16602H13.042C13.252 1.16602 13.4533 1.24942 13.6018 1.39789C13.7503 1.54636 13.8337 1.74772 13.8337 1.95768V5.91602C13.8337 6.12598 13.7503 6.32734 13.6018 6.47581C13.4533 6.62427 13.252 6.70768 13.042 6.70768H7.50033C7.29036 6.70768 7.089 6.79109 6.94053 6.93956C6.79207 7.08802 6.70866 7.28939 6.70866 7.49935V13.041C6.70866 13.251 6.62525 13.4523 6.47679 13.6008C6.32832 13.7493 6.12696 13.8327 5.91699 13.8327H1.95866C1.7487 13.8327 1.54733 13.7493 1.39887 13.6008C1.2504 13.4523 1.16699 13.251 1.16699 13.041V1.95768C1.16699 1.74772 1.2504 1.54636 1.39887 1.39789C1.54733 1.24942 1.7487 1.16602 1.95866 1.16602Z" stroke="#B1B1B1" stroke-linecap="round" stroke-linejoin="round"/>
</svg>
