<svg width="17" height="18" viewBox="0 0 17 18" fill="none" xmlns="http://www.w3.org/2000/svg">
<path fill-rule="evenodd" clip-rule="evenodd" d="M8.05762 5.54102C7.27026 5.54102 6.51514 5.85379 5.95839 6.41054C5.40165 6.96729 5.08887 7.7224 5.08887 8.50977C5.08887 9.29713 5.40165 10.0522 5.95839 10.609C6.51514 11.1657 7.27026 11.4785 8.05762 11.4785C8.84498 11.4785 9.60009 11.1657 10.1568 10.609C10.7136 10.0522 11.0264 9.29713 11.0264 8.50977C11.0264 7.7224 10.7136 6.96729 10.1568 6.41054C9.60009 5.85379 8.84498 5.54102 8.05762 5.54102ZM6.27637 8.50977C6.27637 8.03735 6.46403 7.58428 6.79808 7.25023C7.13213 6.91618 7.5852 6.72852 8.05762 6.72852C8.53003 6.72852 8.9831 6.91618 9.31715 7.25023C9.6512 7.58428 9.83887 8.03735 9.83887 8.50977C9.83887 8.98218 9.6512 9.43525 9.31715 9.7693C8.9831 10.1033 8.53003 10.291 8.05762 10.291C7.5852 10.291 7.13213 10.1033 6.79808 9.7693C6.46403 9.43525 6.27637 8.98218 6.27637 8.50977Z" fill="#098399"/>
<path fill-rule="evenodd" clip-rule="evenodd" d="M8.03818 0C7.68588 0 7.39218 -1.47459e-08 7.15151 0.0158333C6.90547 0.0257421 6.6628 0.0765771 6.43347 0.16625C6.16925 0.275571 5.92915 0.435871 5.72689 0.637994C5.52463 0.840117 5.36417 1.0801 5.25468 1.34425C5.13988 1.62133 5.10901 1.91425 5.09634 2.2325C5.09493 2.34886 5.06405 2.46297 5.0066 2.56417C4.94915 2.66536 4.86699 2.75036 4.7678 2.81121C4.66554 2.86688 4.55083 2.89572 4.43439 2.89502C4.31796 2.89433 4.2036 2.86413 4.10201 2.80725C3.82018 2.65842 3.55101 2.53888 3.25334 2.49929C2.96988 2.46201 2.68185 2.48092 2.4057 2.55495C2.12955 2.62898 1.87068 2.75668 1.64388 2.93075C1.45182 3.08471 1.28674 3.26959 1.15543 3.47779C1.02084 3.67888 0.873593 3.933 0.697843 4.23779L0.678051 4.27262C0.501509 4.57742 0.355051 4.83154 0.248968 5.04846C0.138134 5.27488 0.0510512 5.49813 0.0193845 5.74513C-0.0561402 6.31749 0.0987725 6.89642 0.450051 7.35458C0.632926 7.59288 0.871218 7.76625 1.14038 7.93567C1.24064 7.99511 1.32416 8.07902 1.38315 8.17954C1.44213 8.28006 1.47464 8.39391 1.47763 8.51042C1.47464 8.62693 1.44213 8.74077 1.38315 8.84129C1.32416 8.94182 1.24064 9.02573 1.14038 9.08517C0.871218 9.25458 0.633718 9.42796 0.450051 9.66625C0.275977 9.89305 0.148279 10.1519 0.0742494 10.4281C0.000219638 10.7042 -0.0186924 10.9922 0.0185929 11.2757C0.0510513 11.5227 0.137343 11.746 0.248176 11.9724C0.355051 12.1893 0.501509 12.4434 0.678051 12.7482L0.697843 12.783C0.873593 13.0878 1.02084 13.342 1.15543 13.543C1.29555 13.7513 1.44597 13.9389 1.64388 14.0893C1.87063 14.2635 2.12946 14.3913 2.40562 14.4655C2.68177 14.5397 2.96983 14.5587 3.25334 14.5215C3.55101 14.482 3.82018 14.3632 4.10201 14.2136C4.20351 14.1568 4.31772 14.1267 4.434 14.126C4.55028 14.1253 4.66484 14.1541 4.76701 14.2096C4.86701 14.2697 4.94989 14.3545 5.0077 14.4558C5.0655 14.5572 5.0963 14.6717 5.09713 14.7883C5.10901 15.1066 5.13988 15.3995 5.25547 15.6766C5.36479 15.9408 5.52509 16.1809 5.72721 16.3832C5.92933 16.5854 6.16932 16.7459 6.43347 16.8554C6.66305 16.9504 6.90055 16.9876 7.15151 17.0042C7.39218 17.0208 7.68588 17.0208 8.03818 17.0208H8.07776C8.43005 17.0208 8.72376 17.0208 8.96443 17.005C9.21618 16.9876 9.45288 16.9504 9.68247 16.8546C9.94669 16.7453 10.1868 16.585 10.389 16.3828C10.5913 16.1807 10.7518 15.9407 10.8613 15.6766C10.9761 15.3995 11.0069 15.1066 11.0196 14.7883C11.0209 14.6718 11.0517 14.5576 11.1091 14.4562C11.1666 14.3549 11.2488 14.2698 11.3481 14.2088C11.4505 14.1533 11.5652 14.1246 11.6816 14.1254C11.7981 14.1262 11.9124 14.1566 12.0139 14.2136C12.2958 14.3624 12.5649 14.482 12.8626 14.5208C13.435 14.5963 14.0139 14.4414 14.472 14.0901C14.67 13.9381 14.8204 13.7513 14.9605 13.543C15.0951 13.342 15.2423 13.0878 15.4181 12.783L15.4379 12.7482C15.6144 12.4434 15.7609 12.1893 15.867 11.9724C15.9778 11.746 16.0649 11.5219 16.0965 11.2757C16.1721 10.7033 16.0172 10.1244 15.6659 9.66625C15.483 9.42796 15.2447 9.25458 14.9755 9.08517C14.8753 9.02573 14.7918 8.94182 14.7328 8.84129C14.6738 8.74077 14.6413 8.62693 14.6383 8.51042C14.6383 8.29033 14.7586 8.07183 14.9755 7.93567C15.2447 7.76625 15.4822 7.59288 15.6659 7.35458C15.84 7.12778 15.9677 6.86892 16.0417 6.59277C16.1157 6.31661 16.1346 6.02859 16.0973 5.74513C16.06 5.50176 15.9824 5.26632 15.8678 5.04846C15.7326 4.78545 15.5892 4.52671 15.4379 4.27262L15.4181 4.23779C15.2735 3.97977 15.1209 3.72632 14.9605 3.47779C14.8291 3.26987 14.664 3.08527 14.472 2.93154C14.2453 2.75733 13.9865 2.62949 13.7103 2.55532C13.4342 2.48116 13.1461 2.46212 12.8626 2.49929C12.5649 2.53888 12.2958 2.65762 12.0139 2.80725C11.9124 2.86399 11.7982 2.89411 11.6819 2.89481C11.5657 2.8955 11.4511 2.86674 11.3489 2.81121C11.2494 2.75055 11.167 2.66564 11.1092 2.56443C11.0515 2.46322 11.0204 2.34901 11.0188 2.2325C11.0069 1.91425 10.9761 1.62133 10.8605 1.34425C10.7511 1.08003 10.5908 0.839936 10.3887 0.637677C10.1866 0.435418 9.94661 0.274957 9.68247 0.165458C9.45288 0.0704583 9.21538 0.03325 8.96443 0.016625C8.72376 2.21189e-08 8.43005 0 8.07776 0H8.03818ZM6.88788 1.26271C6.94884 1.23738 7.04147 1.21442 7.23226 1.20096C7.4278 1.1875 7.68113 1.1875 8.05797 1.1875C8.4348 1.1875 8.68813 1.1875 8.88368 1.20096C9.07447 1.21442 9.16709 1.23738 9.22805 1.26271C9.47109 1.36325 9.66347 1.55563 9.76401 1.79867C9.79568 1.87467 9.8218 1.99421 9.83209 2.27683C9.85584 2.90383 10.1796 3.50787 10.7544 3.83958C11.3291 4.17129 12.0139 4.14992 12.5689 3.857C12.819 3.72479 12.9354 3.68758 13.0178 3.67729C13.2779 3.64292 13.541 3.71326 13.7493 3.87283C13.8015 3.91321 13.868 3.98208 13.9749 4.14042C14.0849 4.3035 14.2116 4.52279 14.4 4.84896C14.5884 5.17513 14.7143 5.39521 14.8006 5.57096C14.8853 5.74275 14.9114 5.83458 14.9193 5.90029C14.9537 6.16041 14.8834 6.42352 14.7238 6.63179C14.6731 6.6975 14.5829 6.77983 14.3438 6.93025C13.8118 7.26433 13.4508 7.847 13.4508 8.51042C13.4508 9.17383 13.8118 9.7565 14.3438 10.0906C14.5829 10.241 14.6731 10.3233 14.7238 10.389C14.8837 10.5972 14.9534 10.8601 14.9193 11.1205C14.9114 11.1863 14.8845 11.2789 14.8006 11.4499C14.7143 11.6264 14.5884 11.8457 14.4 12.1719C14.2116 12.498 14.0841 12.7173 13.9749 12.8804C13.868 13.0388 13.8015 13.1076 13.7493 13.148C13.541 13.3076 13.2779 13.3779 13.0178 13.3435C12.9354 13.3333 12.8198 13.296 12.5689 13.1638C12.0147 12.8709 11.3291 12.8488 10.7544 13.1805C10.1796 13.5122 9.85584 14.117 9.83209 14.744C9.8218 15.0266 9.79568 15.1462 9.76401 15.2222C9.71427 15.3423 9.64134 15.4515 9.54938 15.5435C9.45741 15.6355 9.34822 15.7084 9.22805 15.7581C9.16709 15.7835 9.07447 15.8064 8.88368 15.8199C8.68813 15.8333 8.4348 15.8333 8.05797 15.8333C7.68113 15.8333 7.4278 15.8333 7.23226 15.8199C7.04147 15.8064 6.94884 15.7835 6.88788 15.7581C6.76771 15.7084 6.65852 15.6355 6.56656 15.5435C6.47459 15.4515 6.40166 15.3423 6.35193 15.2222C6.32026 15.1462 6.29413 15.0266 6.28384 14.744C6.26009 14.117 5.9363 13.513 5.36155 13.1812C4.7868 12.8495 4.10201 12.8709 3.54705 13.1638C3.29688 13.296 3.18051 13.3333 3.09818 13.3435C2.83806 13.3779 2.57494 13.3076 2.36668 13.148C2.31443 13.1076 2.24793 13.0388 2.14105 12.8804C1.99212 12.6486 1.85035 12.4124 1.71593 12.1719C1.52751 11.8457 1.40163 11.6256 1.31534 11.4499C1.23063 11.2781 1.20451 11.1863 1.19659 11.1205C1.16222 10.8604 1.23256 10.5973 1.39213 10.389C1.4428 10.3233 1.53305 10.241 1.77213 10.0906C2.30413 9.7565 2.66513 9.17383 2.66513 8.51042C2.66513 7.847 2.30413 7.26433 1.77213 6.93025C1.53305 6.77983 1.4428 6.6975 1.39213 6.63179C1.23256 6.42352 1.16222 6.16041 1.19659 5.90029C1.20451 5.83458 1.23143 5.74196 1.31534 5.57096C1.40163 5.39442 1.52751 5.17513 1.71593 4.84896C1.90434 4.52279 2.0318 4.3035 2.14105 4.14042C2.24793 3.98208 2.31443 3.91321 2.36668 3.87283C2.57494 3.71326 2.83806 3.64292 3.09818 3.67729C3.18051 3.68758 3.29609 3.72479 3.54705 3.857C4.10122 4.14992 4.7868 4.17208 5.36155 3.83958C5.9363 3.50787 6.26009 2.90383 6.28384 2.27683C6.29413 1.99421 6.32026 1.87467 6.35193 1.79867C6.45247 1.55563 6.64484 1.36325 6.88788 1.26271Z" fill="#098399"/>
</svg>
