<svg width="15" height="14" viewBox="0 0 15 14" fill="none" xmlns="http://www.w3.org/2000/svg">
<path d="M10.8992 14C10.7047 14 10.5436 13.9228 10.4158 13.7683C10.2881 13.6139 10.2242 13.4221 10.2242 13.1931V12.1365H7.75666C7.56611 12.1365 7.40611 12.0596 7.27667 11.9058C7.14778 11.7507 7.08333 11.559 7.08333 11.3306V7.50881H4.75917V8.5464C4.75917 8.77476 4.69472 8.96617 4.56583 9.12062C4.43694 9.27508 4.27722 9.35231 4.08667 9.35231H0.673333C0.48 9.35231 0.319444 9.27508 0.191667 9.12062C0.0638889 8.96617 0 8.77443 0 8.5454V5.4536C0 5.22524 0.0644445 5.03383 0.193333 4.87938C0.322222 4.72492 0.482222 4.64769 0.673333 4.64769H4.08667C4.28 4.64769 4.44055 4.72492 4.56833 4.87938C4.69611 5.03383 4.76 5.22524 4.76 5.4536V6.51016H7.08333V2.66938C7.08333 2.44035 7.14778 2.24862 7.27667 2.09416C7.40611 1.9397 7.56611 1.86247 7.75666 1.86247H10.2242V0.805906C10.2242 0.57755 10.2886 0.386142 10.4175 0.231685C10.5464 0.0772284 10.7064 0 10.8975 0H14.3258C14.5203 0 14.6814 0.0772284 14.8092 0.231685C14.9369 0.386142 15.0006 0.57755 15 0.805906V3.91768C15 4.14604 14.9356 4.33745 14.8067 4.4919C14.6778 4.64636 14.5178 4.72359 14.3267 4.72359H10.9C10.7056 4.72359 10.5444 4.64636 10.4167 4.4919C10.2889 4.33745 10.225 4.14604 10.225 3.91768V2.86112H7.91666V11.1389H10.225V10.1013C10.225 9.87293 10.2892 9.68153 10.4175 9.52707C10.5458 9.37261 10.7058 9.29538 10.8975 9.29538H14.3258C14.5203 9.29538 14.6814 9.37261 14.8092 9.52707C14.9369 9.68153 15.0006 9.87293 15 10.1013V13.1931C15 13.4221 14.9356 13.6139 14.8067 13.7683C14.6778 13.9228 14.5178 14 14.3267 14H10.8992Z" fill="#676767" fill-opacity="0.82"/>
</svg>
