<svg width="20" height="19" viewBox="0 0 20 19" fill="none" xmlns="http://www.w3.org/2000/svg">
<path fill-rule="evenodd" clip-rule="evenodd" d="M3.99685 1.19648C4.06194 1.1314 4.11356 1.05414 4.14878 0.969101C4.18401 0.884066 4.20214 0.792926 4.20214 0.700884C4.20214 0.608843 4.18401 0.517703 4.14878 0.432668C4.11356 0.347632 4.06194 0.270367 3.99685 0.205284C3.93177 0.140201 3.8545 0.0885743 3.76947 0.0533516C3.68443 0.0181289 3.59329 -9.69814e-10 3.50125 0C3.40921 9.69814e-10 3.31807 0.0181289 3.23304 0.0533516C3.148 0.0885743 3.07073 0.140201 3.00565 0.205284L0.205651 3.00528C0.140463 3.07031 0.0887428 3.14755 0.0534538 3.2326C0.0181647 3.31764 0 3.40881 0 3.50088C0 3.59296 0.0181647 3.68413 0.0534538 3.76917C0.0887428 3.85421 0.140463 3.93146 0.205651 3.99648L3.00565 6.79648C3.07073 6.86157 3.148 6.91319 3.23304 6.94842C3.31807 6.98364 3.40921 7.00177 3.50125 7.00177C3.59329 7.00177 3.68443 6.98364 3.76947 6.94842C3.8545 6.91319 3.93177 6.86157 3.99685 6.79648C4.06194 6.7314 4.11356 6.65414 4.14878 6.5691C4.18401 6.48407 4.20214 6.39293 4.20214 6.30088C4.20214 6.20884 4.18401 6.1177 4.14878 6.03267C4.11356 5.94763 4.06194 5.87037 3.99685 5.80528L2.39105 4.20088H12.6013C13.9008 4.20088 15.1471 4.71713 16.0661 5.63606C16.985 6.55499 17.5013 7.80132 17.5013 9.10088C17.5013 9.28654 17.575 9.46458 17.7063 9.59586C17.8376 9.72713 18.0156 9.80088 18.2013 9.80088C18.3869 9.80088 18.565 9.72713 18.6962 9.59586C18.8275 9.46458 18.9013 9.28654 18.9013 9.10088C18.9013 7.43002 18.2375 5.82759 17.056 4.64611C15.8745 3.46463 14.2721 2.80088 12.6013 2.80088H2.39105L3.99685 1.19648ZM2.10125 9.10088C2.10125 8.91523 2.0275 8.73719 1.89623 8.60591C1.76495 8.47463 1.5869 8.40088 1.40125 8.40088C1.2156 8.40088 1.03755 8.47463 0.906277 8.60591C0.775001 8.73719 0.701251 8.91523 0.701251 9.10088C0.701251 10.7717 1.365 12.3742 2.54648 13.5557C3.72796 14.7371 5.33039 15.4009 7.00125 15.4009H17.2115L15.6057 17.0053C15.4742 17.1367 15.4004 17.315 15.4004 17.5009C15.4004 17.6868 15.4742 17.865 15.6057 17.9965C15.7371 18.1279 15.9154 18.2018 16.1013 18.2018C16.2871 18.2018 16.4654 18.1279 16.5969 17.9965L19.3969 15.1965C19.462 15.1315 19.5138 15.0542 19.5491 14.9692C19.5843 14.8841 19.6025 14.793 19.6025 14.7009C19.6025 14.6088 19.5843 14.5176 19.5491 14.4326C19.5138 14.3476 19.462 14.2703 19.3969 14.2053L16.5969 11.4053C16.4654 11.2738 16.2871 11.2 16.1013 11.2C15.9154 11.2 15.7371 11.2738 15.6057 11.4053C15.4742 11.5367 15.4004 11.715 15.4004 11.9009C15.4004 12.0868 15.4742 12.265 15.6057 12.3965L17.2115 14.0009H7.00125C5.70169 14.0009 4.45536 13.4846 3.53643 12.5657C2.6175 11.6468 2.10125 10.4004 2.10125 9.10088Z" fill="#098399"/>
<path d="M9.23273 5.59961H10.6327V12.5996H9.03273V7.28961L7.79273 7.62961L7.40273 6.25961L9.23273 5.59961Z" fill="#098399"/>
</svg>
