<svg width="24" height="24" viewBox="0 0 24 24" fill="none" xmlns="http://www.w3.org/2000/svg">
<path d="M19.604 10.48L19.741 10.344C20.5465 9.53611 20.9988 8.44182 20.9988 7.30101C20.9988 6.16019 20.5465 5.06591 19.741 4.25801C18.9335 3.45182 17.8391 2.99902 16.698 2.99902C15.557 2.99902 14.4625 3.45182 13.655 4.25801L4.25703 13.656C3.45085 14.4635 2.99805 15.5579 2.99805 16.699C2.99805 17.8401 3.45085 18.9345 4.25703 19.742C5.06493 20.5475 6.15922 20.9998 7.30003 20.9998C8.44085 20.9998 9.53513 20.5475 10.343 19.742L16.694 13.386C17.0213 13.0573 17.244 12.639 17.334 12.1839C17.424 11.7289 17.3773 11.2574 17.1998 10.8288C17.0223 10.4002 16.7219 10.0337 16.3365 9.77557C15.9511 9.5174 15.4979 9.37907 15.034 9.37801C14.4114 9.37838 13.8144 9.62582 13.374 10.066L6.71703 16.722" stroke="#64748B" stroke-width="1.5" stroke-miterlimit="10" stroke-linecap="round" stroke-linejoin="round"/>
</svg>
