<svg width="17" height="21" viewBox="0 0 17 21" fill="none" xmlns="http://www.w3.org/2000/svg">
<path d="M7 19.961V18.231H1.616C1.15533 18.231 0.771 18.077 0.463 17.769C0.155 17.461 0.000666667 17.0763 0 16.615V3.847C0 3.38633 0.154333 3.002 0.463 2.694C0.771667 2.386 1.156 2.23167 1.616 2.231H7V0.501C7 0.359 7.048 0.24 7.144 0.144C7.24 0.0479999 7.359 0 7.501 0C7.643 0 7.76167 0.0479999 7.857 0.144C7.95233 0.24 8 0.358667 8 0.5V19.962C8 20.1033 7.952 20.222 7.856 20.318C7.76 20.414 7.641 20.462 7.499 20.462C7.357 20.462 7.23833 20.414 7.143 20.318C7.04767 20.222 7 20.1033 7 19.962M1.616 17.231H7V14.231H4C3.858 14.231 3.73933 14.183 3.644 14.087C3.54867 13.991 3.50067 13.872 3.5 13.73C3.49933 13.588 3.54733 13.4693 3.644 13.374C3.74067 13.2787 3.85933 13.231 4 13.231H7V10.731H4C3.858 10.731 3.73933 10.683 3.644 10.587C3.54867 10.491 3.50067 10.372 3.5 10.23C3.49933 10.088 3.54733 9.96933 3.644 9.874C3.74067 9.77867 3.85933 9.731 4 9.731H7V7.231H4C3.858 7.231 3.73933 7.183 3.644 7.087C3.54867 6.991 3.50067 6.872 3.5 6.73C3.49933 6.588 3.54733 6.46933 3.644 6.374C3.74067 6.27867 3.85933 6.231 4 6.231H7V3.231H1.616C1.462 3.231 1.32067 3.295 1.192 3.423C1.06333 3.551 0.999333 3.69233 1 3.847V16.616C1 16.7693 1.064 16.9103 1.192 17.039C1.32 17.1677 1.461 17.2317 1.615 17.231M10.692 18.231C10.5507 18.231 10.432 18.183 10.336 18.087C10.24 17.991 10.192 17.872 10.192 17.73C10.192 17.588 10.24 17.4693 10.336 17.374C10.432 17.2787 10.5507 17.231 10.692 17.231H14.577C14.7303 17.231 14.8713 17.167 15 17.039C15.1287 16.911 15.1927 16.77 15.192 16.616V3.846C15.192 3.69267 15.128 3.55167 15 3.423C14.872 3.29433 14.731 3.23033 14.577 3.231H10.692C10.5507 3.231 10.432 3.183 10.336 3.087C10.24 2.991 10.192 2.872 10.192 2.73C10.192 2.588 10.24 2.46933 10.336 2.374C10.432 2.27867 10.5507 2.231 10.692 2.231H14.577C15.037 2.231 15.4213 2.38533 15.73 2.694C16.0387 3.00267 16.1927 3.387 16.192 3.847V16.616C16.192 17.076 16.038 17.4603 15.73 17.769C15.422 18.0777 15.0377 18.2317 14.577 18.231H10.692ZM10.692 10.731C10.5507 10.731 10.432 10.683 10.336 10.587C10.24 10.491 10.192 10.372 10.192 10.23C10.192 10.088 10.24 9.96933 10.336 9.874C10.432 9.77867 10.5507 9.731 10.692 9.731H13.192C13.334 9.731 13.453 9.779 13.549 9.875C13.645 9.971 13.6927 10.09 13.692 10.232C13.6913 10.374 13.6437 10.4927 13.549 10.588C13.4543 10.6833 13.3353 10.731 13.192 10.731H10.692ZM10.692 7.231C10.5507 7.231 10.432 7.183 10.336 7.087C10.24 6.991 10.192 6.872 10.192 6.73C10.192 6.588 10.24 6.46933 10.336 6.374C10.432 6.27867 10.5507 6.231 10.692 6.231H13.192C13.334 6.231 13.453 6.279 13.549 6.375C13.645 6.471 13.6927 6.59 13.692 6.732C13.6913 6.874 13.6437 6.99267 13.549 7.088C13.4543 7.18333 13.3353 7.231 13.192 7.231H10.692Z" fill="#098399"/>
</svg>
