<svg width="20" height="20" viewBox="0 0 20 20" fill="none" xmlns="http://www.w3.org/2000/svg">
<path d="M9.9 0C7.27436 0 4.75625 1.04303 2.89964 2.89964C1.04303 4.75625 0 7.27436 0 9.9C0 12.5256 1.04303 15.0437 2.89964 16.9004C4.75625 18.757 7.27436 19.8 9.9 19.8C12.5256 19.8 15.0437 18.757 16.9004 16.9004C18.757 15.0437 19.8 12.5256 19.8 9.9C19.8 7.27436 18.757 4.75625 16.9004 2.89964C15.0437 1.04303 12.5256 0 9.9 0ZM1.221 10.648H3.982C4.026 11.649 4.1657 12.6434 4.4 13.618H2.024C1.58182 12.6836 1.30989 11.6779 1.221 10.648ZM10.648 4.708V1.309C11.708 1.71185 12.5791 2.49659 13.09 3.509C13.3159 3.89107 13.5139 4.28707 13.684 4.697L10.648 4.708ZM14.19 6.193C14.4452 7.1643 14.597 8.1598 14.641 9.163H10.648V6.193H14.19ZM9.152 1.309V4.708H6.116C6.28559 4.29842 6.48409 3.90142 6.71 3.52C7.21871 2.50344 8.09005 1.71453 9.152 1.309ZM9.152 6.193V9.163H5.17C5.214 8.1598 5.3658 7.1643 5.621 6.193H9.152ZM3.982 9.152H1.221C1.30989 8.12212 1.58182 7.11636 2.024 6.182H4.4C4.16436 7.15604 4.02437 8.15076 3.982 9.152ZM5.17 10.648H9.152V13.618H5.621C5.36681 12.6466 5.21564 11.6511 5.17 10.648ZM9.163 15.048V18.447C8.10295 18.0442 7.23189 17.2594 6.721 16.247C6.49509 15.8656 6.29659 15.4686 6.127 15.059L9.163 15.048ZM10.648 18.447V15.103H13.684C13.5144 15.5126 13.3159 15.9096 13.09 16.291C12.5791 17.3034 11.708 18.0882 10.648 18.491V18.447ZM10.648 13.563V10.593H14.63C14.5844 11.5961 14.4332 12.5916 14.179 13.563H10.648ZM15.829 10.593H18.59C18.5011 11.6229 18.2292 12.6286 17.787 13.563H15.4C15.631 12.606 15.7707 11.6303 15.818 10.648L15.829 10.593ZM15.829 9.108C15.7795 8.12485 15.6358 7.14872 15.4 6.193H17.776C18.2193 7.128 18.491 8.1334 18.579 9.163L15.829 9.108ZM16.929 4.708H14.96C14.6041 3.70717 14.0877 2.77093 13.431 1.936C14.7998 2.55044 15.9888 3.50466 16.885 4.708H16.929ZM6.369 1.936C5.71232 2.77093 5.19591 3.70717 4.84 4.708H2.915C3.81119 3.50466 5.00018 2.55044 6.369 1.936ZM2.904 15.136H4.84C5.19591 16.1368 5.71232 17.0731 6.369 17.908C4.99639 17.2843 3.80704 16.3184 2.915 15.103L2.904 15.136ZM13.42 17.908C14.0767 17.0731 14.5931 16.1368 14.949 15.136H16.885C15.9833 16.3232 14.7948 17.2619 13.431 17.864L13.42 17.908Z" fill="#64748B"/>
</svg>
