<svg width="24" height="24" viewBox="0 0 24 24" fill="none" xmlns="http://www.w3.org/2000/svg">
<path d="M12 3.25C12.1989 3.25 12.3897 3.32902 12.5303 3.46967C12.671 3.61032 12.75 3.80109 12.75 4C12.75 4.19891 12.671 4.38968 12.5303 4.53033C12.3897 4.67098 12.1989 4.75 12 4.75C10.0772 4.75 8.23311 5.51384 6.87348 6.87348C5.51384 8.23311 4.75 10.0772 4.75 12C4.75 13.9228 5.51384 15.7669 6.87348 17.1265C8.23311 18.4862 10.0772 19.25 12 19.25C12.1989 19.25 12.3897 19.329 12.5303 19.4697C12.671 19.6103 12.75 19.8011 12.75 20C12.75 20.1989 12.671 20.3897 12.5303 20.5303C12.3897 20.671 12.1989 20.75 12 20.75C9.67936 20.75 7.45376 19.8281 5.81282 18.1872C4.17187 16.5462 3.25 14.3206 3.25 12C3.25 9.67936 4.17187 7.45376 5.81282 5.81282C7.45376 4.17187 9.67936 3.25 12 3.25Z" fill="#F15F44"/>
<path d="M16.47 9.52692C16.3375 9.38474 16.2654 9.1967 16.2688 9.0024C16.2723 8.80809 16.351 8.62271 16.4884 8.4853C16.6258 8.34788 16.8112 8.26917 17.0055 8.26574C17.1998 8.26231 17.3878 8.33444 17.53 8.46692L20.53 11.4669C20.6705 11.6075 20.7493 11.7982 20.7493 11.9969C20.7493 12.1957 20.6705 12.3863 20.53 12.5269L17.53 15.5269C17.4613 15.6006 17.3785 15.6597 17.2865 15.7007C17.1945 15.7417 17.0952 15.7637 16.9945 15.7655C16.8938 15.7673 16.7938 15.7488 16.7004 15.711C16.607 15.6733 16.5222 15.6172 16.451 15.546C16.3797 15.4747 16.3236 15.3899 16.2859 15.2965C16.2482 15.2031 16.2296 15.1031 16.2314 15.0024C16.2332 14.9017 16.2552 14.8024 16.2962 14.7104C16.3372 14.6184 16.3963 14.5356 16.47 14.4669L18.19 12.7469H10C9.80109 12.7469 9.61032 12.6679 9.46967 12.5272C9.32902 12.3866 9.25 12.1958 9.25 11.9969C9.25 11.798 9.32902 11.6072 9.46967 11.4666C9.61032 11.3259 9.80109 11.2469 10 11.2469H18.19L16.47 9.52692Z" fill="#F15F44"/>
</svg>
