<svg width="23" height="23" viewBox="0 0 23 23" fill="none" xmlns="http://www.w3.org/2000/svg">
<path d="M1.40932 20.5809C1.27462 20.7158 1.19904 20.8988 1.19922 21.0895C1.1994 21.2801 1.27532 21.4629 1.41028 21.5977C1.54524 21.7324 1.72819 21.8079 1.91888 21.8078C2.10956 21.8076 2.29237 21.7317 2.42707 21.5967L1.40932 20.5809ZM6.8862 17.1328C7.01706 16.9972 7.08942 16.8156 7.0877 16.6271C7.08597 16.4387 7.0103 16.2584 6.87697 16.1252C6.74365 15.992 6.56334 15.9165 6.37488 15.915C6.18643 15.9134 6.0049 15.986 5.86941 16.117L6.8862 17.1328ZM14.8154 5.25711L17.769 8.21453L18.7858 7.1987L15.8322 4.24128L14.8154 5.25711ZM8.88337 18.1179L4.93791 14.1687L3.92207 15.1854L7.86657 19.1328L8.88337 18.1179ZM16.5826 13.7029L14.7455 14.3929L15.2515 15.7384L17.0886 15.0494L16.5826 13.7029ZM8.66007 8.28545L9.32612 6.46941L7.97582 5.97395L7.31074 7.79095L8.66007 8.28545ZM5.79274 10.9266C6.47507 10.7388 6.99353 10.6065 7.41807 10.3018L6.57762 9.13453C6.41278 9.25432 6.19716 9.32428 5.41132 9.54087L5.79274 10.9266ZM7.31074 7.79095C7.02995 8.55761 6.94178 8.76653 6.80953 8.92178L7.90395 9.85424C8.24224 9.45653 8.4157 8.94957 8.66007 8.28545L7.31074 7.79095ZM7.41807 10.3018C7.5976 10.1721 7.75956 10.0229 7.90395 9.85424L6.80953 8.92178C6.74084 9.00155 6.663 9.07296 6.57762 9.13453L7.41807 10.3018ZM14.7455 14.3929C14.0852 14.6421 13.5821 14.8184 13.1872 15.1596L14.1283 16.2482C14.2817 16.1141 14.4896 16.024 15.2515 15.7384L14.7455 14.3929ZM13.5169 17.6388C13.7325 16.8539 13.8025 16.6392 13.9213 16.4734L12.7531 15.6359C12.4493 16.0604 12.318 16.5779 12.1302 17.2583L13.5169 17.6388ZM13.1872 15.1605C13.0237 15.3011 12.879 15.4602 12.7531 15.6359L13.9223 16.4734C13.9817 16.3891 14.0504 16.3147 14.1283 16.2482L13.1872 15.1605ZM4.93791 14.1677C4.31882 13.5477 3.89907 13.126 3.62691 12.7839C3.35282 12.4398 3.32503 12.2913 3.32407 12.2252L1.88657 12.2338C1.89041 12.7915 2.16737 13.2592 2.50182 13.6789C2.83724 14.1006 3.32695 14.5894 3.92112 15.1835L4.93791 14.1677ZM5.41132 9.54087C4.60057 9.76512 3.93357 9.9472 3.43428 10.1484C2.93595 10.3478 2.46349 10.618 2.18557 11.101L3.43237 11.8179C3.46495 11.7604 3.5627 11.6454 3.96903 11.4824C4.37537 11.3195 4.94845 11.1595 5.79274 10.9266L5.41132 9.54087ZM3.32407 12.2242C3.32324 12.0816 3.36028 11.9414 3.43141 11.8179L2.18557 11.101C1.9873 11.4455 1.88411 11.8364 1.88657 12.2338L3.32407 12.2242ZM7.86657 19.1328C8.46457 19.7308 8.9562 20.2253 9.37882 20.5617C9.80145 20.899 10.272 21.1769 10.8336 21.1779L10.8355 19.7404C10.7684 19.7404 10.6199 19.7126 10.2749 19.4376C9.92987 19.1635 9.50628 18.7418 8.88337 18.1179L7.86657 19.1328ZM12.1312 17.2574C11.8964 18.1084 11.7363 18.6853 11.5724 19.0945C11.4076 19.5047 11.2917 19.6024 11.2342 19.635L11.9462 20.8837C12.434 20.6058 12.7052 20.1304 12.9064 19.6292C13.1077 19.1271 13.2917 18.4553 13.5169 17.6388L12.1312 17.2574ZM10.8336 21.1779C11.2236 21.1779 11.6069 21.0773 11.9462 20.8837L11.2342 19.635C11.1127 19.7041 10.9753 19.7405 10.8355 19.7404L10.8336 21.1779ZM17.769 8.21453C18.7887 9.2342 19.494 9.94241 19.9253 10.527C20.3508 11.1001 20.3997 11.4058 20.3479 11.6454L21.7528 11.9492C21.9349 11.1077 21.5995 10.3708 21.081 9.6712C20.5693 8.9812 19.7719 8.18482 18.7858 7.1987L17.769 8.21453ZM17.0886 15.0474C18.3929 14.5577 19.449 14.1629 20.1994 13.746C20.9612 13.3244 21.5707 12.7915 21.7528 11.9492L20.3479 11.6454C20.2962 11.8849 20.1256 12.1437 19.5017 12.4887C18.8663 12.8423 17.9319 13.195 16.5826 13.7019L17.0886 15.0474ZM15.8322 4.24128C14.8394 3.24749 14.0382 2.44345 13.3454 1.92787C12.6419 1.40653 11.9002 1.06824 11.0549 1.25512L11.3654 2.65812C11.605 2.60541 11.9107 2.65332 12.4877 3.08266C13.0751 3.5187 13.7891 4.22882 14.8154 5.25711L15.8322 4.24128ZM9.32516 6.46845C9.82541 5.10474 10.1742 4.15886 10.524 3.51678C10.869 2.88428 11.1259 2.71178 11.3654 2.65812L11.0559 1.25512C10.2107 1.44103 9.6807 2.06012 9.26191 2.8287C8.84887 3.5877 8.45978 4.65528 7.97582 5.97395L9.32516 6.46845ZM2.42516 21.5967L6.8862 17.1328L5.86941 16.117L1.40837 20.5809L2.42516 21.5967Z" fill="#64748B"/>
</svg>
