<svg width="30" height="30" viewBox="0 0 30 30" fill="none" xmlns="http://www.w3.org/2000/svg">
<rect width="30" height="30" rx="15" fill="#666666" fill-opacity="0.12"/>
<path d="M14.408 16.22L14.104 11.5V8.3H15.784V11.5L15.48 16.22H14.408ZM14.936 19.676C14.648 19.676 14.4027 19.5747 14.2 19.372C13.9973 19.1693 13.896 18.924 13.896 18.636C13.896 18.348 13.9973 18.1027 14.2 17.9C14.4027 17.6973 14.648 17.596 14.936 17.596C15.2347 17.596 15.48 17.6973 15.672 17.9C15.8747 18.1027 15.976 18.348 15.976 18.636C15.976 18.924 15.8747 19.1693 15.672 19.372C15.48 19.5747 15.2347 19.676 14.936 19.676Z" fill="#666666"/>
</svg>
