<svg width="16" height="16" viewBox="0 0 16 16" fill="none" xmlns="http://www.w3.org/2000/svg">
<path d="M5.5 8V9.66667M3 8V10.5M8 8V10.5M13 8V10.5M10.5 8V9.66667M0.5 0.5V3.83333M0.5 2.16667H15.5M15.5 0.5V3.83333M14.5625 8C15.08 8 15.5 8.42667 15.5 8.9525V13.7142C15.5 14.24 15.08 14.6667 14.5625 14.6667H1.33333C1.11232 14.6667 0.900358 14.5789 0.744078 14.4226C0.587797 14.2663 0.5 14.0543 0.5 13.8333V8.9525C0.5 8.42667 0.92 8 1.4375 8H14.5625Z" stroke="#212121" stroke-linecap="round" stroke-linejoin="round"/>
</svg>
