<svg width="19" height="15" viewBox="0 0 19 15" fill="none" xmlns="http://www.w3.org/2000/svg">
<path d="M3.375 5.73174C3.375 6.70824 4.94125 7.50011 6.875 7.50011V5.73174C6.875 4.86199 6.875 4.42624 6.52762 4.16111C6.17937 3.89599 5.83462 3.99486 5.14512 4.19349C4.08812 4.49886 3.375 5.07199 3.375 5.73174Z" stroke="#B1B1B1" stroke-width="1.3125" stroke-linejoin="round"/>
<path d="M13 4.4375C13 6.12887 10.2577 7.5 6.875 7.5C3.49225 7.5 0.75 6.12887 0.75 4.4375C0.75 2.74613 3.49225 1.375 6.875 1.375C10.2577 1.375 13 2.74613 13 4.4375Z" stroke="#B1B1B1" stroke-width="1.3125"/>
<path d="M0.75 4.875V10.7086C0.75 12.3186 3.49225 13.625 6.875 13.625H16.5C17.3251 13.625 17.7373 13.625 17.9936 13.3686C18.25 13.1123 18.25 12.7001 18.25 11.875V9.25C18.25 8.42487 18.25 8.01275 17.9936 7.75638C17.7373 7.5 17.3251 7.5 16.5 7.5H6.875" stroke="#B1B1B1" stroke-width="1.3125"/>
<path d="M14.75 13.625V11.875M11.25 13.625V11.875M7.75 13.625V11.875M4.25 13.1875V11.4375" stroke="#B1B1B1" stroke-width="1.3125" stroke-linecap="round" stroke-linejoin="round"/>
</svg>
