<svg width="19" height="19" viewBox="0 0 19 19" fill="none" xmlns="http://www.w3.org/2000/svg">
  <path d="M7.033 8.65113C6.86388 8.82027 6.72976 9.02108 6.63831 9.24209C6.54685 9.46309 6.49985 9.69995 6.5 9.93913V12.5011H9.078C9.561 12.5011 10.025 12.3091 10.367 11.9671L17.967 4.36313C18.1365 4.19407 18.2709 3.99324 18.3627 3.77214C18.4544 3.55104 18.5016 3.31401 18.5016 3.07463C18.5016 2.83526 18.4544 2.59823 18.3627 2.37713C18.2709 2.15603 18.1365 1.95519 17.967 1.78613L17.216 1.03513C17.0469 0.865512 16.846 0.730929 16.6248 0.639099C16.4036 0.54727 16.1665 0.5 15.927 0.5C15.6875 0.5 15.4504 0.54727 15.2292 0.639099C15.008 0.730929 14.8071 0.865512 14.638 1.03513L7.033 8.65113Z" stroke="#656565" stroke-linecap="round" stroke-linejoin="round"/>
  <path d="M18.5 9.5C18.5 13.743 18.5 15.864 17.182 17.182C15.864 18.5 13.742 18.5 9.5 18.5C5.258 18.5 3.136 18.5 1.818 17.182C0.5 15.864 0.5 13.742 0.5 9.5C0.5 5.258 0.5 3.136 1.818 1.818C3.136 0.5 5.258 0.5 9.5 0.5" stroke="#656565" stroke-linecap="round" stroke-linejoin="round"/>
</svg>
