<svg width="20" height="16" viewBox="0 0 20 16" fill="none" xmlns="http://www.w3.org/2000/svg">
<path d="M14 15H18C18.2652 15 18.5196 14.8946 18.7071 14.7071C18.8946 14.5196 19 14.2652 19 14V13C19 12.2044 18.6839 11.4413 18.1213 10.8787C17.5587 10.3161 16.7956 10 16 10H14M11.764 6C12.1691 6.45286 12.7021 6.77206 13.2925 6.91536C13.8829 7.05866 14.503 7.01931 15.0705 6.80252C15.6381 6.58572 16.1265 6.2017 16.471 5.70126C16.8156 5.20083 17.0001 4.60758 17.0001 4C17.0001 3.39243 16.8156 2.79917 16.471 2.29874C16.1265 1.7983 15.6381 1.41428 15.0705 1.19748C14.503 0.980687 13.8829 0.941337 13.2925 1.08464C12.7021 1.22794 12.1691 1.54714 11.764 2M1 14V13C1 12.2044 1.31607 11.4413 1.87868 10.8787C2.44129 10.3161 3.20435 10 4 10H8C8.79565 10 9.55871 10.3161 10.1213 10.8787C10.6839 11.4413 11 12.2044 11 13V14C11 14.2652 10.8946 14.5196 10.7071 14.7071C10.5196 14.8946 10.2652 15 10 15H2C1.73478 15 1.48043 14.8946 1.29289 14.7071C1.10536 14.5196 1 14.2652 1 14ZM9 4C9 4.79565 8.68393 5.55871 8.12132 6.12132C7.55871 6.68393 6.79565 7 6 7C5.20435 7 4.44129 6.68393 3.87868 6.12132C3.31607 5.55871 3 4.79565 3 4C3 3.20435 3.31607 2.44129 3.87868 1.87868C4.44129 1.31607 5.20435 1 6 1C6.79565 1 7.55871 1.31607 8.12132 1.87868C8.68393 2.44129 9 3.20435 9 4Z" stroke="#64748B" stroke-width="2" stroke-linecap="round"/>
</svg>
