<svg width="21" height="16" viewBox="0 0 21 16" fill="none" xmlns="http://www.w3.org/2000/svg">
<path d="M9.92644 0.0902997C10.0975 0.168854 10.2424 0.294804 10.3441 0.453222C10.4458 0.61164 10.4999 0.795883 10.5 0.984112V14.7654C10.4996 14.9534 10.4454 15.1374 10.3438 15.2957C10.2421 15.454 10.0974 15.5798 9.92655 15.6585C9.75572 15.7371 9.56596 15.7653 9.37965 15.7396C9.19335 15.7139 9.01829 15.6354 8.87513 15.5135L4.557 11.8122H2.29688C1.68771 11.8122 1.10349 11.5702 0.672739 11.1395C0.241991 10.7088 0 10.1245 0 9.51536L0 6.23411C0 4.96624 1.029 3.93724 2.29688 3.93724H4.55831L8.87513 0.235987C9.01813 0.113797 9.19315 0.0351375 9.37947 0.00931834C9.56578 -0.0165008 9.7556 0.0116018 9.92644 0.0902997ZM8.53125 3.12349L5.56238 5.66842C5.38408 5.82153 5.15689 5.9058 4.92188 5.90599H2.29688C2.20985 5.90599 2.12639 5.94056 2.06486 6.00209C2.00332 6.06363 1.96875 6.14709 1.96875 6.23411V9.51536C1.96875 9.69649 2.11575 9.84349 2.29688 9.84349H4.92188C5.15681 9.84349 5.38388 9.92749 5.56238 10.0797L8.53125 12.626V3.12349ZM16.5323 0.448612C16.7168 0.264271 16.967 0.160728 17.2279 0.160728C17.4887 0.160728 17.7389 0.264271 17.9235 0.448612C18.8986 1.42363 19.672 2.58117 20.1998 3.85512C20.7275 5.12908 20.9991 6.4945 20.9991 7.87342C20.9991 9.25235 20.7275 10.6178 20.1998 11.8917C19.672 13.1657 18.8986 14.3232 17.9235 15.2982C17.7369 15.4723 17.4901 15.5672 17.2349 15.5628C16.9798 15.5584 16.7363 15.455 16.5559 15.2746C16.3754 15.0942 16.2721 14.8507 16.2677 14.5956C16.2633 14.3404 16.3582 14.0936 16.5323 13.907C17.3246 13.1148 17.9531 12.1742 18.3819 11.1391C18.8107 10.104 19.0314 8.99452 19.0314 7.87408C19.0314 6.75365 18.8107 5.64418 18.3819 4.60905C17.9531 3.57392 17.3246 2.63339 16.5323 1.84117C16.3479 1.6566 16.2444 1.40641 16.2444 1.14555C16.2444 0.884689 16.3479 0.633183 16.5323 0.448612ZM15.141 3.23242L15.1397 3.23374C16.37 4.46439 17.0611 6.13329 17.0611 7.87342C17.0611 9.61356 16.37 11.2825 15.1397 12.5131C15.0194 12.6427 14.8663 12.7374 14.6967 12.7873C14.5271 12.8372 14.3471 12.8404 14.1758 12.7966C14.0045 12.7528 13.8481 12.6636 13.7233 12.5384C13.5984 12.4132 13.5096 12.2567 13.4663 12.0852C13.4225 11.9141 13.4257 11.7344 13.4753 11.5649C13.525 11.3954 13.6193 11.2424 13.7484 11.1219C14.1751 10.6953 14.5135 10.1889 14.7444 9.63148C14.9752 9.07411 15.0941 8.47672 15.0941 7.87342C15.0941 7.27013 14.9752 6.67273 14.7444 6.11536C14.5135 5.55799 14.1751 5.05156 13.7484 4.62499C13.5638 4.44032 13.46 4.18986 13.46 3.92871C13.46 3.66755 13.5638 3.41709 13.7484 3.23242C13.9331 3.04776 14.1836 2.94402 14.4447 2.94402C14.7059 2.94402 14.9563 3.04776 15.141 3.23242Z" fill="#098399"/>
</svg>
