<svg width="22" height="22" viewBox="0 0 22 22" fill="none" xmlns="http://www.w3.org/2000/svg">
<path d="M20.3604 20.5L15.7761 15.9158M15.7761 15.9158C16.5603 15.1316 17.1823 14.2007 17.6067 13.1762C18.0311 12.1516 18.2495 11.0535 18.2495 9.94457C18.2495 8.83561 18.0311 7.73751 17.6067 6.71297C17.1823 5.68843 16.5603 4.75751 15.7761 3.97336C14.992 3.18921 14.0611 2.56718 13.0365 2.1428C12.012 1.71843 10.9139 1.5 9.80492 1.5C8.69596 1.5 7.59786 1.71843 6.57332 2.1428C5.54878 2.56718 4.61786 3.18921 3.83371 3.97336C2.25004 5.55702 1.36035 7.70493 1.36035 9.94457C1.36035 12.1842 2.25004 14.3321 3.83371 15.9158C5.41737 17.4994 7.56528 18.3891 9.80492 18.3891C12.0446 18.3891 14.1925 17.4994 15.7761 15.9158ZM6.63829 9.94457H9.80492H12.9715" stroke="#64748B" stroke-width="1.5" stroke-linecap="round" stroke-linejoin="round"/>
</svg>
